<?xml version="1.0" encoding="UTF-8" standalone="no"?>
<!-- Created with Inkscape (http://www.inkscape.org/) -->

<svg
   xmlns:dc="http://purl.org/dc/elements/1.1/"
   xmlns:cc="http://creativecommons.org/ns#"
   xmlns:rdf="http://www.w3.org/1999/02/22-rdf-syntax-ns#"
   xmlns:svg="http://www.w3.org/2000/svg"
   xmlns="http://www.w3.org/2000/svg"
   xmlns:xlink="http://www.w3.org/1999/xlink"
   xmlns:sodipodi="http://sodipodi.sourceforge.net/DTD/sodipodi-0.dtd"
   xmlns:inkscape="http://www.inkscape.org/namespaces/inkscape"
   width="1587.3511"
   height="1570.2476"
   id="svg4019"
   version="1.1"
   inkscape:version="0.48.4 r9939"
   sodipodi:docname="background.svg">
  <defs
     id="defs4021" />
  <sodipodi:namedview
     id="base"
     pagecolor="#000000"
     bordercolor="#666666"
     borderopacity="1.0"
     inkscape:pageopacity="1"
     inkscape:pageshadow="2"
     inkscape:zoom="0.175"
     inkscape:cx="-778.41812"
     inkscape:cy="1016.4122"
     inkscape:document-units="px"
     inkscape:current-layer="layer1"
     showgrid="false"
     inkscape:window-width="1366"
     inkscape:window-height="706"
     inkscape:window-x="-8"
     inkscape:window-y="-8"
     inkscape:window-maximized="1"
     fit-margin-top="0"
     fit-margin-left="0"
     fit-margin-right="0"
     fit-margin-bottom="0" />
  <metadata
     id="metadata4024">
    <rdf:RDF>
      <cc:Work
         rdf:about="">
        <dc:format>image/svg+xml</dc:format>
        <dc:type
           rdf:resource="http://purl.org/dc/dcmitype/StillImage" />
        <dc:title />
      </cc:Work>
    </rdf:RDF>
  </metadata>
  <g
     inkscape:label="Layer 1"
     inkscape:groupmode="layer"
     id="layer1"
     transform="translate(-8.0866428,-265.07071)">
    <path
       transform="matrix(0.01443706,0,0,0.01443706,-83.314635,1034.2)"
       d="m 294.96454,665.23869 -13.10513,-79.9167 -79.91671,-13.10513 79.91671,-13.10513 13.10513,-79.91671 13.10513,79.91671 79.9167,13.10513 -79.9167,13.10513 z"
       inkscape:randomized="0"
       inkscape:rounded="0"
       inkscape:flatsided="false"
       sodipodi:arg2="2.3561945"
       sodipodi:arg1="1.5707963"
       sodipodi:r2="18.533451"
       sodipodi:r1="93.021835"
       sodipodi:cy="572.21686"
       sodipodi:cx="294.96454"
       sodipodi:sides="4"
       id="use5899-6"
       style="fill:#ffffff;fill-opacity:1;fill-rule:evenodd;stroke:#000000;stroke-width:1px;stroke-linecap:butt;stroke-linejoin:miter;stroke-opacity:1"
       sodipodi:type="star" />
    <use
       x="0"
       y="0"
       xlink:href="#use5899-6"
       id="use6312"
       transform="translate(154.01216,54.949123)"
       width="1587.3511"
       height="1570.2476" />
    <use
       x="0"
       y="0"
       xlink:href="#use5899-6"
       id="use6312-3"
       transform="translate(277.538,-673.88401)"
       width="1587.3511"
       height="1570.2476" />
    <use
       x="0"
       y="0"
       xlink:href="#use5899-6"
       id="use6312-5"
       transform="translate(802.52297,-435.89768)"
       width="1587.3511"
       height="1570.2476" />
    <use
       x="0"
       y="0"
       xlink:href="#use5899-6"
       id="use6312-1"
       transform="translate(756.20077,-93.792332)"
       width="1587.3511"
       height="1570.2476" />
    <use
       x="0"
       y="0"
       xlink:href="#use5899-6"
       id="use6312-2"
       transform="translate(632.67489,382.18035)"
       width="1587.3511"
       height="1570.2476" />
    <use
       x="0"
       y="0"
       xlink:href="#use5899-6"
       id="use6312-0"
       transform="translate(1373.8291,441.67694)"
       width="1587.3511"
       height="1570.2476" />
    <use
       x="0"
       y="0"
       xlink:href="#use5899-6"
       id="use6312-16"
       transform="translate(1389.2698,10.326686)"
       width="1587.3511"
       height="1570.2476" />
    <use
       x="0"
       y="0"
       xlink:href="#use5899-6"
       id="use6312-4"
       transform="translate(1034.134,-302.03037)"
       width="1587.3511"
       height="1570.2476" />
    <use
       x="0"
       y="0"
       xlink:href="#use5899-6"
       id="use6312-06"
       transform="translate(601.79342,99.571559)"
       width="1587.3511"
       height="1570.2476" />
    <use
       x="0"
       y="0"
       xlink:href="#use5899-6"
       id="use6312-18"
       transform="translate(323.86021,159.06814)"
       width="1587.3511"
       height="1570.2476" />
    <use
       x="0"
       y="0"
       xlink:href="#use5899-6"
       id="use6312-9"
       transform="translate(570.91195,-554.89084)"
       width="1587.3511"
       height="1570.2476" />
    <use
       x="0"
       y="0"
       xlink:href="#use5899-6"
       id="use6312-8"
       transform="matrix(1,0,0,-1,864.28591,1544.9056)"
       width="1587.3511"
       height="1570.2476" />
    <use
       x="0"
       y="0"
       xlink:href="#use5899-6"
       id="use6312-41"
       transform="translate(771.6415,560.6701)"
       width="1587.3511"
       height="1570.2476" />
    <use
       x="0"
       y="0"
       xlink:href="#use5899-6"
       id="use6312-43"
       transform="translate(10.371264,-63.752218)"
       width="1587.3511"
       height="1570.2476" />
    <use
       x="0"
       y="0"
       xlink:href="#use5899-6"
       id="use6312-98"
       transform="translate(709.87856,501.17352)"
       width="1587.3511"
       height="1570.2476" />
    <use
       x="0"
       y="0"
       xlink:href="#use5899-6"
       id="use6312-80"
       transform="translate(1234.8631,40.074977)"
       width="1587.3511"
       height="1570.2476" />
    <use
       x="0"
       y="0"
       xlink:href="#use5899-6"
       id="use6312-87"
       transform="translate(787.08224,129.31985)"
       width="1587.3511"
       height="1570.2476" />
    <use
       x="0"
       y="0"
       xlink:href="#use5899-6"
       id="use6312-7"
       transform="translate(200.33434,605.29254)"
       width="1587.3511"
       height="1570.2476" />
    <use
       x="0"
       y="0"
       xlink:href="#use5899-6"
       id="use6312-83"
       transform="translate(524.58974,218.56472)"
       width="1587.3511"
       height="1570.2476" />
    <use
       x="0"
       y="0"
       xlink:href="#use5899-6"
       id="use6312-837"
       transform="translate(817.96371,-287.15622)"
       width="1587.3511"
       height="1570.2476" />
    <use
       x="0"
       y="0"
       xlink:href="#use5899-6"
       id="use6312-10"
       transform="translate(1111.3377,-391.27524)"
       width="1587.3511"
       height="1570.2476" />
    <use
       x="0"
       y="0"
       xlink:href="#use5899-6"
       id="use6312-73"
       transform="translate(1219.4224,411.92865)"
       width="1587.3511"
       height="1570.2476" />
    <use
       x="0"
       y="0"
       xlink:href="#use5899-6"
       id="use6312-49"
       transform="translate(1080.4562,709.41156)"
       width="1587.3511"
       height="1570.2476" />
    <use
       x="0"
       y="0"
       xlink:href="#use5899-6"
       id="use6312-6"
       transform="translate(1281.1851,679.66327)"
       width="1587.3511"
       height="1570.2476" />
    <use
       x="0"
       y="0"
       xlink:href="#use5899-6"
       id="use6312-51"
       transform="translate(1543.6765,233.43887)"
       width="1587.3511"
       height="1570.2476" />
    <use
       x="0"
       y="0"
       xlink:href="#use5899-6"
       id="use6312-09"
       transform="translate(1451.0325,-361.52695)"
       width="1587.3511"
       height="1570.2476" />
    <use
       x="0"
       y="0"
       xlink:href="#use5899-6"
       id="use6312-96"
       transform="translate(1420.1511,-599.51328)"
       width="1587.3511"
       height="1570.2476" />
    <use
       x="0"
       y="0"
       xlink:href="#use5899-6"
       id="use6312-834"
       transform="translate(910.60812,-584.63913)"
       width="1587.3511"
       height="1570.2476" />
    <use
       x="0"
       y="0"
       xlink:href="#use5899-6"
       id="use6312-84"
       transform="translate(895.16738,278.06134)"
       width="1587.3511"
       height="1570.2476" />
    <use
       x="0"
       y="0"
       xlink:href="#use5899-6"
       id="use6312-99"
       transform="translate(1327.5071,352.43206)"
       width="1587.3511"
       height="1570.2476" />
    <use
       x="0"
       y="0"
       xlink:href="#use5899-6"
       id="use6312-25"
       transform="translate(1342.9478,-376.4011)"
       width="1587.3511"
       height="1570.2476" />
    <use
       x="0"
       y="0"
       xlink:href="#use5899-6"
       id="use6312-53"
       transform="translate(678.99709,-242.53379)"
       width="1587.3511"
       height="1570.2476" />
    <use
       x="0"
       y="0"
       xlink:href="#use5899-6"
       id="use6312-33"
       transform="translate(740.76003,545.79596)"
       width="1587.3511"
       height="1570.2476" />
    <use
       x="0"
       y="0"
       xlink:href="#use5899-6"
       id="use6312-74"
       transform="translate(509.14901,575.54425)"
       width="1587.3511"
       height="1570.2476" />
    <use
       x="0"
       y="0"
       xlink:href="#use5899-6"
       id="use6312-38"
       transform="translate(586.35268,69.823268)"
       width="1587.3511"
       height="1570.2476" />
    <use
       x="0"
       y="0"
       xlink:href="#use5899-6"
       id="use6312-08"
       transform="translate(987.81179,203.69058)"
       width="1587.3511"
       height="1570.2476" />
    <use
       x="0"
       y="0"
       xlink:href="#use5899-6"
       id="use6312-806"
       transform="matrix(1,0,0,-1,694.43783,2452.2285)"
       width="1587.3511"
       height="1570.2476" />
    <use
       x="0"
       y="0"
       xlink:href="#use5899-6"
       id="use6312-81"
       transform="translate(370.1824,263.18716)"
       width="1587.3511"
       height="1570.2476" />
    <use
       x="0"
       y="0"
       xlink:href="#use5899-6"
       id="use6312-989"
       transform="translate(231.2158,664.78913)"
       width="1587.3511"
       height="1570.2476" />
    <use
       x="0"
       y="0"
       xlink:href="#use5899-6"
       id="use6312-72"
       transform="translate(617.23415,397.0545)"
       width="1587.3511"
       height="1570.2476" />
    <use
       x="0"
       y="0"
       xlink:href="#use5899-6"
       id="use6312-28"
       transform="translate(462.82681,-49.169896)"
       width="1587.3511"
       height="1570.2476" />
    <use
       x="0"
       y="0"
       xlink:href="#use5899-6"
       id="use6312-289"
       transform="translate(262.09727,-629.26157)"
       width="1587.3511"
       height="1570.2476" />
    <use
       x="0"
       y="0"
       xlink:href="#use5899-6"
       id="use6312-07"
       transform="translate(246.65653,-272.28208)"
       width="1587.3511"
       height="1570.2476" />
    <use
       x="0"
       y="0"
       xlink:href="#use5899-6"
       id="use6312-815"
       transform="translate(1157.6597,-659.00986)"
       width="1587.3511"
       height="1570.2476" />
    <use
       x="0"
       y="0"
       xlink:href="#use5899-6"
       id="use6312-86"
       transform="translate(1466.4732,-480.52012)"
       width="1587.3511"
       height="1570.2476" />
    <use
       x="0"
       y="0"
       xlink:href="#use5899-6"
       id="use6312-12"
       transform="translate(1512.7952,-644.13572)"
       width="1587.3511"
       height="1570.2476" />
    <use
       x="0"
       y="0"
       xlink:href="#use5899-6"
       id="use6312-42"
       transform="translate(1528.2359,620.16668)"
       width="1587.3511"
       height="1570.2476" />
    <use
       x="0"
       y="0"
       xlink:href="#use5899-6"
       id="use6312-58"
       transform="translate(292.97874,694.53742)"
       width="1587.3511"
       height="1570.2476" />
    <use
       x="0"
       y="0"
       xlink:href="#use5899-6"
       id="use6312-62"
       transform="translate(184.89362,590.41839)"
       width="1587.3511"
       height="1570.2476" />
    <use
       x="0"
       y="0"
       xlink:href="#use5899-6"
       id="use6312-65"
       transform="translate(493.70827,84.697414)"
       width="1587.3511"
       height="1570.2476" />
    <use
       x="0"
       y="0"
       xlink:href="#use5899-6"
       id="use6312-39"
       transform="translate(1003.2525,456.55108)"
       width="1587.3511"
       height="1570.2476" />
    <use
       x="0"
       y="0"
       xlink:href="#use5899-6"
       id="use6312-24"
       transform="translate(1018.6933,144.194)"
       width="1587.3511"
       height="1570.2476" />
    <use
       x="0"
       y="0"
       xlink:href="#use5899-6"
       id="use6312-61"
       transform="matrix(1,0,0,-1,833.40444,1872.1368)"
       width="1587.3511"
       height="1570.2476" />
    <use
       x="0"
       y="0"
       xlink:href="#use5899-6"
       id="use6312-82"
       transform="translate(169.45289,-346.65281)"
       width="1587.3511"
       height="1570.2476" />
    <use
       x="0"
       y="0"
       xlink:href="#use5899-6"
       id="use6312-11"
       transform="matrix(1,0,0,-1,215.77507,2258.8645)"
       width="1587.3511"
       height="1570.2476" />
    <use
       x="0"
       y="0"
       xlink:href="#use5899-6"
       id="use6312-97"
       transform="translate(1574.5579,114.4457)"
       width="1587.3511"
       height="1570.2476" />
    <use
       x="0"
       y="0"
       xlink:href="#use5899-6"
       id="use6312-629"
       transform="translate(1589.9986,-183.03721)"
       width="1587.3511"
       height="1570.2476" />
    <use
       x="0"
       y="0"
       xlink:href="#use5899-6"
       id="use6312-52"
       transform="translate(1497.3545,322.68377)"
       width="1587.3511"
       height="1570.2476" />
    <use
       x="0"
       y="0"
       xlink:href="#use5899-6"
       id="use6312-00"
       transform="translate(1265.7444,-34.29575)"
       width="1587.3511"
       height="1570.2476" />
    <use
       x="0"
       y="0"
       xlink:href="#use5899-6"
       id="use6312-391"
       transform="translate(478.26754,-108.66648)"
       width="1587.3511"
       height="1570.2476" />
    <use
       x="0"
       y="0"
       xlink:href="#use5899-6"
       id="use6312-819"
       transform="translate(138.57143,-4.5474593)"
       width="1587.3511"
       height="1570.2476" />
    <use
       x="0"
       y="0"
       xlink:href="#use5899-6"
       id="use6312-532"
       transform="translate(972.37106,426.80279)"
       width="1587.3511"
       height="1570.2476" />
    <use
       x="0"
       y="0"
       xlink:href="#use5899-6"
       id="use6312-525"
       transform="translate(1404.7105,724.28571)"
       width="1587.3511"
       height="1570.2476" />
    <use
       x="0"
       y="0"
       xlink:href="#use5899-6"
       id="use6312-867"
       transform="translate(941.48959,-78.918187)"
       width="1587.3511"
       height="1570.2476" />
    <use
       x="0"
       y="0"
       xlink:href="#use5899-6"
       id="use6312-722"
       transform="translate(1065.0155,-331.77866)"
       width="1587.3511"
       height="1570.2476" />
    <use
       x="0"
       y="0"
       xlink:href="#use5899-6"
       id="use6312-94"
       transform="translate(416.5046,-525.14255)"
       width="1587.3511"
       height="1570.2476" />
    <use
       x="0"
       y="0"
       xlink:href="#use5899-6"
       id="use6312-19"
       transform="translate(555.47121,292.93548)"
       width="1587.3511"
       height="1570.2476" />
    <use
       x="0"
       y="0"
       xlink:href="#use5899-6"
       id="use6312-69"
       transform="translate(1203.9817,-138.41477)"
       width="1587.3511"
       height="1570.2476" />
    <use
       x="0"
       y="0"
       xlink:href="#use5899-6"
       id="use6312-825"
       transform="translate(926.04885,-569.76499)"
       width="1587.3511"
       height="1570.2476" />
    <use
       x="0"
       y="0"
       xlink:href="#use5899-6"
       id="use6312-54"
       transform="translate(339.30094,-510.26841)"
       width="1587.3511"
       height="1570.2476" />
    <use
       x="0"
       y="0"
       xlink:href="#use5899-6"
       id="use6312-91"
       transform="translate(879.72665,530.92181)"
       width="1587.3511"
       height="1570.2476" />
    <use
       x="0"
       y="0"
       xlink:href="#use5899-6"
       id="use6312-250"
       transform="translate(431.94534,635.04083)"
       width="1587.3511"
       height="1570.2476" />
    <use
       x="0"
       y="0"
       xlink:href="#use5899-6"
       id="use6312-839"
       transform="translate(1435.5918,-64.044041)"
       width="1587.3511"
       height="1570.2476" />
    <use
       x="0"
       y="0"
       xlink:href="#use5899-6"
       id="use6312-396"
       transform="translate(1188.541,-465.64597)"
       width="1587.3511"
       height="1570.2476" />
    <use
       x="0"
       y="0"
       xlink:href="#use5899-6"
       id="use6312-79"
       transform="translate(447.38607,-153.28891)"
       width="1587.3511"
       height="1570.2476" />
    <use
       x="0"
       y="0"
       xlink:href="#use5899-6"
       id="use6312-976"
       transform="translate(385.62313,-450.77182)"
       width="1587.3511"
       height="1570.2476" />
    <use
       x="0"
       y="0"
       xlink:href="#use5899-6"
       id="use6312-93"
       transform="translate(1250.3037,-421.02353)"
       width="1587.3511"
       height="1570.2476" />
    <use
       x="0"
       y="0"
       xlink:href="#use5899-6"
       id="use6312-57"
       transform="translate(1358.3885,-197.91135)"
       width="1587.3511"
       height="1570.2476" />
    <use
       x="0"
       y="0"
       xlink:href="#use5899-6"
       id="use6312-66"
       transform="translate(1173.1004,516.04766)"
       width="1587.3511"
       height="1570.2476" />
    <use
       x="0"
       y="0"
       xlink:href="#use5899-6"
       id="use6312-582"
       transform="translate(1481.9138,337.55792)"
       width="1587.3511"
       height="1570.2476" />
    <use
       x="0"
       y="0"
       xlink:href="#use5899-6"
       id="use6312-544"
       transform="translate(308.41947,471.42523)"
       width="1587.3511"
       height="1570.2476" />
    <use
       x="0"
       y="0"
       xlink:href="#use5899-6"
       id="use6312-161"
       transform="translate(663.55636,649.91497)"
       width="1587.3511"
       height="1570.2476" />
    <use
       x="0"
       y="0"
       xlink:href="#use5899-6"
       id="use6312-63"
       transform="translate(848.84518,188.81643)"
       width="1587.3511"
       height="1570.2476" />
    <use
       x="0"
       y="0"
       xlink:href="#use5899-6"
       id="use6312-35"
       transform="translate(540.03048,-19.421605)"
       width="1587.3511"
       height="1570.2476" />
    <use
       x="0"
       y="0"
       xlink:href="#use5899-6"
       id="use6312-5328"
       transform="translate(1142.219,-316.90451)"
       width="1587.3511"
       height="1570.2476" />
    <use
       x="0"
       y="0"
       xlink:href="#use5899-6"
       id="use6312-253"
       transform="translate(1296.6258,307.80963)"
       width="1587.3511"
       height="1570.2476" />
    <use
       x="0"
       y="0"
       xlink:href="#use5899-6"
       id="use6312-618"
       transform="translate(1095.8969,486.29937)"
       width="1587.3511"
       height="1570.2476" />
    <use
       x="0"
       y="0"
       xlink:href="#use5899-6"
       id="use6312-621"
       transform="translate(725.3193,-168.16306)"
       width="1587.3511"
       height="1570.2476" />
    <use
       x="0"
       y="0"
       xlink:href="#use5899-6"
       id="use6312-46"
       transform="translate(648.11562,-406.14939)"
       width="1587.3511"
       height="1570.2476" />
    <use
       x="0"
       y="0"
       xlink:href="#use5899-6"
       id="use6312-29"
       transform="translate(401.06387,-495.39426)"
       width="1587.3511"
       height="1570.2476" />
    <use
       x="0"
       y="0"
       xlink:href="#use5899-6"
       id="use6312-15"
       transform="translate(354.74168,-123.54062)"
       width="1587.3511"
       height="1570.2476" />
    <use
       x="0"
       y="0"
       xlink:href="#use5899-6"
       id="use6312-03"
       transform="translate(1312.0664,-257.40793)"
       width="1587.3511"
       height="1570.2476" />
    <use
       x="0"
       y="0"
       xlink:href="#use5899-6"
       id="use6312-64"
       transform="translate(1126.7783,-614.38743)"
       width="1587.3511"
       height="1570.2476" />
    <use
       x="0"
       y="0"
       xlink:href="#use5899-6"
       id="use6312-92"
       transform="translate(956.93032,-227.65964)"
       width="1587.3511"
       height="1570.2476" />
    <use
       x="0"
       y="0"
       xlink:href="#use5899-6"
       id="use6312-934"
       transform="translate(1559.1172,248.31301)"
       width="1587.3511"
       height="1570.2476" />
    <use
       x="0"
       y="0"
       xlink:href="#use5899-6"
       id="use6312-40"
       transform="translate(1049.5747,25.200832)"
       width="1587.3511"
       height="1570.2476" />
  </g>
</svg>
