<?xml version="1.0" encoding="UTF-8" standalone="no"?>
<!-- Created with Inkscape (http://www.inkscape.org/) -->

<svg
   xmlns:dc="http://purl.org/dc/elements/1.1/"
   xmlns:cc="http://creativecommons.org/ns#"
   xmlns:rdf="http://www.w3.org/1999/02/22-rdf-syntax-ns#"
   xmlns:svg="http://www.w3.org/2000/svg"
   xmlns="http://www.w3.org/2000/svg"
   xmlns:xlink="http://www.w3.org/1999/xlink"
   xmlns:sodipodi="http://sodipodi.sourceforge.net/DTD/sodipodi-0.dtd"
   xmlns:inkscape="http://www.inkscape.org/namespaces/inkscape"
   width="156.88301"
   height="156.92769"
   id="svg3999"
   version="1.1"
   inkscape:version="0.48.4 r9939"
   sodipodi:docname="hourring.svg"
   inkscape:export-filename="C:\Users\Antonio\Documents\orrery project\testsun.png"
   inkscape:export-xdpi="90"
   inkscape:export-ydpi="90">
  <defs
     id="defs4001">
    <linearGradient
       id="linearGradient4369">
      <stop
         style="stop-color:#000000;stop-opacity:0.8018018;"
         offset="0"
         id="stop4371" />
      <stop
         style="stop-color:#000000;stop-opacity:0;"
         offset="1"
         id="stop4373" />
    </linearGradient>
    <linearGradient
       inkscape:collect="always"
       xlink:href="#linearGradient4369"
       id="linearGradient4375"
       x1="49.630428"
       y1="54.325397"
       x2="49.630428"
       y2="46.291229"
       gradientUnits="userSpaceOnUse" />
  </defs>
  <sodipodi:namedview
     id="base"
     pagecolor="#3650d4"
     bordercolor="#666666"
     borderopacity="1.0"
     inkscape:pageopacity="0.33333333"
     inkscape:pageshadow="2"
     inkscape:zoom="2.8"
     inkscape:cx="57.379289"
     inkscape:cy="70.740857"
     inkscape:document-units="px"
     inkscape:current-layer="layer1"
     showgrid="false"
     inkscape:window-width="1366"
     inkscape:window-height="706"
     inkscape:window-x="-8"
     inkscape:window-y="-8"
     inkscape:window-maximized="1"
     fit-margin-top="0"
     fit-margin-left="0"
     fit-margin-right="0"
     fit-margin-bottom="0" />
  <metadata
     id="metadata4004">
    <rdf:RDF>
      <cc:Work
         rdf:about="">
        <dc:format>image/svg+xml</dc:format>
        <dc:type
           rdf:resource="http://purl.org/dc/dcmitype/StillImage" />
        <dc:title />
      </cc:Work>
    </rdf:RDF>
  </metadata>
  <g
     inkscape:label="Layer 1"
     inkscape:groupmode="layer"
     id="layer1"
     transform="translate(28.44151,-923.8943)">
    <path
       style="fill:#989898;fill-opacity:1;stroke:#000000;stroke-width:1.55158913px;stroke-linecap:butt;stroke-linejoin:miter;stroke-opacity:1"
       d="m 49.999998,924.68005 c -42.9131311,0 -77.682108,34.76898 -77.682108,77.68215 0,42.913 34.7689769,77.682 77.682108,77.682 42.913131,0 77.682112,-34.769 77.682112,-77.682 0,-42.91317 -34.768981,-77.68215 -77.682112,-77.68215 z m 0,21.26319 c 31.150256,0 56.418922,25.26867 56.418922,56.41896 0,31.1502 -25.268666,56.4188 -56.418922,56.4188 -31.150256,0 -56.4189204,-25.2686 -56.4189204,-56.4188 0,-31.15029 25.2686644,-56.41896 56.4189204,-56.41896 z"
       id="path4377"
       inkscape:connector-curvature="0" />
    <g
       id="g4459"
       transform="matrix(1.429458,0,0,1.429458,-219.06674,-551.97637)">
      <path
         transform="translate(0,952.36218)"
         id="path4449"
         d="m 148.75988,135.00002 -14.87548,0"
         style="fill:none;stroke:#000000;stroke-width:1px;stroke-linecap:butt;stroke-linejoin:miter;stroke-opacity:1"
         inkscape:connector-curvature="0" />
      <path
         transform="translate(0,952.36218)"
         id="path4445"
         d="m 242.57541,135.00002 -14.87548,0"
         style="fill:none;stroke:#000000;stroke-width:1px;stroke-linecap:butt;stroke-linejoin:miter;stroke-opacity:1"
         inkscape:connector-curvature="0" />
      <path
         transform="translate(0,952.36218)"
         id="path4439"
         d="m 168.56018,169.04187 -7.50571,13.00028"
         style="fill:none;stroke:#000000;stroke-width:1px;stroke-linecap:butt;stroke-linejoin:miter;stroke-opacity:1"
         inkscape:connector-curvature="0" />
      <path
         transform="translate(0,952.36218)"
         id="path4435"
         d="m 215.37408,87.95779 -7.50572,13.00029"
         style="fill:none;stroke:#000000;stroke-width:1px;stroke-linecap:butt;stroke-linejoin:miter;stroke-opacity:1"
         inkscape:connector-curvature="0" />
      <path
         transform="translate(0,952.36218)"
         id="path4429"
         d="m 154.20437,115.36441 -12.99771,-7.50423"
         style="fill:none;stroke:#000000;stroke-width:1px;stroke-linecap:butt;stroke-linejoin:miter;stroke-opacity:1"
         inkscape:connector-curvature="0" />
      <path
         transform="translate(0,952.36218)"
         id="path4425"
         d="m 235.25884,162.16121 -12.99771,-7.50423"
         style="fill:none;stroke:#000000;stroke-width:1px;stroke-linecap:butt;stroke-linejoin:miter;stroke-opacity:1"
         inkscape:connector-curvature="0" />
      <path
         transform="translate(0,952.36218)"
         id="path4419"
         d="m 154.20438,154.63563 -12.99771,7.50423"
         style="fill:none;stroke:#000000;stroke-width:1px;stroke-linecap:butt;stroke-linejoin:miter;stroke-opacity:1"
         inkscape:connector-curvature="0" />
      <path
         transform="translate(0,952.36218)"
         id="path4415"
         d="m 235.25886,107.83883 -12.99772,7.50423"
         style="fill:none;stroke:#000000;stroke-width:1px;stroke-linecap:butt;stroke-linejoin:miter;stroke-opacity:1"
         inkscape:connector-curvature="0" />
      <path
         transform="translate(0,952.36218)"
         id="path4409"
         d="M 168.56016,100.95815 161.05445,87.957879"
         style="fill:none;stroke:#000000;stroke-width:1px;stroke-linecap:butt;stroke-linejoin:miter;stroke-opacity:1"
         inkscape:connector-curvature="0" />
      <path
         transform="translate(0,952.36218)"
         id="path4405"
         d="m 215.37406,182.04216 -7.50572,-13.00028"
         style="fill:none;stroke:#000000;stroke-width:1px;stroke-linecap:butt;stroke-linejoin:miter;stroke-opacity:1"
         inkscape:connector-curvature="0" />
      <path
         inkscape:connector-curvature="0"
         style="fill:none;stroke:#000000;stroke-width:1px;stroke-linecap:butt;stroke-linejoin:miter;stroke-opacity:1"
         d="m 188.21428,1126.6703 0,15.0115"
         id="path4455" />
      <path
         inkscape:connector-curvature="0"
         style="fill:none;stroke:#000000;stroke-width:1px;stroke-linecap:butt;stroke-linejoin:miter;stroke-opacity:1"
         d="m 188.21427,1033.0425 0,15.0115"
         id="path4457" />
    </g>
    <g
       style="font-size:14.24356747px;font-style:normal;font-weight:normal;line-height:125%;letter-spacing:0px;word-spacing:0px;fill:#000000;fill-opacity:1;stroke:none;font-family:Copperplate Gothic Light;-inkscape-font-specification:Copperplate Gothic Light"
       id="text4473" />
    <g
       transform="scale(-1,-1)"
       style="font-size:14.24356747px;font-style:normal;font-weight:normal;line-height:125%;letter-spacing:0px;word-spacing:0px;fill:#000000;fill-opacity:1;stroke:none;font-family:Copperplate Gothic Light;-inkscape-font-specification:Copperplate Gothic Light"
       id="text4477" />
    <g
       transform="matrix(0,1,-1,0,0,0)"
       style="font-size:14.24356747px;font-style:normal;font-weight:normal;line-height:125%;letter-spacing:0px;word-spacing:0px;fill:#000000;fill-opacity:1;stroke:none;font-family:Copperplate Gothic Light;-inkscape-font-specification:Copperplate Gothic Light"
       id="text4481" />
    <g
       transform="matrix(0,-1,1,0,0,0)"
       style="font-size:14.24356747px;font-style:normal;font-weight:normal;line-height:125%;letter-spacing:0px;word-spacing:0px;fill:#000000;fill-opacity:1;stroke:none;font-family:Copperplate Gothic Light;-inkscape-font-specification:Copperplate Gothic Light"
       id="text4485">
      <path
         id="path3033"
         style=""
         d="m -988.25377,-22.341921 -0.89718,1.690032 -0.18778,-0.118233 c 0.0325,-0.129816 0.0487,-0.227184 0.0487,-0.292104 -10e-6,-0.152999 -0.14838,-0.326871 -0.44511,-0.521615 -0.57958,-0.380191 -1.24029,-0.57029 -1.98214,-0.570299 -0.94123,9e-6 -1.74335,0.312977 -2.40638,0.938907 -0.80213,0.755769 -1.2032,1.775815 -1.20319,3.060141 -10e-6,0.09737 0.005,0.243425 0.0139,0.438157 0.86703,-1.298236 2.05863,-1.947356 3.5748,-1.947363 1.05713,7e-6 1.92881,0.294429 2.61503,0.883268 0.69548,0.598124 1.04322,1.353885 1.04323,2.267287 -10e-6,0.913408 -0.34775,1.680761 -1.04323,2.302061 -0.73259,0.653758 -1.67845,0.980636 -2.83759,0.980636 -1.35852,0 -2.44348,-0.449748 -3.25488,-1.349244 -0.39874,-0.440473 -0.70244,-0.973679 -0.91108,-1.599619 -0.18547,-0.561023 -0.2782,-1.145231 -0.2782,-1.752627 0,-0.945856 0.2156,-1.831442 0.64681,-2.656759 0.4451,-0.848486 1.06641,-1.490651 1.8639,-1.926498 0.66766,-0.361644 1.38169,-0.54247 2.1421,-0.54248 0.43583,10e-6 0.81371,0.04174 1.13364,0.125188 0.31992,0.08347 0.78358,0.261976 1.39098,0.535525 0.23645,0.10665 0.3941,0.15997 0.47293,0.159962 0.0834,8e-6 0.18545,-0.07186 0.30601,-0.215601 z m -3.68608,3.623485 c -0.75577,6e-6 -1.41185,0.215606 -1.96823,0.646803 -0.28747,0.22256 -0.51466,0.478731 -0.68158,0.768513 -0.16692,0.289789 -0.25038,0.576098 -0.25037,0.858926 -1e-5,0.245741 0.0672,0.507708 0.20169,0.7859 0.13446,0.278196 0.31296,0.521616 0.53552,0.730261 0.52857,0.496115 1.22406,0.744171 2.08646,0.74417 0.87631,1e-6 1.60193,-0.250374 2.17688,-0.751125 0.4451,-0.384834 0.66766,-0.871674 0.66766,-1.460522 0,-0.68621 -0.25038,-1.240281 -0.75112,-1.662213 -0.51467,-0.435834 -1.18697,-0.656071 -2.01691,-0.660713 z m -22.44805,137.412536 0.8972,-1.69004 0.1878,0.11824 c -0.033,0.12981 -0.049,0.22718 -0.049,0.2921 0,0.153 0.1484,0.32687 0.4451,0.52162 0.5796,0.38019 1.2403,0.57029 1.9821,0.57029 0.9413,0 1.7434,-0.31297 2.4064,-0.9389 0.8021,-0.75577 1.2032,-1.77582 1.2032,-3.06014 0,-0.0974 0,-0.24343 -0.014,-0.43816 -0.867,1.29824 -2.0586,1.94736 -3.5748,1.94736 -1.0571,0 -1.9288,-0.29443 -2.615,-0.88327 -0.6955,-0.59812 -1.0433,-1.35388 -1.0433,-2.26728 0,-0.91341 0.3478,-1.68076 1.0433,-2.30206 0.7326,-0.65376 1.6784,-0.98064 2.8376,-0.98064 1.3585,0 2.4434,0.44975 3.2548,1.34924 0.3988,0.44048 0.7025,0.97368 0.9111,1.59962 0.1855,0.56103 0.2782,1.14523 0.2782,1.75263 0,0.94586 -0.2156,1.83144 -0.6468,2.65676 -0.4451,0.84849 -1.0664,1.49065 -1.8639,1.9265 -0.6677,0.36164 -1.3817,0.54247 -2.1421,0.54248 -0.4358,-1e-5 -0.8137,-0.0417 -1.1336,-0.12519 -0.32,-0.0835 -0.7836,-0.26198 -1.391,-0.53552 -0.2365,-0.10666 -0.3941,-0.15998 -0.4729,-0.15997 -0.083,-1e-5 -0.1855,0.0719 -0.3061,0.2156 z m 3.6861,-3.62349 c 0.7558,0 1.4118,-0.21561 1.9682,-0.6468 0.2875,-0.22256 0.5147,-0.47873 0.6816,-0.76851 0.1669,-0.28979 0.2504,-0.5761 0.2504,-0.85893 0,-0.24574 -0.067,-0.50771 -0.2017,-0.7859 -0.1345,-0.2782 -0.313,-0.52162 -0.5355,-0.73026 -0.5286,-0.49612 -1.2241,-0.74417 -2.0865,-0.74417 -0.8763,0 -1.6019,0.25037 -2.1769,0.75112 -0.4451,0.38484 -0.6676,0.87168 -0.6676,1.46052 0,0.68621 0.2503,1.24029 0.7511,1.66222 0.5146,0.43583 1.1869,0.65607 2.0169,0.66071 z m -60.0209,-69.131915 -1.391,1.425748 -0.153,-0.159962 c 0.1205,-0.180825 0.1808,-0.317604 0.1808,-0.410337 0,-0.051 -0.044,-0.118231 -0.1321,-0.201691 -1.0757,-1.010772 -1.6136,-2.253373 -1.6136,-3.727809 0,-0.987585 0.255,-1.798985 0.7651,-2.434203 0.5239,-0.658386 1.1939,-0.987583 2.0099,-0.987592 0.8068,9e-6 1.4768,0.312978 2.01,0.938908 0.3663,0.431209 0.7952,1.145241 1.2866,2.142099 0.3756,0.760403 0.6491,1.283177 0.8207,1.568322 0.1716,0.285154 0.3895,0.569144 0.6538,0.851971 0.3662,0.394112 0.7696,0.672307 1.2101,0.834584 l 0,-5.904682 c 0,-0.194727 -0.03,-0.332665 -0.09,-0.413814 -0.06,-0.08113 -0.1785,-0.142566 -0.3547,-0.184304 l 0,-0.222556 1.7943,0 0,0.222556 c -0.1761,0.04174 -0.2944,0.103172 -0.3547,0.184304 -0.06,0.08115 -0.09,0.219087 -0.09,0.413814 l 0,6.523665 c 0,0.194738 0.03,0.332676 0.09,0.413815 0.06,0.08114 0.1786,0.142576 0.3547,0.184304 l 0,0.222556 c -0.4961,-0.0046 -0.9331,-0.0765 -1.3109,-0.215601 -0.3779,-0.139096 -0.7709,-0.370925 -1.1789,-0.695487 -0.4544,-0.357014 -0.8578,-0.788215 -1.2101,-1.293605 -0.3524,-0.505383 -0.7442,-1.214779 -1.1754,-2.128189 -0.2643,-0.547111 -0.4753,-0.947015 -0.6329,-1.199715 -0.1576,-0.252687 -0.3408,-0.476401 -0.5494,-0.671145 -0.3431,-0.319916 -0.7419,-0.479878 -1.1963,-0.479885 -0.5054,7e-6 -0.9227,0.18547 -1.2519,0.556389 -0.4358,0.486847 -0.6537,1.124376 -0.6537,1.912588 0,0.890228 0.2921,1.680764 0.8763,2.37161 0.3431,0.398748 0.5889,0.598121 0.7372,0.598119 0.1067,2e-6 0.2365,-0.06259 0.3895,-0.187782 z m -1.2311,7.726857 c 0.2411,0.389478 0.3826,0.730266 0.4243,1.022366 0.019,0.129828 0.045,0.210968 0.08,0.24342 0.035,0.03246 0.1286,0.06492 0.2816,0.09737 l 0,0.222556 -1.7804,0 0,-0.222556 c 0.2086,-0.02781 0.3315,-0.05332 0.3686,-0.0765 0.037,-0.02318 0.056,-0.08114 0.056,-0.173872 0,-0.217915 -0.081,-0.461335 -0.2434,-0.730261 -0.1623,-0.268917 -0.3106,-0.403377 -0.4451,-0.403382 -0.093,5e-6 -0.1646,0.129829 -0.2156,0.389472 l -0.2365,0 0,-1.856949 0.2365,0 c 0.042,0.176196 0.102,0.294429 0.1808,0.354698 0.079,0.06028 0.2133,0.09042 0.4034,0.09041 l 7.8521,0 c 0.1901,6e-6 0.3234,-0.03013 0.3999,-0.09041 0.077,-0.06027 0.1379,-0.178502 0.1843,-0.354698 l 0.2364,0 0,1.933453 -0.2364,0 c -0.042,-0.176185 -0.102,-0.294418 -0.1809,-0.354698 -0.079,-0.06027 -0.2132,-0.09041 -0.4033,-0.09041 z m 138.59708,-0.921359 1.39097,-1.425748 0.15301,0.159962 c -0.12056,0.180825 -0.18083,0.317604 -0.18082,0.410337 -10e-6,0.051 0.044,0.118231 0.13214,0.201691 1.07567,1.010772 1.61352,2.253373 1.61353,3.727809 -10e-6,0.987585 -0.25502,1.798985 -0.76504,2.434203 -0.52394,0.658386 -1.19392,0.987583 -2.00995,0.987592 -0.80678,-9e-6 -1.47676,-0.312978 -2.00996,-0.938907 -0.3663,-0.43121 -0.79518,-1.145242 -1.28665,-2.142099 -0.37557,-0.760404 -0.64913,-1.283178 -0.82068,-1.568323 -0.17155,-0.285153 -0.38947,-0.569144 -0.65375,-0.851971 -0.36629,-0.394112 -0.76968,-0.672307 -1.21015,-0.834584 l 0,5.904682 c 0,0.194727 0.0301,0.332665 0.0904,0.413814 0.0603,0.08113 0.17851,0.142566 0.3547,0.184304 l 0,0.222556 -1.79435,0 0,-0.222556 c 0.17619,-0.04174 0.29442,-0.103172 0.35469,-0.184304 0.0603,-0.08115 0.0904,-0.219087 0.0904,-0.413814 l 0,-6.523665 c 0,-0.194738 -0.0301,-0.332676 -0.0904,-0.413815 -0.0603,-0.08114 -0.1785,-0.142576 -0.35469,-0.184304 l 0,-0.222556 c 0.49611,0.0046 0.93311,0.0765 1.31099,0.215601 0.37788,0.139096 0.77083,0.370925 1.17885,0.695487 0.45438,0.357014 0.85776,0.788215 1.21014,1.293605 0.35238,0.505383 0.74417,1.214779 1.17538,2.128189 0.26428,0.547111 0.47524,0.947015 0.63289,1.199715 0.15764,0.252687 0.34078,0.476401 0.54943,0.671145 0.34311,0.319916 0.74185,0.479878 1.19624,0.479885 0.50538,-7e-6 0.92267,-0.18547 1.25188,-0.556389 0.43583,-0.486847 0.65375,-1.124376 0.65376,-1.912588 -10e-6,-0.890228 -0.29212,-1.680763 -0.87632,-2.37161 -0.34311,-0.398748 -0.58885,-0.598121 -0.73721,-0.598118 -0.10665,-3e-6 -0.23648,0.06259 -0.38948,0.187781 z m 1.23101,-7.726857 c -0.24111,-0.389478 -0.38252,-0.730266 -0.42424,-1.022366 -0.0186,-0.129828 -0.0452,-0.210968 -0.08,-0.24342 -0.0348,-0.03246 -0.12868,-0.06492 -0.28168,-0.09737 l 0,-0.222556 1.78045,0 0,0.222556 c -0.20866,0.02782 -0.33152,0.05332 -0.36861,0.0765 -0.0371,0.02318 -0.0557,0.08114 -0.0556,0.173872 -10e-6,0.217915 0.0811,0.461335 0.24342,0.730261 0.16227,0.268917 0.31064,0.403377 0.44511,0.403382 0.0927,-5e-6 0.16459,-0.129829 0.2156,-0.389472 l 0.23647,0 0,1.856949 -0.23647,0 c -0.0417,-0.176196 -0.10201,-0.294429 -0.18082,-0.354698 -0.0788,-0.06028 -0.21329,-0.09042 -0.40338,-0.09041 l -7.85205,0 c -0.1901,-6e-6 -0.3234,0.03013 -0.3999,0.09041 -0.0765,0.06027 -0.13794,0.178502 -0.18431,0.354698 l -0.23646,0 0,-1.933453 0.23646,0 c 0.0417,0.176185 0.10201,0.294418 0.18083,0.354698 0.0788,0.06027 0.21328,0.09041 0.40338,0.09041 z" />
    </g>
  </g>
</svg>
