<?xml version="1.0" encoding="UTF-8" standalone="no"?>
<!-- Created with Inkscape (http://www.inkscape.org/) -->

<svg
   xmlns:dc="http://purl.org/dc/elements/1.1/"
   xmlns:cc="http://creativecommons.org/ns#"
   xmlns:rdf="http://www.w3.org/1999/02/22-rdf-syntax-ns#"
   xmlns:svg="http://www.w3.org/2000/svg"
   xmlns="http://www.w3.org/2000/svg"
   xmlns:sodipodi="http://sodipodi.sourceforge.net/DTD/sodipodi-0.dtd"
   xmlns:inkscape="http://www.inkscape.org/namespaces/inkscape"
   id="svg2"
   height="82"
   width="82"
   version="1.1"
   inkscape:version="0.48.4 r9939"
   sodipodi:docname="earth.svg">
  <defs
     id="defs110">
    <clipPath
       clipPathUnits="userSpaceOnUse"
       id="clipPath2997">
      <path
         style="fill:#000000;fill-opacity:1;fill-rule:evenodd;stroke:none"
         d="m 164.74323,60.994633 c 57.38891,0 103.91495,46.526017 103.91495,103.914957 0,57.38894 -46.52604,103.91496 -103.91495,103.91496 -57.38891,0 -103.914962,-46.52602 -103.914962,-103.91496 0,-57.38894 46.526052,-103.914957 103.914962,-103.914957 z"
         id="path2999"
         inkscape:connector-curvature="0"
         sodipodi:nodetypes="sssss" />
    </clipPath>
  </defs>
  <sodipodi:namedview
     pagecolor="#ffffff"
     bordercolor="#666666"
     borderopacity="1"
     objecttolerance="10"
     gridtolerance="10"
     guidetolerance="10"
     inkscape:pageopacity="0"
     inkscape:pageshadow="2"
     inkscape:window-width="1366"
     inkscape:window-height="706"
     id="namedview108"
     showgrid="false"
     inkscape:zoom="3.337544"
     inkscape:cx="-22.571111"
     inkscape:cy="32.021424"
     inkscape:window-x="-8"
     inkscape:window-y="-8"
     inkscape:window-maximized="1"
     inkscape:current-layer="svg2"
     fit-margin-top="0"
     fit-margin-left="0"
     fit-margin-right="0"
     fit-margin-bottom="0" />
  <metadata
     id="metadata7">
    <rdf:RDF>
      <cc:Work
         rdf:about="">
        <dc:format>image/svg+xml</dc:format>
        <dc:type
           rdf:resource="http://purl.org/dc/dcmitype/StillImage" />
        <dc:title />
      </cc:Work>
    </rdf:RDF>
  </metadata>
  <g
     id="g4069"
     transform="matrix(-0.3945534,0,0,-0.3945534,106,106.06564)"
     clip-path="url(#clipPath2997)">
    <path
       sodipodi:nodetypes="ccccccc"
       inkscape:connector-curvature="0"
       id="path51"
       d="M 162.26897,0.05539988 C 97.954899,0.24570028 36.826339,42.047072 12.483163,101.54307 -9.8682378,154.71743 -1.8588828,219.38168 33.737719,264.96165 67.034259,308.98341 123.76291,334.45717 179.01447,329.11684 239.48541,324.31627 295.43133,283.21545 317.70133,226.52463 338.94692,174.19591 331.20822,110.73067 296.58147,65.8054 265.56535,24.354046 214.31617,-1.3574879 162.26897,0.05539988 z"
       style="fill:#004588;fill-opacity:1" />
    <g
       id="g3935">
      <path
         d="m 156.50772,204.70915 c 0.37527,-0.76013 1.2464,-4.0495 2.24529,-3.0365 0.99418,1.0122 1.61941,0 1.61941,0 0,0 0.49905,0.50728 0.24914,1.5195 -0.24914,1.0106 -0.49984,2.0244 -1.125,2.1508 -0.62126,0.12643 -1.1211,0.50649 -1.8654,0.63291 -0.7474,0.12722 -1.1234,-1.2666 -1.1234,-1.2666 z m 8.23,-1.27 c 0.24913,-0.24966 0.49983,0.76013 0.99808,0.63371 0.49514,-0.12643 0.7474,0.88655 0.24992,0.88655 -0.49983,0 -0.49983,0.6337 -0.49983,0.88654 0,0.25365 0,0.88417 -0.37527,1.2642 -0.3737,0.38006 -0.74896,0.12642 -1.24879,-0.12642 -0.49748,-0.25285 -0.74426,-0.25285 -1.37021,-0.25285 -0.62204,0 -0.12612,1.013 -0.12612,1.013 0,0 -2.61821,-0.12643 -2.11841,-0.50729 0.49906,-0.37688 0.9981,-0.50648 0.62518,-0.76012 -0.37526,-0.25285 0,-0.5041 0,-1.0106 0,-0.50728 1.2472,-0.25284 0.8704,-0.6337 -0.37135,-0.38007 0.008,-1.8478 0.62283,-1.013 l 0.37605,-0.88735 c -0.37605,-0.37847 -0.12378,-0.50648 -0.87196,-0.75535 -0.7474,-0.25364 -0.12692,-1.7731 -0.12692,-1.7731 l 0.12692,-1.0122 c 0.24913,-1.2626 2.7412,-1.3914 2.8674,-0.25364 0.123,1.1394 0,1.8987 0,1.8987 l 0.74897,0.25205 c 0,0 -0.12614,0.7633 -0.74897,0.7633 -0.62596,0 0,0.3745 -0.37526,0.75615 l 0.37605,0.63132 z m 92.08999,-60.82 c -0.66436,0.67584 -2.1607,1.013 -2.1607,1.013 l -0.49983,1.8558 -0.82888,0.67425 c 0,0 0.16452,0.5057 0,1.6872 -0.16687,1.18 -1.6632,1.8558 -1.6632,1.8558 l -0.66436,0.84361 c 0,0 -4.0073,0.21707 -4.4883,0 -1.4964,-0.67425 -0.49748,-2.6994 0.49983,-2.5308 0.99575,0.16936 -0.16844,-2.8688 -0.16844,-2.8688 l 1.3318,-0.16777 c 0,0 0.16452,-3.0381 0.66436,-3.0381 0.49905,0 -0.16531,-1.0114 -0.8328,-1.5179 -0.66435,-0.5041 -1.4948,-2.1913 -2.1623,-2.0236 -0.66435,0.16777 -3.3241,0 -3.3241,0 l -0.49905,1.013 -1.8293,0.33633 c 0,0 0.15747,1.3048 -0.16217,1.688 -1.0012,1.18 -4.822,3.7108 -3.162,-0.50648 l 0.49748,-1.0106 v -1.5195 l -2.9888,-0.16697 c 0,0 -1.4964,-0.50728 -1.4964,-1.1823 0,-0.67505 -0.16687,-1.5171 -0.16687,-1.5171 l -3.4918,-3.8801 -4.1538,-0.5057 -0.33452,-0.8452 -2.4906,-0.33713 c -2.9943,-1.5171 -5.6548,-0.16856 -5.155,2.3623 0.49827,2.5324 1.3279,3.5438 -0.33139,3.5438 -1.6648,0 -1.9962,-1.3493 -1.9962,-1.3493 0,0 -1.3279,-0.50728 -1.3279,0.16697 0,0.67584 -0.49983,2.0252 0,2.6994 0.4967,0.67426 -0.66749,1.6872 -1.1665,1.1807 -0.49513,-0.50648 -1.8262,-2.022 -1.4932,-2.5284 0.3314,-0.50649 -2.3299,-3.7132 0.3314,-4.2189 2.6606,-0.50649 -0.16609,-2.0252 0.83279,-2.3607 l 1.3279,-0.67584 h 1.3287 l 0.83201,-0.67585 -2.1607,-0.33553 -1.3279,-0.16936 -2.4952,-0.16856 c -2.4921,1.6872 -2.9896,3.7124 -2.9896,3.7124 -1.3326,2.53 -4.4883,-1.013 -3.3241,-2.3623 1.16181,-1.3501 -3.6586,-0.16935 -4.49059,0.50569 -0.83281,0.67426 -3.3257,0.33713 -3.3257,0.33713 -0.49748,1.5195 -2.8243,-0.16697 -2.1607,-1.1799 0.66514,-1.0122 0.66514,-1.6872 0.66514,-1.6872 l -0.82966,-0.16936 -0.99653,1.8558 c -2.32761,0 -2.9943,1.3485 -2.496,2.1929 0.49827,0.84202 -0.66435,-0.16857 -0.99809,1.0122 -0.32983,1.1807 0.16843,1.1807 1.1665,1.6872 0.9981,0.50649 -0.49983,0.50649 0.16531,1.3485 0.66435,0.8452 2.6598,0 1.49709,1.1823 -1.1634,1.18 -3.49329,0.67584 -3.49329,0.67584 -0.1653,1.5155 -3.3241,1.18 -3.6539,0.67426 -0.33453,-0.50649 -2.8259,-3.5438 -2.8259,-3.5438 l -3.1627,-0.16857 c -0.32983,-2.3607 1.4979,-1.1807 2.1623,-3.0365 0.66827,-1.8566 1.0004,-4.8915 1.0004,-4.8915 0,0 -2.6629,-0.16856 -2.8282,0.67425 -0.16452,0.84441 -1.8278,1.3501 -1.8278,1.3501 0,0 -1.3311,0.5049 -0.83201,1.1807 0.49905,0.67585 -0.9981,1.0106 -0.9981,1.0106 0,0 0.25932,1.0901 -0.1653,1.5187 -1.3279,1.3517 -4.6552,0.16777 -5.1519,-0.33712 l -1.9962,-0.84362 -1.9954,-1.3493 -2.326,1.0106 -0.66435,0.67584 h -2.4952 l -0.16452,2.022 4.4883,0.50569 0.33296,4.1759 -1.8309,-0.63052 h -1.1634 l -0.49749,-1.013 -0.99809,-0.16936 v 3.7108 l 0.99809,0.84521 0.8328,0.84122 1.6624,0.16936 0.33296,2.0236 4.1538,0.17095 0.49905,0.84202 2.4952,0.16936 4.8205,4.8907 -0.33296,1.5195 -0.83279,0.50648 c 0.33453,1.1807 -2.1584,0.50649 -2.1584,0.50649 v 1.0106 l 1.1603,0.16856 1.1665,0.67425 1.6609,-2.8672 c 1.8278,-1.1807 2.6574,0.50649 2.8266,1.5187 0.16452,1.0122 -0.83357,0.84281 -0.83357,0.84281 v 2.3639 l 0.99809,0.33554 c 1.6648,2.0251 -0.66435,3.2067 -0.66435,3.2067 l -0.49983,1.6864 c -0.49905,1.5187 -2.3268,1.18 -2.3268,1.18 l -0.66279,1.013 -1.9978,0.50648 3.947,0.50569 c 0.37527,-1.3501 1.3702,-1.6872 1.8693,-1.0122 0.49983,0.67584 0.49983,1.8566 0.49983,1.8566 l 1.0012,0.16857 -0.16923,1.855 0.9981,0.33872 v 5.398 l 1.1634,1.3493 c 1.9954,-0.84123 1.9954,0.50728 0.99654,1.1807 -0.99654,0.67346 -0.33297,3.7124 -0.33297,3.7124 l -0.83122,0.84202 v 1.3509 l -0.99653,0.67426 v 1.855 c -1.6632,-0.84282 -3.6586,-0.50728 -4.1585,0 -1.4932,-1.013 -4.652,-0.67425 -4.652,0.17016 0.99575,1.3493 -1.1618,1.6872 -1.1618,1.6872 l -1.1665,1.3493 c 0.8328,1.688 -0.82887,1.855 -0.82887,1.855 v 3.2067 l -1.9962,1.8558 0.16844,4.3866 c 0,1.1807 2.4921,1.3485 2.9888,0.67426 0.49983,-0.67426 2.496,1.3509 2.496,1.3509 h 1.4932 l 0.33452,-3.0381 -0.99888,-0.50649 v -4.8931 l 1.6632,-1.8566 c 1.9954,-0.67426 1.3311,4.389 1.3311,4.8947 0.1653,1.855 0.99418,1.6872 1.8278,1.3485 1.6617,-0.67426 0.32983,1.8582 -0.9981,1.6872 -1.3287,-0.16697 -0.49983,1.6872 -0.49983,1.6872 l 0.83358,0.33872 -1.4979,1.1807 -1.3264,1.5195 -1.6664,-0.50729 -1.9923,-0.16697 -0.66513,-1.1839 -1.1658,-0.16777 -0.1653,2.3607 -0.82966,1.0122 -1.9954,2.0275 c 2.6606,0 -0.33453,1.8518 -0.9981,1.8518 1.4956,0.50649 -0.1653,2.0267 -3.9885,0.8468 v 1.1792 l -1.3318,0.16935 1.1665,1.3477 1.3279,0.16936 -0.49905,2.868 c 0,2.1929 -5.4848,0.67267 -5.9847,0.16857 l -0.16531,3.0373 -0.99809,0.16618 0.1653,2.0267 -0.1653,2.8688 1.8278,-0.33792 v 1.1815 l 4.4907,0.16936 6.4829,-6.9191 3.8224,-0.84202 c 0.33139,-1.6896 1.9923,0.33792 1.9923,0.33792 1.6632,-0.17254 1.9962,1.0106 1.9962,1.0106 l 2.1623,0.33792 c 1.8262,0.50728 0.72233,0.68459 0.82966,1.3517 0.16453,1.0106 0.99653,0.67266 0.99653,0.67266 l 0.33453,-2.1929 0.9981,0.16856 -0.9981,-1.1815 -1.8309,-0.84521 -1.9931,-0.84202 c -1.3311,-1.855 0.33218,-1.5171 1.6632,-1.3477 h 2.1607 c 0,0 2.4952,3.3721 2.4952,4.2165 0,0.8452 1.1634,1.0138 1.1634,1.0138 l 1.4932,-0.16936 0.49983,1.1792 h 1.4956 l 0.49983,1.0106 h 2.9927 l 0.16609,-1.5171 -2.829,-0.5033 -0.16452,-1.6896 -1.9931,-0.50649 c -0.66749,-2.8656 0.49669,-3.7108 1.3279,-2.3591 l 0.99731,0.16538 -0.33296,-2.5308 1.1626,-0.33792 -0.33139,-3.5438 -0.99653,-0.33475 v -1.1823 l 4.1538,0.17175 c -0.32983,-2.1961 0.16765,-3.2075 0.16765,-3.2075 h 1.1634 l 0.1653,0.846 5.0861,0.47945 3.596,-4.125 c -0.18097,-0.31486 0.36116,-0.50728 -0.0337,-0.91199 -0.49983,-0.50569 -1.1665,0 -2.0009,-0.50569 -0.82888,-0.50331 0,-3.3737 -0.16453,-4.0479 -0.1653,-0.67426 2.829,-1.6896 2.3299,-0.16857 -0.49904,1.5195 0,2.1937 0,2.1937 2.1607,-2.0252 3.9893,0.16697 3.824,0.67425 -0.17001,0.50569 1.1618,1.0122 1.9915,0.50569 0.83279,-0.50569 1.8301,1.5195 1.4972,2.5292 -0.33453,1.0122 -3.3233,0.8452 -3.4886,-0.16777 -0.17001,-1.013 -0.66906,-0.67425 -0.9981,-0.16777 -0.33453,0.50649 -1.8278,0.84203 -2.6606,0.33554 -0.16844,-0.10257 -0.24913,-0.18765 -0.29614,-0.26875 l -3.596,4.125 0.23346,0.0238 c 1.9931,1.1823 0.9981,2.7002 0.33453,3.0373 -0.66749,0.33792 -1.8309,0.33792 -1.8309,0.33792 l -0.32983,0.67585 -4.323,0.33553 -0.33453,1.6888 c -2.1607,-0.3411 -2.9896,2.0236 -2.4913,3.2027 0.49983,1.1792 0,2.1929 0,2.1929 l 1.8285,0.84521 2.3252,-0.67267 c 0.33452,-1.6896 1.8278,-2.0275 3.1596,-3.0373 1.3279,-1.013 3.4918,1.8518 2.8243,3.2035 -0.66435,1.3477 -0.66435,1.855 -0.66435,1.855 l 0.16452,1.5194 -1.6609,0.67346 -1.3287,0.67585 -0.16924,0.8444 h -4.4867 l -0.82966,0.84203 -2.1623,0.17254 -0.66748,1.0106 -1.4932,0.16936 c 0,0 -2.4952,1.1815 -1.4964,2.5308 0.99732,1.3509 -4.1546,1.1815 -5.3211,-0.67584 -0.33296,1.6856 -2.1607,0.16856 -2.1607,0.16856 l -1.8278,-0.50728 -0.1653,-2.5277 c -0.33296,-1.6888 -3.4918,-1.6888 -3.3241,-0.50649 0.1653,1.1815 -5.98699,0.50649 -5.98699,0.50649 l -1.9931,0.96845 -1.83091,1.0559 -0.16452,0.84203 -2.9943,0.33792 -1.3279,0.67584 -0.49827,-1.013 h -1.3287 l -1.3311,1.8574 c -3.49019,0.16936 -6.8143,2.1937 -6.4829,3.0373 0.33297,0.84202 -1.3279,1.6896 -1.3279,1.6896 l -1.49789,0.50012 -0.99497,1.5203 -1.9954,0.67584 -0.33453,3.5446 -0.99496,0.67266 v 1.5202 l -1.1658,0.33474 v 0.84521 l -1.6617,0.16856 0.99496,2.5316 1.3342,0.67584 c 2.3268,0.33474 1.3279,3.2059 1.3279,3.2059 l 1.3287,0.16618 0.66748,1.855 1.3279,2.6994 c 0.49983,2.0275 1.9962,1.5203 2.6606,1.3517 0.66435,-0.16618 1.3279,2.0236 1.3279,2.0236 l 6.6482,0.16936 c 0,0 -0.32983,0.67584 0.83358,1.013 1.1618,0.33474 8.809,0.67585 9.1435,0.16936 -0.33453,-1.5202 4.153,-1.8582 5.9839,-0.50728 1.8262,1.3477 4.3214,0.50728 4.3214,0.50728 l 2.4929,3.0334 1.6656,3.7132 2.8243,0.84202 1.9931,0.50728 0.66749,2.868 1.4932,0.16936 0.49984,1.8574 c 1.8301,1.3485 -0.49984,4.2173 -0.49984,4.2173 v 3.71 l 1.3311,0.67584 -0.16765,1.3517 2.1638,2.1897 2.4921,0.17174 6.3184,6.7473 4.985,1.5171 0.82965,2.7002 1.3326,-0.16935 0.99653,-0.84203 3.9885,-0.16856 1.9962,-1.8582 2.1607,-0.33474 18.452,-15.691 -1.6648,-1.013 v -3.71 c 2.9927,-2.1929 3.1588,-6.0754 0.33296,-6.4126 -2.1435,-0.25602 -1.1618,-2.5308 0.83357,-2.868 l 1.1618,-0.5041 v -1.5202 l 3.8232,-3.5406 v -2.7002 l -8.3091,-6.9191 c -3.6586,-1.3477 0,-9.4475 2.4906,-9.2782 2.4952,0.16617 -0.16452,-12.484 -0.16452,-12.484 l -1.3318,-0.67345 0.33453,-4.0511 h -1.8278 l -2.9935,3.8825 -0.82965,2.697 c -0.33296,3.547 -10.64,2.868 -11.14,2.3615 -0.49905,-0.50649 -3.9885,-2.0236 -3.9885,-2.0236 0,0 -2.6598,-2.1929 -3.1588,-1.5171 -0.49905,0.67584 -2.8243,-0.8452 -2.8243,-0.33792 0,0.50648 -2.1607,-1.1792 -2.1607,-1.1792 l -3.3241,-1.1823 2.4952,-0.50728 -0.49983,-2.0236 4.3183,2.1929 c 0.49983,0.67267 2.6606,0.50729 2.6606,0.50729 l 0.66435,0.8444 c 0,0 1.3318,-0.17174 2.1654,0.84203 0.82966,1.013 5.1503,0.16935 5.1503,0.16935 l 1.1634,1.0106 1.8278,0.67585 5.155,0.16935 0.1653,-3.2035 0.9981,-1.013 -0.16687,-2.0267 1.1634,-1.0106 v -1.6856 l 0.9981,-0.33792 0.1653,-3.71 0.82966,-0.16936 v -8.099 l -2.4929,-2.3631 c -0.16452,0.8452 -2.8243,0.8452 -2.8243,0.8452 0,0 -0.66435,1.1792 -1.1634,1.1792 -0.49748,0 0.66513,1.5171 0.33139,2.5308 -0.33139,1.0106 -1.6624,1.0106 -1.6624,1.0106 l -2.4952,0.67664 -0.66436,0.84441 h -2.6606 l -0.32982,-2.1929 2.9896,-0.8452 1.6624,-0.84123 0.83279,-1.6896 c 0.16452,-1.6848 2.1607,-1.5179 2.1607,-1.5179 0,0 3.8232,-3.2059 3.9885,-4.7214 0.16922,-1.5194 1.4979,-5.7375 3.824,-5.7375 h 4.323 c 1.6609,-0.67664 1.1626,-2.8688 1.1626,-2.8688 l 2.1615,-0.33554 0.33297,1.1807 c 0,0 2.9935,0.33713 3.3241,-0.16935 0.33452,-0.50411 0.99809,-1.6872 1.8309,-1.1808 0.83044,0.5057 3.4902,-1.1815 3.4902,-1.1815 0.16531,-1.1807 4.3214,-0.67425 4.3214,-0.67425 l 0.49983,-1.5179 c 0,0 -2.8251,-3.8802 -3.3241,-3.8802 -0.49983,0 -3.1588,-2.3639 -3.4926,-1.5194 -2.6566,-0.67426 -2.4921,-4.3866 -2.4921,-4.3866 l -0.9981,-2.3607 c 0,-1.3517 -2.4905,-4.2189 -2.9927,-3.8801 -2.4952,-1.8558 -0.66436,-4.0495 0,-4.2181 0.66435,-0.16777 2.3292,-2.5308 2.3292,-2.5308 l 0.82966,-2.3623 2.8259,-0.84123 0.33296,-2.1937 -1.4932,-0.16936 c 0,0 1.6593,-3.0373 2.4921,-3.0373 0.83279,0 6.3184,0 6.8135,-0.33872 0.49905,-0.33554 1.4956,-3.0349 1.4956,-3.5414 0,-0.50648 1.3334,-0.67584 1.8285,-0.8452 0.49905,-0.16697 1.6624,-1.5171 1.9954,-2.1929 0.33296,-0.67902 -0.82809,-4.8979 -1.4948,-4.2228 z m 46.04,53.9 c -0.0517,-0.32441 -0.24599,-0.57646 -0.54527,-0.70924 -0.738,-0.3244 -1.9821,0.2123 -2.5916,0.62575 l 0.55154,0.84282 c 0.63145,-0.42777 1.4603,-0.6337 1.6452,-0.53908 -0.0164,-0.006 -0.0392,-0.0358 -0.0454,-0.0557 l 0.98556,-0.16459 z m 4.37001,20.13 -0.99341,-0.0994 c -0.0776,0.79591 0.11204,1.7795 0.89783,1.9393 l 0.19508,-0.9923 c 0.007,0 0.0164,0.006 0.0188,0.006 -0.0807,-0.0716 -0.15434,-0.47866 -0.1183,-0.85316 z m 3.62999,-3.98 c 0.25305,1.0257 0.62284,2.0363 0.63928,2.0784 l 0.93543,-0.35621 c -0.007,-0.009 -0.36978,-0.99866 -0.60873,-1.9703 l -0.96598,0.24807 z m 2.22001,-0.83 c -0.0141,-0.0334 -0.0227,-0.15028 -0.0298,-0.23535 -0.0219,-0.27829 -0.058,-0.65756 -0.2554,-1.0559 l -0.89076,0.45242 c 0.11046,0.22581 0.13241,0.46434 0.15121,0.69333 0.0251,0.29578 0.058,0.63371 0.34079,0.84759 0.17863,0.13597 0.40426,0.17493 0.67298,0.12324 l -0.19038,-0.97957 c 0.0768,0.0119 0.17784,0.0819 0.20134,0.15425 z m -8.46001,7.16 c 0.71058,-0.44924 1.6194,-1.2674 1.4964,0.6337 -0.12613,1.8971 -0.87353,1.2666 -1.4964,1.8971 -0.62283,0.63371 -0.99732,-1.8971 0,-2.5308 z m -40.14896,13.03445 0.12535,-1.51866 1.62172,0.25444 -0.12535,1.38349 z m 0.089,3.30555 c -0.22015,-0.85951 -1.1893,-1.2125 -1.2989,-1.2483 l -0.31729,0.96208 v -0.006 c 0.0791,0.0302 0.19429,0.0906 0.30945,0.16618 l 0.20371,0.87462 c -0.0744,0.11211 -0.15591,0.21707 -0.22015,0.2926 l 0.73173,0.68459 c 0.53352,-0.59395 0.73095,-1.1696 0.5915,-1.7254 z m -124.24853,31.22608 -1.00281,0.84282 -0.49357,0.42141 0.52491,0.38165 1.16733,0.84282 0.57974,-0.81897 -0.64242,-0.46911 0.5014,-0.42141 z m 11.84561,12.08567 -0.44656,0.90643 1.04197,0.52477 -0.34471,0.34985 0.71293,0.7156 0.83045,-0.84282 0.48573,-0.49297 -0.61892,-0.31804 z m -46.62457,-216.300487 0.70632,-0.715635 0.99626,1.012828 -0.70632,0.715635 z m 30.28712,31.56354 0.63728,-0.779573 0.99788,0.84023 -0.63728,0.779572 z m -3.16963,-0.05481 0.17,1.856603 h 2.4906 c 0.99809,0 -0.82966,-1.180703 -0.82966,-1.180703 0,0 -1.9954,0.16936 -1.8309,-0.67584 z m 54.73837,-47.062316 -1.66089,-0.174924 -0.10185,1.00979 1.42587,0.143119 1.03414,1.645878 0.83828,-0.540675 -1.15949,-1.852606 -0.13319,-0.206729 z m 4.53612,-35.356951 -0.5249,0.858719 1.33185,0.841226 0.25853,0.170949 0.26637,-0.170949 1.83325,-1.182329 -0.53274,-0.853153 -1.56688,1.008995 z m 8.91555,4.810415 -0.84612,-0.859514 -0.70509,0.714804 1.15949,1.180739 0.32121,0.322019 0.34471,-0.283059 1.66873,-1.350892 -0.62675,-0.789544 z m -55.22004,35.098852 c -0.11986,-0.59712 3.3241,-0.67425 3.824,-0.17015 0.49984,0.50728 0.16531,1.3501 1.6617,1.3501 1.494,0 0.83046,1.013 0.66436,1.5195 -0.16531,0.50569 -1.8262,0.33712 -1.9962,-0.16698 -0.16452,-0.50728 -2.65979,-0.67823 -2.65979,-0.67823 0,0 -1.3287,-1.013 -1.494,-1.8542 z m 19.11001,-1.9 c 2.55639,0.81101 3.48939,0.2107 3.6586,-0.46355 0.16531,-0.67584 0.32982,-0.8452 1.3287,-1.0122 0.99653,-0.16936 -0.16687,-2.1937 -1.1634,-2.0252 -0.99889,0.16857 -1.9962,-0.33712 -2.1607,-1.1807 -0.17,-0.84281 -1.8309,-3.0365 -1.9962,-1.3485 -0.16609,1.6872 -1.1634,1.6872 -0.9981,2.868 0.16765,1.1784 0.6667,2.9491 1.3311,3.1622 z m 16.46,-28.47 c -0.36586,-1.4829 -2.49521,1.855 -0.32983,2.5284 2.1607,0.67823 4.3183,0 4.3183,0 l 0.49983,-1.0114 8.3091,0.16936 c 0.66906,-0.67584 0.99811,-1.6872 0.99811,-1.6872 0,0 1.9962,-0.67585 2.8251,-0.33872 0.83279,0.33872 0.16922,-2.3607 -0.66435,-2.0236 -0.82966,0.33713 -2.49131,0.16856 -2.49131,0.16856 h -2.99349 c -0.1653,-1.1799 -2.82511,-0.67584 -2.9912,0 -0.16844,0.67426 -1.16181,0.84282 -1.16181,0.84282 l -3.82399,0.33872 c -0.33374,1.013 -2.326,1.6872 -2.4945,1.013 z m 0.32999,8.27 -2.1654,-2.1937 v -1.8558 l -0.66435,-0.67664 -0.66436,-2.3607 -2.1607,-0.67426 -2.16069,0.84202 -2.3276,1.5187 -2.4921,0.33951 -1.3318,1.5171 5.3203,0.5041 0.99575,1.6896 3.8271,0.33713 2.4905,2.53 c 2.1654,0.67584 2.6621,-0.33713 1.3334,-1.5171 z m 8.59306,16.571131 -0.9088,-0.41109 0.66691,-1.518614 0.9088,0.411089 z m 48.75694,-2.061131 c -0.26324,-1.3318 3.3272,-2.5308 4.1569,-1.5195 0.83279,1.0122 3.1588,1.1839 3.49181,6.2448 0.11752,1.8121 -2.99271,-1.8558 -2.99271,-1.8558 l -2.4952,-0.84361 c -1.3287,-0.33872 -1.9954,-1.18 -2.1607,-2.026 z m -17.45999,4.38 c -0.48573,1.4765 -0.66436,3.5438 -1.4964,3.5438 -0.82966,0 -0.49905,2.1953 -0.49905,2.1953 0,0 2.1646,0 2.829,0.16698 0.66278,0.16697 0.66278,1.8542 0.66278,1.8542 2.4952,-0.16698 3.49329,3.2067 3.15879,4.0503 -0.33296,0.84282 0.99811,0.84282 0.99811,0.84282 0,0 0,2.7002 -0.33453,3.3737 -0.32983,0.67584 2.1623,1.1823 2.8266,2.1937 0.66435,1.013 -0.33453,4.3866 -0.83123,4.5552 -0.49827,0.16936 1.3279,0.67426 1.1634,1.5179 -0.16844,0.8452 0.49905,0 0.66436,1.3509 0.1653,1.3485 0.49983,4.2165 0.49983,4.2165 l 2.3252,0.17015 c 0.33452,-2.1929 4.61989,-2.2772 5.32029,-2.0252 2.8259,1.0122 4.98971,5.3988 4.98971,6.4102 0,1.0114 -1.8309,1.1823 -1.8309,1.1823 l 0.33452,4.8907 c 2.8243,0.84441 5.1519,4.8947 4.82049,5.569 -0.33296,0.67425 1.9923,0.50728 1.9923,0.50728 0.33452,-3.0389 3.15961,-2.0259 3.3241,-1.013 0.17001,1.013 0.66514,3.205903 0.66514,3.205903 l 0.83202,1.516304 1.1634,1.1815 1.8278,-0.16856 0.49983,1.013 2.1607,0.33872 c 0,0 1.8309,2.022 1.9954,2.53 0.16844,0.5049 2.6606,0.33713 3.3241,0.5049 0.66436,0.16935 1.6632,0.67584 1.8278,1.5187 0.16844,0.84441 1.1665,2.1937 1.1665,2.1937 0,0 1.9931,0.50728 2.1607,1.1807 0.16531,0.67346 0.9981,2.1929 0.9981,2.1929 l 1.6585,1.3501 0.16766,1.5194 1.8278,0.16857 0.49983,2.022 2.9896,-0.16697 1.6656,-1.1807 c 2.1607,-1.1799 3.6571,-2.6994 3.824,-3.3752 0.16452,-0.67425 0.49748,-3.2035 2.1607,-2.6978 1.6609,0.50649 0.49905,-3.7124 0.49905,-3.7124 0,0 -2.3268,-1.6872 -2.1623,-2.5324 0.16687,-0.84203 -2.3252,-2.5285 -2.1607,-3.2043 0.16531,-0.67585 -2.1607,-2.023604 -1.9954,-2.698604 0.16452,-0.67584 -1.1634,-2.532403 -1.1634,-2.532403 l -2.4952,-2.3607 -0.33296,-1.5195 -1.9931,-0.16697 -3.9885,-4.8931 0.1653,-1.3509 -1.1634,-0.16777 v -1.855 l -1.16181,-0.67584 -1.83089,-0.16856 -3.65551,-4.0479 -0.33296,-1.8566 h -1.8278 l 0.3314,-3.5438 c 1.165,-1.5187 0.49826,-4.3866 0.49826,-4.3866 0,0 -2.3292,1.1807 -3.4894,0.67426 -1.1658,-0.50411 0.4967,-1.6872 0.4967,-1.6872 v -1.3485 l -0.99575,-1.0122 c 0,0 -2.8282,0.33872 -2.9927,-0.16697 -0.16687,-0.50649 -0.66435,-2.7002 -0.66435,-2.7002 l -0.16687,-2.8688 -1.1618,-0.5041 -0.16922,-1.0138 -1.8262,0.16777 v -2.0236 l -0.99888,-0.33712 -0.99653,-0.50649 -0.16609,-2.0252 -3.6571,-0.16697 -1.1634,-1.6872 -1.3287,-2.0251 -4.1561,-0.33713 -0.9981,-1.0106 -1.6617,-0.33872 -1.1634,-0.50648 -0.49905,0.8452 -3.1596,0.16698 -0.16452,1.0122 c -1.6617,0.84362 -8.3107,0.16777 -8.4799,0.67346 z m -30.58,-1.01 c -1.7377,-1.3191 2.3252,1.013 2.3252,1.013 1.3287,0 2.1607,1.0122 2.1607,1.5195 0,0.50569 1.8285,0.33713 1.8285,0.33713 l 0.16922,-1.1823 -1.3326,-1.6872 -1.1618,-0.84123 c 0,0 -1.82781,-0.16936 -1.82781,-0.67584 -7.9e-4,-0.5049 -1.4972,2.0244 -2.1615,1.5171 z m 0.006,5.734373 -1.33185,-0.333946 0,1.51866 1.82542,0.166973 z m 18.4445,18.555627 v -1.3485 c 0,0 -0.16922,-1.3493 -0.99809,-1.3493 -0.82889,0 -2.32601,-1.0114 -1.9962,-1.6872 0.33531,-0.67584 -2.8243,-1.3501 -2.8243,-1.3501 0,0 -2.8243,-2.6994 -1.8278,-2.3607 0.99809,0.33712 0.49982,-1.1823 0.49982,-1.1823 0,0 -1.99619,0.33712 -2.4952,0.16935 -0.49982,-0.16935 -0.33452,-1.6872 -0.33452,-1.6872 0,0 -1.99149,-0.50649 -1.99149,0 0,0.50648 0.66435,0.50648 0.99417,1.5171 0.33453,1.0114 0.16844,2.7002 1.6664,3.0365 1.4964,0.33872 1.8262,0.67425 1.99541,1.3501 0.1653,0.67584 1.9931,0.84361 1.9931,0.84361 l 1.331,0.67426 3.9877,3.3744 z m 1.32999,4.56 c -0.1653,-0.67585 -0.49982,-3.0389 0.49906,-2.8704 0.99653,0.17095 0.33296,0 1.4964,0.50729 1.1634,0.50728 1.3287,-0.84282 1.3287,-0.84282 h 1.8301 l 2.326,1.8542 -0.33296,1.5194 -1.6624,0.16698 c -0.82966,-1.3477 -2.4929,-0.84203 -2.1607,0.33951 0.33296,1.18 -0.82966,3.3737 -1.4932,3.5414 -0.66514,0.16935 -2.8298,0.16935 -2.6606,-0.84203 0.16531,-1.0122 0.82966,-3.3736 0.82966,-3.3736 z m 27.43001,22.940007 1.16579,-3.709207 c -1.6609,-0.33872 -1.331,-2.1929 -1.331,-2.1929 -0.16531,-1.5194 -2.4921,-3.2059 -3.3241,-2.6994 -0.82966,0.5041 -0.49984,-3.5446 -0.49984,-3.5446 0,0 1.4979,-1.0106 2.1623,-0.5049 0.66515,0.5049 -5.65089,-8.4353 -6.982,-7.5917 -1.3287,0.84361 -4.3191,-0.84361 -4.1538,-2.3631 0.1653,-1.5171 -5.98469,-6.5796 -5.98469,-6.5796 0,0 -1.99541,-1.3477 -2.3268,-0.33553 -0.33297,1.0114 -0.99732,1.6872 0,2.1913 0.99575,0.50728 0.82966,-0.84282 1.9923,0.33713 1.1634,1.1807 3.3272,2.7002 2.4952,3.7124 -0.832,1.0138 -1.8301,1.3509 -1.8301,1.3509 l 1.16579,1.3501 h 1.82781 l 0.33296,2.8664 c 0,0 1.9931,1.013 2.4929,2.1937 0.49905,1.18 0.49905,1.8558 0,2.5316 -0.49983,0.67425 -1.4932,1.855 -1.3287,3.0349 0.16531,1.1807 1.4964,1.6872 1.4964,1.6872 l 1.3279,0.16936 0.99888,0.50728 v 2.1945 c 1.3279,-0.33872 3.4886,1.5155 3.32409,2.697803 -0.1653,1.1807 0.32984,0.50569 1.9923,1.687204 1.66481,1.1807 1.1665,1.3501 2.32921,2.1937 1.1642,0.84123 2.1623,0.33554 2.6574,-1.1847 z m -38.24001,21.6 c 0,0.5049 -0.32983,1.18 0.66436,1.3501 1.002,0.16697 2.82979,-0.67425 2.9943,0.33713 0.16843,1.0114 0.16843,1.6888 1.4964,2.1953 1.3279,0.5049 2.1623,0.67425 3.15879,0.67425 0.99496,0 3.15961,-0.33951 3.15961,-0.33951 0,0 2.3519,0.36814 2.8243,0.84521 1.8278,1.855 2.99119,2.3607 3.48939,1.5179 0.49906,-0.84441 -0.1653,-2.6986 -0.3306,-3.3736 -0.16765,-0.67664 -2.4952,-3.8817 -3.3265,-3.2067 -0.82966,0.67585 -0.99575,0 -2.49291,0.5049 -1.4964,0.50648 -4.65519,0.17095 -4.8197,-0.5049 -0.16531,-0.67584 -2.4929,-1.0106 -2.4929,-1.6872 0,-0.67585 -1.6609,-1.5179 -1.4964,-0.50649 0.16531,1.0114 -1.1626,1.5179 -1.5003,1.1823 -0.32983,-0.33792 -1.3279,1.0114 -1.3279,1.0114 z m -8.31,1.86 -0.1653,1.1807 1.82619,0.16936 c 0,0 0.82966,0.67585 0.82966,1.18 0,0.50648 1.1665,1.0122 1.8309,1.0122 0.66436,0 2.4921,-1.3501 2.4921,-1.3501 0,0 0.8328,-2.3623 0.16844,-2.1937 -0.66749,0.16777 -1.9962,1.1807 -2.1607,0.16777 -0.16844,-1.0122 -2.1607,-0.50649 -2.1607,-0.50649 l -2.6606,0.34031 z m -8.31411,2.84548 -0.31526,-0.96028 0.49798,-0.16839 0.31526,0.96027 z m 0.69881,-1.04577 -0.33112,-1.51677 0.97521,-0.21929 0.33112,1.51678 z m 2.4482,-1.29796 0.047,1.00979 3.65083,-0.16697 -0.047,-1.00979 z m 32.49787,0.1454 -0.0979,-1.00575 1.66465,-0.16687 0.0979,1.00575 z m 5.21677,3.07052 -0.91345,-0.39835 0.49982,-1.18056 0.91345,0.39835 z m 13.7146,-16.225 -0.0979,-1.00816 1.66229,-0.1663 0.0979,1.00816 z m 2.61788,0.0173 0.9981,0 0,0.8452 -0.9981,0 z m 2.82869,-15.729223 0.16756,1.517185 -0.99112,0.112759 -0.16757,-1.517184 z m -0.8387,22.479223 0.9981,0 0,1.1807 -0.9981,0 z m 1.74031,1.60603 0.49957,-1.01245 0.89388,0.4543 -0.49957,1.01246 z m -4.40032,-14.25601 c 1.0106,0 -0.32983,3.8801 2.326,3.543 2.6606,-0.33871 0.16922,1.1807 2.16231,1.3485 1.9954,0.17095 1.4964,-1.5179 2.1607,-2.6978 0.66749,-1.1807 0.33453,-1.8566 -0.82966,-2.1937 -1.1665,-0.33713 -1.1665,-0.33713 -1.4964,-1.6888 -0.3314,-1.3485 -1.6624,-1.6872 -1.6624,-1.6872 l -0.49984,-2.0228 -2.1607,1.3485 -2.1607,2.868 c 0,2.1953 1.1626,1.1823 2.1607,1.1823 z m 6.49,9.11 c 1.32871,-0.67425 4.1538,-0.67425 3.9885,-1.6872 -0.16452,-1.0122 1.6617,-1.3493 1.6617,-1.3493 l 0.49905,2.0236 1.4964,1.0122 0.16687,1.8558 c 0,0 0.49748,-0.33713 -1.3287,0.16936 -1.8309,0.50648 -0.66435,1.3485 -0.66435,1.3485 l -3.9916,0.16856 -0.49905,-1.6872 -1.3287,-1.8542 z m -21.45,14.17 c 0.83358,-0.16857 2.8243,-0.33872 3.1588,0.16776 0.33452,0.5057 -1.1634,1.18 -1.1634,1.18 l -1.9954,0.33872 c -0.66435,-0.84441 -0.82966,-1.5179 0,-1.6864 z m 10.64,-1.52 c 0.91663,0.93187 -4.9858,0.67346 -4.9858,0 0,-0.67425 0.49983,-3.0349 1.99311,-2.5324 1.4964,0.50808 1.6609,-3.0349 1.6609,-3.0349 0,0 -1.3279,0.16698 -0.16452,-0.50648 1.1634,-0.67426 0,-1.6872 -0.49984,-2.1929 -0.49748,-0.50728 -0.99653,-1.3501 -0.99653,-1.3501 h 2.3292 c 0.9981,-0.67584 1.3279,-3.8801 1.3279,-3.8801 1.9931,0.67425 2.9912,-0.67584 2.9912,-0.67584 0,0 0.33766,1.0122 1.0012,1.8574 0.66436,0.84202 -1.6656,1.1799 -0.83357,1.6872 0.83357,0.50649 1.1634,2.0236 0.83357,2.5285 -0.33452,0.50648 -2.1654,0.16935 -2.1654,-0.5049 0,-0.67584 -0.66436,0.84361 0,1.6872 0.66435,0.84361 -0.82966,2.0236 -1.1634,2.0236 -0.33296,0 -2.4905,0.33872 -0.66435,1.3501 1.8278,1.0114 3.8263,0.50808 3.8263,0.50808 0,0 1.4948,-0.17095 1.9931,0.67425 0.49984,0.84282 -0.1653,1.0122 -0.99653,1.0122 -0.82966,0 -4.822,-0.33872 -4.822,-0.33872 0,0 -1.1626,1.1815 -0.66435,1.688 z m 19.45001,-19.06 c -0.49983,-0.67664 -0.99888,-1.1823 -1.6632,-1.5179 -0.66278,-0.33872 -1.16181,-0.67585 -1.8293,-0.67585 -0.66435,0 -1.3279,-0.67584 -0.99811,-1.5179 0.33453,-0.84441 -0.49982,-1.1815 -0.49982,-1.8574 0,-0.67426 0.49982,-0.67426 1.3318,-0.16777 0.83278,0.50648 0.66435,0.67425 1.3326,1.5195 0.66278,0.84281 0.99417,1.6864 1.6578,1.5171 0.66827,-0.16936 1.1665,1.5179 1.8309,1.0122 0.66435,-0.5057 0.49982,1.1807 0.49982,1.1807 l -1.6624,0.50728 z m -1.66001,1.51 c 0.4967,0.67425 1.4948,1.1799 1.4948,1.8566 0,0.67585 -0.33139,1.18 0.66749,1.3493 0.99496,0.16777 1.6617,-0.16936 1.99311,0.67425 0.33296,0.84282 0.33296,2.1929 0.16766,2.868 -0.16766,0.67584 0.1653,1.6872 0.99496,1.6872 0.83279,0 0.9981,0.16936 0.9981,0.67585 0,0.50489 0.99809,-1.8574 0.99809,-1.8574 -0.83357,-0.67426 -1.4979,-2.1937 -1.4979,-2.1937 0,0 -0.82966,-2.3615 -0.82966,-2.6986 0,-0.33713 -1.1626,-0.67585 -1.6609,-0.84361 -0.49983,-0.16936 -1.3326,-1.6864 -1.3326,-1.6864 l -1.9931,0.16856 z m 10.80001,27.34 -0.66749,-1.5195 c 0,0 0,-1.3477 0.33296,-2.0252 0.33453,-0.67425 -0.66435,-1.3477 -1.1618,-1.5171 -0.49906,-0.16936 -0.3314,-1.5179 -0.49906,-2.1937 -0.1653,-0.67426 -1.3279,-1.18 -1.3279,-1.18 0,0 -0.3353,-2.5308 -0.3353,-3.0365 0,-0.50648 -1.49561,-1.1807 -0.99654,-1.688 0.49983,-0.50569 0.83279,-1.1799 1.3318,-1.5187 0.49905,-0.33713 -0.49982,-2.6994 0.32984,-2.1937 0.83278,0.50728 0.83278,1.3501 1.16579,2.0252 0.3314,0.67425 -0.16764,3.0373 0.66514,3.5438 0.82889,0.50489 -0.16843,2.1913 1.1626,2.1913 1.32871,0 0.49983,3.2067 0.49983,3.2067 0,0 -0.33453,2.3607 0.49513,2.5308 0.83281,0.16856 0.33453,4.2173 0.33453,4.2173 l -1.3295,-0.84282 z m 1.4494,13.39462 -0.8896,-0.45218 0.49922,-1.01163 0.8896,0.45218 z m 0.0607,-4.66175 0.16993,-1.35025 0.99156,0.12854 -0.16993,1.35025 z m -2.01008,-6.88287 -1.32871,-0.16698 -2.9966,0.50569 -1.6585,3.2051 c 0,0 0.82965,0.50648 1.4932,1.6872 0.66436,1.1823 0.99811,8.0974 -0.99653,9.2798 -1.9931,1.1815 0.16766,0.5041 0.16766,0.5041 l -0.33452,3.7124 c 0.49982,1.6872 1.3287,0.84521 1.8278,0 0.50296,-0.84123 1.002,-1.0106 1.6664,-1.8542 0.66435,-0.8452 1.6609,-2.3623 1.8278,-3.5446 0.16453,-1.18 0.99653,-3.0349 0.49749,-3.5414 -0.49749,-0.50648 0.49983,-2.8672 0.49983,-2.8672 0,0 0.66435,-1.3517 0,-2.7002 -0.66436,-1.3509 0.1653,-2.8688 0.66435,-3.5446 l -1.3295,-0.67505 z m -7.31,-17.21 h -2.49521 c 0,0 0.83202,0.33713 -1.4932,-1.8566 -2.33069,-2.1929 -3.824,0.50649 -3.824,0.50649 l -2.6598,0.33712 v 2.6994 l -1.3318,0.50569 0.16844,1.688 1.8278,-0.16777 c 0,0 0,2.0236 0.49904,1.1807 0.49984,-0.84441 4.656,0.16697 4.3222,2.1929 -0.13553,0.83168 4.1577,3.0349 3.6586,5.7343 2.1607,0.33872 1.6624,2.5324 1.6624,2.5324 l 2.8243,0.33712 0.83279,-1.6872 0.82966,0.16936 v -1.013 l -1.8309,-0.50569 -0.32983,-5.3996 -1.1634,-0.84361 0.33139,-1.3501 -1.3287,-0.50648 0.66513,-2.1929 -1.165,-2.3607 z m -6.22962,39.8811 -1.23784,0.69969 -1.08114,-0.68379 -0.52491,0.85077 1.33185,0.84281 0.2507,0.15903 0.2507,-0.14312 1.00281,-0.56453 0.12535,0.31009 0.92446,-0.3737 -0.33688,-0.84282 -0.21153,-0.53272 z m 4.48128,-0.74741 1.82541,0.33395 0.18019,-0.99389 -1.83325,-0.33394 z m -3.40167,21.60631 c -0.72546,-0.98276 3.3241,-2.6994 3.9885,-0.67426 0.66435,2.022 0,1.6872 -0.66435,1.5187 -0.66671,-0.17016 -2.326,0.5041 -3.3241,-0.84441 z m -17.20999,32.48002 1.1618,0 0,3.2067 -1.1618,0 z m 7.73,30.94998 c -0.31494,1.2785 -1.4932,2.0244 -2.1576,1.5171 -0.66906,-0.50728 0.82653,0.84202 1.1618,1.5202 0.33139,0.67267 1.3279,0.67267 1.6624,0 0.32982,-0.67902 0.1653,-2.1929 0.49983,-2.868 0.32983,-0.67585 -0.99888,-0.84441 -1.1665,-0.16936 z m 3.65999,6.75 1.4979,0.67267 0.16452,2.868 c 1.9962,2.0244 8.4791,0.33792 8.4791,-0.16856 0,-0.50728 -0.33452,-6.2416 -0.33452,-6.2416 l -0.8328,-0.8444 -0.16452,-4.2204 c 0.66436,-2.1929 -3.1596,-5.3988 -3.49099,-4.7206 -0.33297,0.67266 -2.4937,0.16538 -2.4937,0.84202 0,0.67267 -1.3279,4.0479 -0.66435,5.2302 0.66435,1.1815 -0.49983,1.1815 -0.66436,2.3615 -0.1653,1.1807 -1.82929,3.2083 -1.4964,4.2212 z m -46.77862,-36.01729 -0.53274,-0.85077 -1.32402,0.83487 0.52491,0.85872 z m -25.37139,3.28728 0,2.03003 m 4.16366,0.66987 0.49357,0.50092 0.49357,0.84281 1.16732,-1.8526 -0.99496,-0.3419 z m -0.004,-51.28989 c 0.66436,1.5195 0.49984,3.7132 2.9896,5.4004 0.8422,0.56851 -0.49825,1.6872 -1.33109,1.18 -0.82966,-0.50569 -3.1549,-4.2189 -3.1549,-4.2189 v -2.1929 c 0.49825,-1.3485 1.208,-0.82214 1.49639,-0.16856 z m -8.81,8.78 c 0.3596,1.471 0.32983,-2.3647 0.99497,-2.1937 0.66436,0.16777 0.16766,-2.3607 0.16766,-2.3607 l -2.99271,2.1897 c 1.4956,0.17095 1.6609,1.6904 1.8301,2.3647 z m -8.97999,10.79 c -0.1653,2.0236 -2.66051,2.6994 -2.66051,2.6994 l -1.8278,-0.50569 -0.99653,-0.84361 -0.16686,-2.3631 1.49479,-0.16698 0.33297,1.013 3.824,0.16698 z m -2.66,-20.41 v -2.3623 l -0.33453,-2.1937 -2.4906,-1.1799 -1.8278,1.6872 -0.33453,2.3623 v 1.5171 l -1.6617,0.33872 -0.33452,4.5544 -1.3279,0.50728 0.16609,1.6872 -1.8278,0.50569 -1.8278,0.50649 -0.33296,2.1929 -1.3279,0.84282 -0.66905,2.0251 -0.82966,4.8923 c 0,0 1.4979,2.868 2.3276,1.5179 0.83201,-1.3485 2.1607,-1.5179 2.1607,-1.5179 l 0.49905,-1.1815 4.4883,0.16856 c 0.33296,-1.8574 2.4937,-1.1799 2.4937,-0.33713 0,0.84362 1.6632,0.16777 1.6632,0.16777 l 1.16259,-1.855 h 1.827 l 0.16609,-2.0236 0.83279,-0.50649 v -3.0381 c 2.6606,-0.84281 2.3252,-3.3736 2.3252,-3.3736 l 0.66906,-0.84203 -0.33375,-1.1799 c -1.3318,-0.50808 -0.66827,-1.6904 0.16453,-1.3525 0.83357,0.33712 -1.1634,-1.5187 -1.1634,-1.5187 -0.99653,0.84521 -1.8262,-1.0114 -1.8262,-1.0114 h -2.496 z m -8.97236,-6.58104 -2.99274,2.87035 -0.16452,1.34374 -0.83045,1.18471 -0.99497,2.52845 -3.49414,0.16697 -0.66593,3.03732 0.49357,2.52845 2.99274,1.18472 0.33688,-1.68563 0.99497,-0.50888 0.17236,-1.68563 0.65809,-1.18471 1.0028,-1.17677 0.32904,-1.35168 1.6609,-1.00979 1.99777,-0.3419 0.83045,-1.00979 0.33687,-2.01958 0.11752,-1.51866 0.71293,-1.01774 1.98994,-0.84282 0,-3.20429 -0.99497,0 -0.16452,-1.18471 -1.83325,-0.16698 -0.32905,0.84282 -0.83044,0 -0.17236,1.35169 1.0028,0 0.16453,1.00979 -0.66593,0.67584 -0.32904,0.84282 z m -51.495505,20.03678 c 0,0.39522 -0.315679,0.7156 -0.705096,0.7156 -0.389417,0 -0.705096,-0.32038 -0.705096,-0.7156 0,-0.39521 0.315679,-0.71559 0.705096,-0.71559 0.389417,0 0.705096,0.32038 0.705096,0.71559 z m -0.03919,19.27346 c 0,0.39522 -0.315679,0.7156 -0.705096,0.7156 -0.389408,0 -0.705096,-0.32038 -0.705096,-0.7156 0,-0.39521 0.315688,-0.7156 0.705096,-0.7156 0.389417,0 0.705096,0.32039 0.705096,0.7156 z m -1.862948,-2.8292 c 0.38937,0 0.70274,-0.31884 0.70274,-0.71322 0,-0.39755 -0.31337,-0.71719 -0.70274,-0.71719 -0.38938,0 -0.7051,0.31884 -0.7051,0.71719 0,0.39438 0.31572,0.71322 0.7051,0.71322 z m -1.960231,4.00597 -1.410192,0.16697 0,1.18471 1.410192,-0.16697 z m 1.49637,-8.60309 -1.159491,0.16697 -0.172357,1.35169 1.331848,0.16697 z m -1.49637,-6.40859 0.164522,-2.52845 1.002804,-0.17493 0.164522,-1.18471 -2.499174,1.69359 -1.660892,-1.00979 0,4.04711 2.663696,3.53824 0.994968,-2.36148 0.33688,-1.51866 z m 0.170221,-16.87429 -2.9927,-0.33713 0.16766,1.18 h 0.82965 c 1.3287,2.3631 0.16688,8.0982 0.16688,8.0982 0,0 -1.9931,0.16697 -2.3276,-0.84282 -0.32983,-1.0122 -1.1634,2.1937 -0.49905,2.7002 0.66435,0.5033 2.9935,0 3.1588,1.8566 0.16452,1.8542 1.4964,-1.1823 1.4964,-1.1823 v -11.473 z m 66.990003,-33.4 h -1.8278 l -0.33296,-3.7108 0.99731,-0.67744 v -1.855 h -5.8186 l -0.16609,-1.8542 0.83358,-0.50649 -1.33179,-0.50648 -0.9981,1.3485 -0.32983,1.5187 -1.6632,0.33871 v 0.84203 h -1.1626 v 2.1929 l -4.656,3.8802 -9.308,-0.33554 c -0.66748,1.5171 -2.3307,-0.17095 -2.3307,-0.17095 -0.32983,-1.0114 -2.6558,0 -2.6558,0 0,1.8582 -3.1588,-0.84202 -3.1588,-0.84202 l -5.8194,-4.2189 c -3.3241,-3.0365 -8.3107,0.8452 -8.476,1.6872 0.1653,2.3623 -3.8232,0.50649 -3.8232,0.50649 0,0 -3.3241,-1.0114 -3.824,0.33872 -0.49748,1.3485 -2.6621,1.013 -2.6621,1.013 l -0.33297,0.67425 -1.663193,0.33713 -0.32983,1.0114 -1.9962,0.33872 4.985803,-0.16936 c 1.3311,-0.16856 -0.49983,2.8688 -1.3287,2.7002 l -2.325203,0.16856 -0.83358,0.84203 h -2.1607 l -0.99653,1.3525 -3.1565,-0.16936 c 0,0 -1.8309,1.5179 -1.6624,2.0236 0.16608,0.50648 -0.33296,2.0252 -0.8328,2.0252 -0.49905,0 -1.4964,1.5179 -1.1634,2.0236 0.33453,0.50648 -0.99653,2.1937 -0.99653,2.1937 l -0.33139,1.6888 -0.99653,0.33554 v 4.556 l -1.9962,1.3501 v 2.0236 l -2.9943,3.2059 0.33452,2.6978 -2.4921,2.7002 0.32983,2.6994 -1.4956,0.50648 -0.33061,1.1807 -0.66435,3.5414 1.6617,0.17095 c 0.82887,-0.33872 0.66435,2.1929 0,2.5284 -0.66749,0.33872 -2.496,1.0122 -1.4964,1.6864 0.9981,0.67744 -2.6606,0.50728 -2.6606,-0.50569 0,-1.0098 -1.9954,-1.855 -2.4921,-1.5163 -0.49983,0.33554 -1.3318,-1.5187 -1.3318,-1.5187 -1.8278,-1.855 -7.4802,0.16777 -7.4802,0.16777 l -0.83357,2.6994 c -1.8262,0.33872 -2.9896,3.3752 -2.9896,3.3752 -1.4964,0.50649 -2.6598,2.3607 -2.1607,2.8672 0.49748,0.50649 -0.83358,0.67425 -0.83358,0.67425 v 3.7132 l -0.82966,1.1807 0.16452,4.0479 c 0.99888,0 0.83358,1.8574 0.83358,1.8574 -1.6632,0.16776 -1.3326,2.3623 -1.3326,2.3623 l -3.4894,1.18 -0.66435,1.0114 -4.3214,-0.16936 -1.1634,1.1823 -1.1665,-1.1823 h -8.3114 l -0.32983,-0.84282 -1.6632,-0.33951 -0.16766,-1.8542 -2.49211,0.16777 -0.498256,1.0122 -2.6613,0.16777 c 0.16609,1.688 -2.6598,4.2197 -2.9896,3.5462 -0.33688,-0.67585 -2.1638,-2.534 -1.3311,-2.868 0.83201,-0.33951 2.9943,-0.67823 2.9943,-0.67823 v -1.1799 l -6.1531,-0.16777 -0.66279,1.013 -2.4968,0.16697 v 2.7002 l -1.1618,0.33792 c -0.83279,0.5041 0.16453,2.3623 0.16453,2.3623 1.1634,1.1792 -0.16453,3.0341 -0.16453,3.0341 -0.99888,1.013 0.82888,2.8712 0.82888,2.8712 1.3318,0.33474 -0.82888,1.3477 -0.82888,1.3477 0.32983,1.6864 1.3287,2.1929 1.3287,2.1929 -0.99888,1.6864 0.66749,2.5285 0.66749,2.5285 l 0.16452,2.8711 1.1634,0.67585 v 1.8518 l 0.66436,1.1823 h 2.6598 l -0.16608,-4.2173 c -2.3284,-2.7002 1.9931,-3.3752 2.1623,-2.3647 0.16765,1.013 1.9954,1.5195 1.9954,1.5195 0.33296,2.5316 3.1596,4.0479 3.988496,1.5202 0.83201,-2.534 1.4964,-1.013 1.99541,0.16618 0.49905,1.1823 3.6539,4.0511 3.6539,4.0511 h 2.4952 l 0.33452,2.3623 c 2.8251,-0.16936 3.654,0.17174 4.8174,4.0479 1.1665,3.8786 4.323,4.8915 4.323,4.8915 l 2.3284,-0.16856 c 0,-2.0212 2.3276,0.3411 2.3276,1.3541 0,1.0082 4.4875,4.8891 4.4875,4.8891 l 4.4867,1.0106 4.1608,3.3784 3.1557,-0.33793 h 1.3318 c 0.82887,-2.8711 4.8205,0.16618 5.1503,1.1792 0.33531,1.013 2.9943,2.7002 3.3241,1.855 0.33452,-0.84203 2.1623,-0.33474 2.496,2.1929 0.3314,2.534 1.4932,2.0267 1.4932,2.0267 l 9.4772,-0.16856 3.3241,-2.8712 8.479103,-0.16618 c 4.3214,-0.16856 1.6617,-6.0746 0.83279,-6.0746 -1.4964,-1.1792 0.4967,-6.0723 0.4967,-6.0723 l -12.135003,-11.303 c -2.8251,0 -0.33296,-4.0511 -0.33296,-4.0511 2.16069,-1.3509 -0.49983,-3.5406 -0.49983,-3.5406 0.33451,-2.0275 -1.1634,-4.389 -1.1634,-4.389 -2.9896,-2.0244 -2.1607,-5.9061 -2.1607,-5.9061 v -2.7002 c -2.4921,-2.3591 0.99809,-2.7002 0.99809,-2.7002 1.1618,-2.0204 -0.83279,-3.5398 -0.83279,-3.5398 l -0.1653,-2.1937 -2.6606,-0.33872 -0.32983,-7.9296 -5.9839,-8.6023 c -1.1665,-0.34031 -0.33453,-2.3623 -0.33453,-2.3623 1.4964,-0.84441 -0.33453,-2.8664 -0.33453,-2.8664 l -0.1653,-3.7124 3.4894,-0.33951 0.83279,-1.3477 h 1.6617 l -0.1653,-4.3874 c 0.82965,-2.1929 2.82429,-1.013 2.82429,-1.013 l 2.3276,0.16936 1.3311,-2.5308 0.32983,-2.0252 -1.8262,-0.16697 c -1.9954,-1.1823 -0.9981,-5.5674 -0.9981,-5.5674 3.1588,-4.7254 6.8135,-2.0259 6.8135,-2.0259 l 2.3299,-0.16698 c 3.489403,2.3607 0.32983,6.7473 0.32983,6.7473 -0.66435,1.013 -0.32983,4.2181 -0.32983,4.2181 l 0.82966,5.3964 -2.1607,1.8582 c -1.8278,1.013 -1.8278,3.3736 0.16765,3.8801 1.3287,0.16697 0.82966,3.3737 -1.16579,1.18 -2.9896,0 1.6656,2.6994 0.33453,2.022 2.9935,1.5195 2.32519,-1.3485 2.32519,-1.3485 l 3.993203,-3.2059 c 1.4964,-1.18 4.15691,2.5324 4.15691,3.0389 0,0.50569 6.6482,0.16697 6.6482,0.16697 1.8278,1.1807 2.4921,4.2189 2.4921,4.2189 1.8309,-2.3639 5.6525,-0.17094 2.8274,1.18 2.6574,1.6872 2.6574,3.2051 2.6574,3.2051 2.1638,-0.67425 2.1638,1.0122 2.1638,1.5187 0,0.50648 0.66435,-2.53 0.66435,-2.53 -2.4937,-1.8566 3.3241,-2.5308 1.6632,0.84361 l -0.99888,1.5195 1.66319,1.3485 0.16453,3.8817 c 3.6586,-0.33871 2.66059,-4.8947 2.66059,-4.8947 l 1.6624,-0.33554 c 0,-1.5195 1.1618,-0.67584 1.1618,-0.67584 -1.1618,-5.7375 2.6613,-6.7473 2.6613,-6.7473 2.1607,-0.50648 2.326,-5.0641 2.326,-5.0641 -1.4932,-0.67425 -0.66513,-3.0349 0.9981,-1.009 1.6609,2.0212 -0.9981,-4.0519 -0.9981,-4.0519 l -1.3287,-1.18 -1.8278,-0.16856 -0.16766,-1.8558 h -2.9896 l -0.49983,2.3631 -1.1634,0.33713 -0.33453,-0.67585 -0.49748,1.8558 h -2.9912 l -0.16531,-2.0244 1.8278,-0.50569 0.66514,-1.0122 0.49748,-2.7002 h 2.1623 l 2.8251,-0.84202 c 0.16452,-2.8688 1.6624,-2.1929 1.6624,-2.1929 l 0.99654,0.84282 1.4964,1.1807 0.16687,1.0106 -0.99888,0.50569 -0.16452,1.3517 0.49905,1.855 h 1.3287 c 0.49827,-2.6994 3.9916,-2.6994 4.9881,-1.0122 l 0.9981,-2.3615 c -2.3268,-1.1807 -0.0431,-3.0381 0.62126,-2.1937 0.66436,0.84441 2.2038,-2.1929 2.2038,-2.1929 0,0 1.1634,1.5187 0,-0.50649 -1.1634,-2.02519 0.82966,-3.0365 0.82966,-3.0365 -0.33061,-2.0236 2.1623,-1.6872 2.1623,-1.6872 l 0.16766,-2.6978 -2.3299,-0.17095 c -0.49513,2.3623 -2.4913,0.33872 -1.494,-0.16697 0.99888,-0.50728 1.9931,-1.5195 1.9931,-1.5195 v -1.6872 l 0.9981,-0.33713 0.1653,-1.6872 h 2.4952 l 2.1607,-1.0114 0.49983,-0.84441 2.3252,-0.16776 3.3241,-3.0381 -0.32982,-1.3485 c -1.9954,0 0,-1.5187 0,-1.5187 l 0.32826,-2.5253 z m -90.26387,151.66672 -1.331848,-2.02753 1.997772,0.34189 2.15446,1.85261 0.838281,2.1945 -1.167325,0.67585 -0.665924,-1.00979 -1.660893,-0.50887 z m -34.244162,-43.69925 -1.825415,-1.68563 -1.331848,-1.85261 -0.665924,-1.51866 -1.167326,-3.03732 2.491339,1.17676 0.838281,2.36148 1.159491,0.85077 1.167326,2.52845 z m -12.472365,-15.85449 -0.830446,0 0,1.68563 1.331848,0 0,2.1945 1.002803,0 -0.172357,-2.52845 -1.331848,-0.50887 z M 153.60199,127.842 l -0.16527,-1.01271 0.98474,-0.16552 0.16526,1.01271 z m 2.37993,-1.24637 -1.33216,-0.33855 0.24226,-0.98185 1.33215,0.33855 z m 1.0402,-1.3612 0.14102,-1.00184 -1.1595,-0.16697 -0.14102,1.00184 z m 1.7356,-2.18527 1.3279,0 0,1.013 -1.3279,0 z m 9.58043,1.33676 -1.16034,-0.16772 0.14085,-1.00367 1.16034,0.16772 z m 2.1513,0.51456 0.14102,-1.00184 -1.16733,-0.16697 -0.14102,0.99389 z m 1.22823,0.17867 1.3279,0 0,1.0122 -1.3279,0 z m 1.45897,1.62623 0.047,1.19267 1.0028,-0.0477 -0.0548,-1.18471 z"
         style="fill:#00a21c;fill-opacity:1"
         id="path247"
         inkscape:connector-curvature="0" />
    </g>
  </g>
</svg>
