<?xml version="1.0" encoding="UTF-8" standalone="no"?>
<!-- Created with Inkscape (http://www.inkscape.org/) -->

<svg
   xmlns:dc="http://purl.org/dc/elements/1.1/"
   xmlns:cc="http://creativecommons.org/ns#"
   xmlns:rdf="http://www.w3.org/1999/02/22-rdf-syntax-ns#"
   xmlns:svg="http://www.w3.org/2000/svg"
   xmlns="http://www.w3.org/2000/svg"
   xmlns:xlink="http://www.w3.org/1999/xlink"
   xmlns:sodipodi="http://sodipodi.sourceforge.net/DTD/sodipodi-0.dtd"
   xmlns:inkscape="http://www.inkscape.org/namespaces/inkscape"
   width="508.44907"
   height="508.44885"
   id="svg3999"
   version="1.1"
   inkscape:version="0.91 r13725"
   sodipodi:docname="monthring.svg"
   inkscape:export-filename="C:\Users\Antonio\Documents\orrery project\testsun.png"
   inkscape:export-xdpi="90"
   inkscape:export-ydpi="90">
  <defs
     id="defs4001">
    <linearGradient
       id="linearGradient4488">
      <stop
         style="stop-color:#989898;stop-opacity:0;"
         offset="0"
         id="stop4490" />
      <stop
         id="stop4496"
         offset="0.7361111"
         style="stop-color:#989898;stop-opacity:0;" />
      <stop
         style="stop-color:#989898;stop-opacity:1;"
         offset="1"
         id="stop4492" />
    </linearGradient>
    <linearGradient
       id="linearGradient4369">
      <stop
         style="stop-color:#000000;stop-opacity:0.8018018;"
         offset="0"
         id="stop4371" />
      <stop
         style="stop-color:#000000;stop-opacity:0;"
         offset="1"
         id="stop4373" />
    </linearGradient>
    <linearGradient
       inkscape:collect="always"
       xlink:href="#linearGradient4369"
       id="linearGradient4375"
       x1="49.630428"
       y1="54.325397"
       x2="49.630428"
       y2="46.291229"
       gradientUnits="userSpaceOnUse" />
    <radialGradient
       inkscape:collect="always"
       xlink:href="#linearGradient4488"
       id="radialGradient4494"
       cx="1344.75"
       cy="146.875"
       fx="1344.75"
       fy="146.875"
       r="249.99905"
       gradientTransform="translate(0,-2.9375112e-5)"
       gradientUnits="userSpaceOnUse" />
    <radialGradient
       inkscape:collect="always"
       xlink:href="#linearGradient4488"
       id="radialGradient3294"
       gradientUnits="userSpaceOnUse"
       gradientTransform="matrix(-1,0,0,1,1394.7501,855.48898)"
       cx="1344.75"
       cy="146.875"
       fx="1344.75"
       fy="146.875"
       r="249.99905" />
  </defs>
  <sodipodi:namedview
     id="base"
     pagecolor="#3650d4"
     bordercolor="#666666"
     borderopacity="1.0"
     inkscape:pageopacity="0.33333333"
     inkscape:pageshadow="2"
     inkscape:zoom="2.8000001"
     inkscape:cx="138.01697"
     inkscape:cy="204.24475"
     inkscape:document-units="px"
     inkscape:current-layer="layer1"
     showgrid="false"
     inkscape:window-width="1366"
     inkscape:window-height="705"
     inkscape:window-x="-8"
     inkscape:window-y="-8"
     inkscape:window-maximized="1"
     fit-margin-top="0"
     fit-margin-left="0"
     fit-margin-right="0"
     fit-margin-bottom="0"
     units="px" />
  <metadata
     id="metadata4004">
    <rdf:RDF>
      <cc:Work
         rdf:about="">
        <dc:format>image/svg+xml</dc:format>
        <dc:type
           rdf:resource="http://purl.org/dc/dcmitype/StillImage" />
        <dc:title />
      </cc:Work>
    </rdf:RDF>
  </metadata>
  <g
     inkscape:label="Layer 1"
     inkscape:groupmode="layer"
     id="layer1"
     transform="translate(204.22452,-748.13958)">
    <path
       inkscape:connector-curvature="0"
       style="fill:url(#radialGradient3294);fill-opacity:1;fill-rule:evenodd;stroke:none"
       d="m 50.0001,752.83276 c 137.8128,0 249.5312,111.71845 249.5312,249.53124 0,137.8128 -111.7184,249.5313 -249.5312,249.5313 -137.8128,0 -249.5312,-111.7185 -249.5312,-249.5313 0,-137.81279 111.7184,-249.53124 249.5312,-249.53124 z m 0,72.59375 c -97.7198,0 -176.9375,79.21774 -176.9375,176.93749 0,97.7198 79.2177,176.9375 176.9375,176.9375 97.7198,0 176.9375,-79.2177 176.9375,-176.9375 0,-97.71975 -79.2177,-176.93749 -176.9375,-176.93749 z"
       id="path3467" />
    <path
       sodipodi:nodetypes="sssss"
       id="path4498"
       d="m 50.0001,752.83276 c 137.8128,0 249.5312,111.71845 249.5312,249.53124 0,137.8128 -111.7184,249.5313 -249.5312,249.5313 -137.8128,0 -249.5312,-111.7185 -249.5312,-249.5313 0,-137.81279 111.7184,-249.53124 249.5312,-249.53124 z"
       style="fill:none;stroke:#000000;stroke-width:0.93569785px;stroke-linecap:butt;stroke-linejoin:miter;stroke-opacity:1"
       inkscape:connector-curvature="0" />
    <path
       id="path3685"
       d="M 262.3886,933.38471 C 224.2923,816.08532 98.3203,751.87916 -18.9791,789.97548 c -117.2994,38.09633 -181.5057,164.06831 -143.4093,281.36772 38.0964,117.2994 164.0683,181.5057 281.3677,143.4093 117.2994,-38.0963 181.5056,-164.0684 143.4093,-281.36779 z"
       style="fill:none;stroke:none"
       inkscape:connector-curvature="0"
       sodipodi:nodetypes="sssss" />
    <g
       id="g3647"
       transform="matrix(0.60173721,-0.79869414,-0.79869414,-0.60173721,817.5304,1639.5124)">
      <path
         inkscape:connector-curvature="0"
         id="path4523"
         style="font-style:normal;font-variant:normal;font-weight:normal;font-stretch:normal;font-size:medium;line-height:125%;font-family:'Arial Narrow';-inkscape-font-specification:'Arial Narrow';letter-spacing:0px;word-spacing:0px;fill:#000000;fill-opacity:1;stroke:none"
         d="m 266.18686,930.78384 -0.27803,-1.67632 c -1.25664,0.38172 -2.17236,0.48124 -2.74714,0.29856 -0.57479,-0.18267 -0.96492,-0.57328 -1.17039,-1.17182 -0.14447,-0.4212 -0.15559,-0.83245 -0.0328,-1.23379 0.12253,-0.40131 0.34204,-0.71826 0.65872,-0.95085 0.42702,-0.32001 1.12829,-0.64741 2.1037,-0.98218 l 11.19488,-3.84215 -0.6048,-1.76237 -11.07306,3.80031 c -1.99509,0.68474 -3.29061,1.49485 -3.88635,2.43031 -0.59584,0.93548 -0.68951,1.99806 -0.28123,3.18775 0.39814,1.16014 1.06431,1.8979 1.99853,2.21327 1.06815,0.36854 2.44089,0.26498 4.11833,-0.31071 z" />
      <path
         inkscape:connector-curvature="0"
         id="path4525"
         style="font-style:normal;font-variant:normal;font-weight:normal;font-stretch:normal;font-size:medium;line-height:125%;font-family:'Arial Narrow';-inkscape-font-specification:'Arial Narrow';letter-spacing:0px;word-spacing:0px;fill:#000000;fill-opacity:1;stroke:none"
         d="m 257.07767,915.61689 c -0.34675,0.75885 -0.54692,1.4849 -0.60033,2.17815 -0.0535,0.69326 0.0432,1.35227 0.2904,1.97706 0.39081,0.98803 1.00042,1.65847 1.82885,2.01132 0.82843,0.35285 1.74766,0.32958 2.75749,-0.0698 0.66834,-0.26434 1.20583,-0.63655 1.61247,-1.11663 0.40663,-0.48007 0.66035,-1.01731 0.76136,-1.61173 0.10101,-0.59441 0.0281,-1.40567 -0.21909,-2.43377 -0.32831,-1.38239 -0.48231,-2.43043 -0.4621,-3.14413 l 0.49696,-0.20915 c 0.7918,-0.31318 1.4036,-0.39133 1.83531,-0.23443 0.62302,0.21569 1.09829,0.73763 1.4259,1.56582 0.29592,0.7483 0.36278,1.36875 0.20059,1.86138 -0.1623,0.49263 -0.63394,0.99421 -1.41493,1.50474 l 0.88644,1.47668 c 1.15324,-0.71654 1.87746,-1.53014 2.17257,-2.4408 0.29511,-0.91064 0.18985,-2.00529 -0.31579,-3.28393 -0.39367,-0.99528 -0.8896,-1.70227 -1.48789,-2.12097 -0.59829,-0.41868 -1.20291,-0.5933 -1.81397,-0.52387 -0.61106,0.0694 -1.44691,0.31391 -2.50754,0.7334 l -2.61537,1.03439 c -1.83078,0.72409 -2.99773,1.14571 -3.50084,1.26489 -0.50321,0.1192 -1.02026,0.16615 -1.55113,0.14087 l 0.66381,1.67819 c 0.46566,0.009 0.98457,-0.0701 1.55683,-0.23767 z m 4.43246,-1.60184 c -0.0576,0.70341 0.0415,1.67652 0.29773,2.91935 0.15095,0.72163 0.2051,1.24628 0.16254,1.57398 -0.0427,0.32771 -0.17074,0.6199 -0.38424,0.87657 -0.2136,0.2567 -0.49831,0.45543 -0.85433,0.59622 -0.55211,0.21837 -1.06093,0.22219 -1.52657,0.0115 -0.46564,-0.21071 -0.81769,-0.61757 -1.05614,-1.22056 -0.227,-0.57393 -0.28417,-1.15408 -0.1717,-1.74049 0.11257,-0.58638 0.37164,-1.09423 0.77742,-1.52354 0.40568,-0.42929 1.08432,-0.83213 2.03604,-1.20856 z" />
      <path
         inkscape:connector-curvature="0"
         id="path4527"
         style="font-style:normal;font-variant:normal;font-weight:normal;font-stretch:normal;font-size:medium;line-height:125%;font-family:'Arial Narrow';-inkscape-font-specification:'Arial Narrow';letter-spacing:0px;word-spacing:0px;fill:#000000;fill-opacity:1;stroke:none"
         d="m 254.00665,912.19318 11.33563,-5.13705 -0.64343,-1.41963 -1.61171,0.73042 c 0.47137,-0.62533 0.74986,-1.25542 0.83527,-1.89027 0.0852,-0.63482 -0.0176,-1.27245 -0.30723,-1.91289 -0.22578,-0.49811 -0.53238,-0.91451 -0.91999,-1.24925 -0.38751,-0.33469 -0.79848,-0.56016 -1.23279,-0.67641 -0.43442,-0.11621 -0.93319,-0.1239 -1.49651,-0.0231 -0.56331,0.10088 -1.36798,0.38833 -2.41399,0.86237 l -6.96997,3.15865 0.71582,1.57973 6.8954,-3.1248 c 0.83252,-0.37728 1.47316,-0.58185 1.92193,-0.61368 0.44876,-0.0318 0.84662,0.0559 1.19358,0.26323 0.34696,0.2073 0.61073,0.51019 0.79131,0.90867 0.34189,0.7543 0.33331,1.48297 -0.0261,2.18602 -0.35896,0.70306 -1.22161,1.36416 -2.58786,1.98331 l -6.19077,2.80555 z" />
      <path
         inkscape:connector-curvature="0"
         id="path4529"
         style="font-style:normal;font-variant:normal;font-weight:normal;font-stretch:normal;font-size:medium;line-height:125%;font-family:'Arial Narrow';-inkscape-font-specification:'Arial Narrow';letter-spacing:0px;word-spacing:0px;fill:#000000;fill-opacity:1;stroke:none"
         d="m 246.36417,896.27571 1.62605,-0.83549 c -0.44322,0.67573 -0.69806,1.33367 -0.76439,1.97382 -0.0662,0.64015 0.0556,1.26249 0.36645,1.86703 0.36769,0.71574 0.8748,1.22816 1.52105,1.53727 0.64634,0.3091 1.30851,0.39703 1.98669,0.26378 0.67808,-0.13324 1.52796,-0.46229 2.54942,-0.98715 l 6.85852,-3.52408 -0.78726,-1.53223 -6.13934,3.15454 c -1.13967,0.58556 -1.93177,0.9201 -2.3763,1.0036 -0.44453,0.0835 -0.86267,0.0304 -1.25441,-0.15917 -0.39165,-0.1896 -0.68927,-0.48245 -0.89277,-0.87855 -0.37848,-0.73657 -0.38684,-1.49643 -0.0255,-2.27959 0.3141,-0.67082 1.16601,-1.36328 2.55574,-2.07739 l 5.9309,-3.04742 -0.79261,-1.54265 -11.06962,5.68781 z" />
      <path
         inkscape:connector-curvature="0"
         id="path4531"
         style="font-style:normal;font-variant:normal;font-weight:normal;font-stretch:normal;font-size:medium;line-height:125%;font-family:'Arial Narrow';-inkscape-font-specification:'Arial Narrow';letter-spacing:0px;word-spacing:0px;fill:#000000;fill-opacity:1;stroke:none"
         d="m 242.35247,885.96783 c -0.23156,0.80154 -0.32294,1.54911 -0.27395,2.2427 0.0485,0.69359 0.24137,1.33125 0.57753,1.91297 0.53165,0.91996 1.23306,1.49361 2.10442,1.72098 0.87126,0.22738 1.77707,0.0694 2.71723,-0.47394 0.62233,-0.35961 1.0994,-0.80672 1.4311,-1.3413 0.33171,-0.53456 0.50389,-1.10325 0.51644,-1.70605 0.013,-0.6028 -0.17875,-1.39454 -0.57399,-2.37523 -0.52773,-1.3192 -0.83401,-2.33326 -0.91892,-3.04219 l 0.46092,-0.27986 c 0.73727,-0.42605 1.33102,-0.59318 1.78106,-0.50138 0.64789,0.12187 1.19464,0.56838 1.64024,1.33949 0.40268,0.69673 0.55993,1.30064 0.47175,1.81174 -0.0886,0.51112 -0.48096,1.07651 -1.1786,1.69619 l 1.09378,1.33051 c 1.03546,-0.8781 1.63237,-1.78923 1.79055,-2.73336 0.15818,-0.9441 -0.10662,-2.01142 -0.79461,-3.20195 -0.53552,-0.92669 -1.12996,-1.55319 -1.78311,-1.87951 -0.65326,-0.32629 -1.27704,-0.41024 -1.87125,-0.25184 -0.59421,0.15841 -1.38517,0.52297 -2.37267,1.09366 l -2.43515,1.40721 c -1.7046,0.98506 -2.79699,1.57346 -3.27727,1.76522 -0.48017,0.19179 -0.9847,0.31415 -1.51347,0.3671 l 0.9029,1.56255 c 0.46201,-0.0594 0.9637,-0.21398 1.50507,-0.46371 z m 4.14926,-2.23532 c 0.0464,0.70427 0.28704,1.65227 0.72312,2.844 0.2553,0.69162 0.38592,1.20264 0.39185,1.53304 0.008,0.33043 -0.0782,0.63826 -0.25128,0.9235 -0.17354,0.28526 -0.42605,0.52366 -0.75752,0.71518 -0.51411,0.29708 -1.01682,0.37559 -1.50831,0.23552 -0.4915,-0.14006 -0.89953,-0.49081 -1.2239,-1.05225 -0.3088,-0.53437 -0.45064,-1.09984 -0.42542,-1.69641 0.025,-0.59656 0.20695,-1.13694 0.54521,-1.62117 0.33825,-0.48421 0.95048,-0.98235 1.83658,-1.49443 z" />
      <path
         inkscape:connector-curvature="0"
         id="path4533"
         style="font-style:normal;font-variant:normal;font-weight:normal;font-stretch:normal;font-size:medium;line-height:125%;font-family:'Arial Narrow';-inkscape-font-specification:'Arial Narrow';letter-spacing:0px;word-spacing:0px;fill:#000000;fill-opacity:1;stroke:none"
         d="m 238.78489,883.04933 10.52116,-6.64777 -0.83255,-1.31761 -1.59501,1.00781 c 0.52687,-0.80422 0.8221,-1.42283 0.8859,-1.85586 0.0642,-0.433 -0.0148,-0.82452 -0.23627,-1.17458 -0.30883,-0.48873 -0.81542,-0.86634 -1.51978,-1.13287 l -1.34141,1.5407 c 0.48709,0.20052 0.83912,0.47249 1.05608,0.81592 0.19613,0.31041 0.26665,0.66327 0.21145,1.05855 -0.055,0.3953 -0.24429,0.76888 -0.56718,1.12077 -0.56342,0.61476 -1.2282,1.16418 -1.99436,1.64826 l -5.50818,3.48037 z" />
      <path
         inkscape:connector-curvature="0"
         id="path4535"
         style="font-style:normal;font-variant:normal;font-weight:normal;font-stretch:normal;font-size:medium;line-height:125%;font-family:'Arial Narrow';-inkscape-font-specification:'Arial Narrow';letter-spacing:0px;word-spacing:0px;fill:#000000;fill-opacity:1;stroke:none"
         d="m 231.33752,880.25689 1.7399,-0.96444 c -0.31947,-0.2452 -0.55648,-0.48059 -0.71094,-0.70619 -0.20757,-0.30294 -0.31739,-0.59465 -0.32958,-0.87511 -0.0126,-0.28048 0.0669,-0.57345 0.23605,-0.87896 0.0596,-0.10692 0.49856,-0.68234 1.31755,-1.72625 l 12.47902,-3.84562 -1.05284,-1.53726 -7.15129,2.3129 c -0.89137,0.28855 -1.8232,0.62852 -2.7956,1.01992 0.6889,-0.70856 1.33639,-1.4361 1.94237,-2.18264 l 4.75309,-5.89736 -0.98007,-1.43093 -8.24997,10.35205 c -1.06663,1.34605 -1.74434,2.29554 -2.03324,2.84849 -0.2888,0.55294 -0.42832,1.05092 -0.41846,1.49395 0.01,0.44302 0.14726,0.8579 0.41221,1.24463 0.18543,0.27071 0.46593,0.52832 0.8418,0.77282 z" />
    </g>
    <g
       id="g3656"
       transform="matrix(-0.47056749,-0.88236401,-0.88236401,0.47056749,963.00973,577.82124)">
      <path
         inkscape:connector-curvature="0"
         id="path4537"
         style="font-style:normal;font-variant:normal;font-weight:normal;font-stretch:normal;font-size:medium;line-height:125%;font-family:'Arial Narrow';-inkscape-font-specification:'Arial Narrow';letter-spacing:0px;word-spacing:0px;fill:#000000;fill-opacity:1;stroke:none"
         d="m 196.16723,832.76358 11.05357,-13.15141 -7.27536,-6.11491 -1.30447,1.55197 5.84911,4.91606 -3.42315,4.07282 -5.05965,-4.25255 -1.30437,1.55198 5.05955,4.25254 -5.02159,5.97465 z" />
      <path
         inkscape:connector-curvature="0"
         id="path4539"
         style="font-style:normal;font-variant:normal;font-weight:normal;font-stretch:normal;font-size:medium;line-height:125%;font-family:'Arial Narrow';-inkscape-font-specification:'Arial Narrow';letter-spacing:0px;word-spacing:0px;fill:#000000;fill-opacity:1;stroke:none"
         d="m 184.0367,817.91201 -1.58327,-0.85947 c -0.56437,1.23839 -0.74036,2.36152 -0.52795,3.3694 0.2124,1.00789 0.77651,1.8582 1.69252,2.55093 1.1528,0.87181 2.41696,1.13975 3.79248,0.80385 1.37561,-0.33591 2.68776,-1.32949 3.93663,-2.98077 1.29588,-1.71357 1.92448,-3.29271 1.88569,-4.73742 -0.0387,-1.44468 -0.60954,-2.58408 -1.71243,-3.41819 -1.05309,-0.7964 -2.26628,-1.01844 -3.63958,-0.66613 -1.3733,0.35233 -2.69375,1.36659 -3.96144,3.04277 l -0.32991,0.45572 6.07533,4.59464 c -0.89954,1.07299 -1.79432,1.71863 -2.68423,1.93694 -0.89002,0.21832 -1.66522,0.0777 -2.3257,-0.4218 -1.03435,-0.78226 -1.24047,-2.00575 -0.61814,-3.67047 z m 6.5902,0.70839 -4.54258,-3.43538 c 0.71262,-0.81278 1.38188,-1.31557 2.00756,-1.50839 0.90904,-0.28229 1.70615,-0.16427 2.39164,0.3541 0.61685,0.46655 0.94904,1.12178 0.99647,1.96572 0.0477,0.84396 -0.237,1.7186 -0.85309,2.62395 z" />
      <path
         inkscape:connector-curvature="0"
         id="path4541"
         style="font-style:normal;font-variant:normal;font-weight:normal;font-stretch:normal;font-size:medium;line-height:125%;font-family:'Arial Narrow';-inkscape-font-specification:'Arial Narrow';letter-spacing:0px;word-spacing:0px;fill:#000000;fill-opacity:1;stroke:none"
         d="m 177.0865,817.85637 1.32634,0.90461 9.67992,-14.19298 -1.42311,-0.97063 -3.45336,5.06339 c 0.0134,-0.67159 -0.0937,-1.25291 -0.32128,-1.74397 -0.22772,-0.49103 -0.57727,-0.89722 -1.04835,-1.21858 -0.65834,-0.44899 -1.39127,-0.66042 -2.19872,-0.63428 -0.80744,0.0261 -1.64548,0.32935 -2.51403,0.90956 -0.86855,0.58026 -1.69242,1.44157 -2.4715,2.58397 -1.18854,1.74267 -1.7406,3.33548 -1.6562,4.77846 0.0847,1.44297 0.61398,2.4968 1.58863,3.1615 0.49051,0.33455 1.01794,0.50752 1.58229,0.51888 0.56435,0.0119 1.16022,-0.1378 1.78759,-0.44755 z m 3.57837,-5.20508 c -0.72639,1.06496 -1.3668,1.79604 -1.92142,2.19323 -0.55451,0.39719 -1.10402,0.6135 -1.6483,0.64893 -0.54419,0.0354 -1.03254,-0.0943 -1.46505,-0.38927 -0.58728,-0.40056 -0.88291,-1.08681 -0.8867,-2.05872 -0.005,-0.9719 0.44321,-2.11618 1.34129,-3.43287 0.91993,-1.34893 1.8151,-2.18999 2.68539,-2.5232 0.8703,-0.33317 1.62495,-0.28186 2.26386,0.15392 0.58738,0.40058 0.8862,1.08904 0.89646,2.06532 0.0101,0.97631 -0.41158,2.09053 -1.26553,3.34266 z" />
      <path
         inkscape:connector-curvature="0"
         id="path4543"
         style="font-style:normal;font-variant:normal;font-weight:normal;font-stretch:normal;font-size:medium;line-height:125%;font-family:'Arial Narrow';-inkscape-font-specification:'Arial Narrow';letter-spacing:0px;word-spacing:0px;fill:#000000;fill-opacity:1;stroke:none"
         d="m 169.28993,812.65084 6.60544,-10.54769 -1.32093,-0.82725 -1.0014,1.59905 c 0.12672,-0.95305 0.12509,-1.63853 -0.005,-2.05644 -0.13009,-0.41789 -0.37058,-0.73673 -0.72147,-0.95651 -0.48995,-0.30684 -1.11015,-0.42788 -1.86049,-0.36315 l -0.54207,1.96962 c 0.52586,-0.0301 0.9609,0.0626 1.30521,0.27818 0.31122,0.1949 0.52757,0.48246 0.64895,0.86266 0.12138,0.38022 0.11276,0.79883 -0.0264,1.25583 -0.24174,0.79809 -0.6031,1.58118 -1.08409,2.34923 l -3.45818,5.52215 z" />
      <path
         inkscape:connector-curvature="0"
         id="path4545"
         style="font-style:normal;font-variant:normal;font-weight:normal;font-stretch:normal;font-size:medium;line-height:125%;font-family:'Arial Narrow';-inkscape-font-specification:'Arial Narrow';letter-spacing:0px;word-spacing:0px;fill:#000000;fill-opacity:1;stroke:none"
         d="m 157.91841,805.84515 0.90904,-1.58605 c -0.004,0.80816 0.14052,1.49878 0.43332,2.07186 0.29291,0.57308 0.73421,1.02862 1.32391,1.36662 0.69808,0.40015 1.40241,0.55395 2.11279,0.46137 0.71038,-0.0926 1.31373,-0.37933 1.81007,-0.86027 0.49624,-0.48096 1.02999,-1.21961 1.60103,-2.21598 l 3.8346,-6.68992 -1.49459,-0.85665 -3.43244,5.98839 c -0.63713,1.1116 -1.11944,1.82343 -1.44692,2.13551 -0.32738,0.31208 -0.70701,0.49521 -1.13879,0.54938 -0.43178,0.0542 -0.84086,-0.0294 -1.22725,-0.2509 -0.71843,-0.41181 -1.13913,-1.04465 -1.26201,-1.89853 -0.10179,-0.73367 0.2359,-1.77832 1.01287,-3.13393 l 3.3159,-5.78504 -1.50475,-0.86249 -6.1888,10.7974 z" />
      <path
         inkscape:connector-curvature="0"
         id="path4547"
         style="font-style:normal;font-variant:normal;font-weight:normal;font-stretch:normal;font-size:medium;line-height:125%;font-family:'Arial Narrow';-inkscape-font-specification:'Arial Narrow';letter-spacing:0px;word-spacing:0px;fill:#000000;fill-opacity:1;stroke:none"
         d="m 148.94401,799.37954 c 0.24176,0.79856 0.57174,1.47554 0.99003,2.03093 0.4184,0.5554 0.92683,0.98573 1.52529,1.291 0.94647,0.48275 1.84718,0.58255 2.70192,0.29939 0.85485,-0.28316 1.52892,-0.90843 2.02232,-1.8758 0.32654,-0.64028 0.48365,-1.27492 0.47124,-1.90394 -0.0128,-0.62902 -0.17734,-1.19985 -0.49475,-1.71251 -0.31731,-0.51265 -0.90858,-1.07292 -1.77372,-1.68081 -1.16036,-0.81988 -1.96901,-1.50418 -2.42584,-2.0529 l 0.23446,-0.48554 c 0.38694,-0.75857 0.79419,-1.22176 1.22184,-1.38956 0.60998,-0.25017 1.31159,-0.17293 2.10496,0.23172 0.71686,0.36563 1.17733,0.78685 1.38142,1.26365 0.20409,0.47682 0.18191,1.16495 -0.0664,2.0644 l 1.64148,0.52151 c 0.39128,-1.30012 0.39649,-2.38932 0.0156,-3.26761 -0.38076,-0.87827 -1.18357,-1.62978 -2.40853,-2.25454 -0.95345,-0.48629 -1.79293,-0.68867 -2.51866,-0.60714 -0.72562,0.0815 -1.29469,0.35041 -1.7071,0.80655 -0.41241,0.45617 -0.87774,1.19229 -1.39599,2.20837 l -1.27789,2.50544 c -0.89448,1.75381 -1.49109,2.84178 -1.78973,3.26389 -0.29864,0.42213 -0.65535,0.79925 -1.07034,1.13135 l 1.60767,0.81996 c 0.35533,-0.30112 0.69217,-0.70372 1.01063,-1.20781 z m 2.26573,-4.1327 c 0.42174,0.56591 1.13969,1.23026 2.15385,1.99307 0.59047,0.44147 0.97797,0.79922 1.16278,1.07322 0.18472,0.27401 0.28188,0.57789 0.29139,0.91163 0.009,0.33375 -0.0724,0.67115 -0.24652,1.01216 -0.26978,0.52892 -0.649,0.8683 -1.13756,1.01812 -0.48867,0.14983 -1.02181,0.0774 -1.59943,-0.2172 -0.54978,-0.28041 -0.97638,-0.67778 -1.27968,-1.19207 -0.3034,-0.51429 -0.44481,-1.06659 -0.42443,-1.65691 0.02,-0.59032 0.26319,-1.34132 0.72821,-2.25303 z" />
      <path
         inkscape:connector-curvature="0"
         id="path4549"
         style="font-style:normal;font-variant:normal;font-weight:normal;font-stretch:normal;font-size:medium;line-height:125%;font-family:'Arial Narrow';-inkscape-font-specification:'Arial Narrow';letter-spacing:0px;word-spacing:0px;fill:#000000;fill-opacity:1;stroke:none"
         d="m 144.36352,798.87027 5.21783,-11.29864 -1.41501,-0.65346 -0.79098,1.71288 c 0.005,-0.96142 -0.0837,-1.64119 -0.26519,-2.03929 -0.18189,-0.39808 -0.46074,-0.68392 -0.83667,-0.85754 -0.52488,-0.24237 -1.15538,-0.28399 -1.89149,-0.12484 l -0.28854,2.02238 c 0.5179,-0.0965 0.96122,-0.0595 1.33006,0.1108 0.33333,0.15396 0.58422,0.41183 0.7528,0.77363 0.16847,0.36181 0.21286,0.77815 0.13308,1.24902 -0.13876,0.82227 -0.39813,1.64478 -0.77809,2.46751 l -2.73176,5.9153 z" />
      <path
         inkscape:connector-curvature="0"
         id="path4551"
         style="font-style:normal;font-variant:normal;font-weight:normal;font-stretch:normal;font-size:medium;line-height:125%;font-family:'Arial Narrow';-inkscape-font-specification:'Arial Narrow';letter-spacing:0px;word-spacing:0px;fill:#000000;fill-opacity:1;stroke:none"
         d="m 136.59221,800.57325 0.93709,-1.75477 c -0.40134,-0.0323 -0.7282,-0.10129 -0.98047,-0.20682 -0.33869,-0.14168 -0.58935,-0.32696 -0.752,-0.55584 -0.16254,-0.22888 -0.25558,-0.51762 -0.27912,-0.8662 -0.009,-0.12202 0.0483,-0.84369 0.16866,-2.16504 l 8.38943,-10.00667 -1.71899,-0.71892 -4.74833,5.82608 c -0.59178,0.72638 -1.1896,1.51796 -1.79344,2.37474 0.19361,-0.9691 0.34208,-1.93164 0.44551,-2.88764 l 0.78792,-7.53323 -1.60013,-0.66917 -1.30466,13.17287 c -0.16445,1.70952 -0.21784,2.87486 -0.16008,3.49603 0.0579,0.62117 0.21116,1.11506 0.46001,1.48168 0.24894,0.36661 0.58966,0.64035 1.02205,0.82121 0.30277,0.1266 0.67825,0.19049 1.12655,0.19169 z" />
    </g>
    <g
       id="g3666"
       transform="matrix(-0.99092191,-0.13443877,-0.13443877,0.99092191,238.62783,16.161368)">
      <path
         inkscape:connector-curvature="0"
         id="path4553"
         style="font-style:normal;font-variant:normal;font-weight:normal;font-stretch:normal;font-size:medium;line-height:125%;font-family:'Arial Narrow';-inkscape-font-specification:'Arial Narrow';letter-spacing:0px;word-spacing:0px;fill:#000000;fill-opacity:1;stroke:none"
         d="m 92.286855,781.57401 2.834854,-16.94417 -2.762397,-0.46216 -5.301272,11.44619 -1.078444,2.39788 c -0.05771,-0.6512 -0.152419,-1.59784 -0.285238,-2.83991 l -1.35636,-12.34618 -2.473438,-0.41383 -2.834854,16.94419 1.768426,0.29586 2.372674,-14.18179 1.672654,14.8586 1.652822,0.27653 6.435549,-13.75158 -2.413302,14.42451 z" />
      <path
         inkscape:connector-curvature="0"
         id="path4555"
         style="font-style:normal;font-variant:normal;font-weight:normal;font-stretch:normal;font-size:medium;line-height:125%;font-family:'Arial Narrow';-inkscape-font-specification:'Arial Narrow';letter-spacing:0px;word-spacing:0px;fill:#000000;fill-opacity:1;stroke:none"
         d="m 69.815518,776.83974 c 0.512475,0.65843 1.063586,1.17167 1.653532,1.53971 0.589945,0.36804 1.218946,0.587 1.887201,0.6569 1.056754,0.1105 1.933131,-0.1199 2.62913,-0.69122 0.695999,-0.57134 1.100481,-1.39702 1.213447,-2.47708 0.07462,-0.71484 -0.0071,-1.36355 -0.244158,-1.94611 -0.237656,-0.58255 -0.596566,-1.05605 -1.076928,-1.42049 -0.480263,-0.36443 -1.233302,-0.67491 -2.259117,-0.93144 -1.377456,-0.34829 -2.377908,-0.69642 -3.001355,-1.04441 l 0.04472,-0.53736 c 0.08829,-0.84693 0.302215,-1.4255 0.641089,-1.73571 0.479295,-0.45258 1.161915,-0.63256 2.047657,-0.53993 0.800387,0.0838 1.381343,0.31139 1.743167,0.68306 0.361725,0.37168 0.588239,1.02182 0.679642,1.95042 l 1.719243,-0.10298 c -0.101852,-1.35387 -0.488305,-2.37224 -1.15916,-3.05511 -0.670854,-0.68286 -1.690078,-1.0958 -3.057672,-1.23883 -1.06445,-0.11131 -1.920731,10e-4 -2.568643,0.33817 -0.647912,0.3368 -1.082421,0.79212 -1.303427,1.36598 -0.221006,0.57388 -0.390929,1.42804 -0.50957,2.56246 l -0.292454,2.79725 c -0.204808,1.95808 -0.370731,3.18771 -0.497768,3.68894 -0.127038,0.50122 -0.324569,0.98133 -0.592494,1.44033 l 1.794873,0.18771 c 0.22347,-0.40867 0.393186,-0.90542 0.509346,-1.49026 z m 0.629836,-4.67077 c 0.596903,0.37664 1.505582,0.73875 2.72604,1.08632 0.709597,0.1999 1.199819,0.39452 1.470665,0.58387 0.270845,0.18937 0.47069,0.43806 0.599533,0.7461 0.128843,0.30803 0.173302,0.65242 0.133475,1.03315 -0.06199,0.59054 -0.293682,1.04347 -0.695883,1.35882 -0.4022,0.31535 -0.925734,0.43929 -1.570601,0.37185 -0.613883,-0.0642 -1.154689,-0.28178 -1.622618,-0.65278 -0.46783,-0.37099 -0.798283,-0.83561 -0.991262,-1.39387 -0.192978,-0.55825 -0.236192,-1.34632 -0.129741,-2.36422 z" />
      <path
         inkscape:connector-curvature="0"
         id="path4557"
         style="font-style:normal;font-variant:normal;font-weight:normal;font-stretch:normal;font-size:medium;line-height:125%;font-family:'Arial Narrow';-inkscape-font-specification:'Arial Narrow';letter-spacing:0px;word-spacing:0px;fill:#000000;fill-opacity:1;stroke:none"
         d="m 65.357735,778.01102 0.804637,-12.41928 -1.55531,-0.10077 -0.121926,1.88277 c -0.341057,-0.89892 -0.668013,-1.50139 -0.980969,-1.80744 -0.312856,-0.306 -0.675919,-0.4724 -1.089089,-0.49919 -0.576918,-0.0373 -1.180176,0.15059 -1.809775,0.56386 l 0.458135,1.99081 c 0.448503,-0.27625 0.875441,-0.40125 1.280813,-0.37499 0.366484,0.0237 0.693328,0.1741 0.980731,0.45106 0.287402,0.27698 0.47852,0.6495 0.573454,1.11754 0.166268,0.81716 0.220114,1.6779 0.161538,2.58226 l -0.421297,6.50199 z" />
      <path
         inkscape:connector-curvature="0"
         id="path4559"
         style="font-style:normal;font-variant:normal;font-weight:normal;font-stretch:normal;font-size:medium;line-height:125%;font-family:'Arial Narrow';-inkscape-font-specification:'Arial Narrow';letter-spacing:0px;word-spacing:0px;fill:#000000;fill-opacity:1;stroke:none"
         d="m 52.244621,772.86097 -1.705947,0.22237 c 0.154068,1.48922 0.612777,2.63517 1.376026,3.43786 0.763249,0.8027 1.695353,1.21929 2.796513,1.24979 1.33543,0.037 2.449766,-0.48118 3.343107,-1.55451 0.893441,-1.07332 1.369794,-2.6838 1.42926,-4.83141 0.05994,-2.16323 -0.330493,-3.79771 -1.17131,-4.90346 -0.840717,-1.10573 -1.944438,-1.67752 -3.311164,-1.71539 -1.054266,-0.0292 -1.951712,0.2742 -2.692239,0.91018 -0.740527,0.63599 -1.230546,1.60717 -1.469958,2.91353 l 1.666386,0.36269 c 0.187447,-0.83887 0.489901,-1.4616 0.907563,-1.86816 0.417662,-0.40655 0.911557,-0.60193 1.481684,-0.58615 0.851191,0.0236 1.545595,0.41992 2.083112,1.18899 0.537516,0.7691 0.783526,1.97363 0.738129,3.61362 -0.04657,1.69467 -0.348443,2.91336 -0.904407,3.65606 -0.555865,0.7427 -1.251694,1.10248 -2.087287,1.07933 -0.656016,-0.0182 -1.209371,-0.28555 -1.660064,-0.80214 -0.450692,-0.51657 -0.723794,-1.30765 -0.819404,-2.3732 z" />
      <path
         inkscape:connector-curvature="0"
         id="path4561"
         style="font-style:normal;font-variant:normal;font-weight:normal;font-stretch:normal;font-size:medium;line-height:125%;font-family:'Arial Narrow';-inkscape-font-specification:'Arial Narrow';letter-spacing:0px;word-spacing:0px;fill:#000000;fill-opacity:1;stroke:none"
         d="m 48.965234,777.37678 -0.331112,-17.17649 -1.72239,0.0332 0.118825,6.16292 c -0.417161,-0.56237 -0.884348,-0.98118 -1.401462,-1.25643 -0.517114,-0.27523 -1.084155,-0.4069 -1.701223,-0.39502 -1.08572,0.0209 -1.936363,0.38311 -2.55183,1.08649 -0.615466,0.70341 -0.905411,1.97682 -0.869936,3.82021 l 0.152011,7.88526 1.72239,-0.0332 -0.152012,-7.88525 c -0.02055,-1.07791 0.155686,-1.85489 0.529399,-2.33095 0.373713,-0.47602 0.896457,-0.72052 1.568131,-0.73348 0.749882,-0.0144 1.394232,0.27397 1.933047,0.86525 0.538916,0.59129 0.823052,1.65242 0.852607,3.18337 l 0.131165,6.80733 z" />
    </g>
    <g
       id="g3673"
       transform="matrix(-0.70710678,0.70710678,0.70710678,0.70710678,-628.13172,260.18068)">
      <path
         inkscape:connector-curvature="0"
         id="path4563"
         style="font-style:normal;font-variant:normal;font-weight:normal;font-stretch:normal;font-size:medium;line-height:125%;font-family:'Arial Narrow';-inkscape-font-specification:'Arial Narrow';letter-spacing:0px;word-spacing:0px;fill:#000000;fill-opacity:1;stroke:none"
         d="m -19.923738,788.26675 -10.867169,-14.36516 -1.887627,0.67272 0.336347,18.11825 2.009048,-0.716 -0.201322,-5.45193 5.541361,-1.97491 3.203874,4.38189 z m -6.198668,-5.28017 -4.492758,1.60116 -0.217443,-4.97346 c -0.06327,-1.52826 -0.149448,-2.7583 -0.257635,-3.69015 0.539062,0.97733 1.145389,1.92237 1.819081,2.83512 z" />
      <path
         inkscape:connector-curvature="0"
         id="path4565"
         style="font-style:normal;font-variant:normal;font-weight:normal;font-stretch:normal;font-size:medium;line-height:125%;font-family:'Arial Narrow';-inkscape-font-specification:'Arial Narrow';letter-spacing:0px;word-spacing:0px;fill:#000000;fill-opacity:1;stroke:none"
         d="m -31.630787,797.59674 -6.636329,-15.88424 -1.459804,0.60988 0.623459,1.49218 c -0.619434,-0.46934 -1.206226,-0.74913 -1.760477,-0.83934 -0.55415,-0.0902 -1.115931,-0.0163 -1.685442,0.22157 -0.742479,0.31022 -1.321016,0.81018 -1.73561,1.49987 -0.414594,0.68971 -0.616496,1.55934 -0.605506,2.60891 0.01069,1.04957 0.279949,2.20511 0.806974,3.46662 0.816128,1.95354 1.853993,3.28743 3.113396,4.00166 1.259403,0.71423 2.440577,0.84095 3.543422,0.38015 0.490242,-0.2048 0.895253,-0.5222 1.215133,-0.95219 0.319879,-0.43 0.538464,-0.94042 0.655654,-1.53128 l 2.33565,5.5903 z m -5.648531,-9.47683 c 0.620396,1.48497 0.828739,2.68279 0.62503,3.59344 -0.20381,0.91065 -0.658866,1.51356 -1.365268,1.80871 -0.677641,0.28311 -1.424466,0.16754 -2.240475,-0.3467 -0.816009,-0.51424 -1.54167,-1.53187 -2.177183,-3.05289 -0.626423,-1.4994 -0.841584,-2.71343 -0.645384,-3.64211 0.196301,-0.92867 0.65121,-1.54209 1.364827,-1.84026 0.641564,-0.26804 1.387348,-0.12452 2.237351,0.43054 0.850003,0.55508 1.58367,1.57149 2.201102,3.04927 z" />
      <path
         inkscape:connector-curvature="0"
         id="path4567"
         style="font-style:normal;font-variant:normal;font-weight:normal;font-stretch:normal;font-size:medium;line-height:125%;font-family:'Arial Narrow';-inkscape-font-specification:'Arial Narrow';letter-spacing:0px;word-spacing:0px;fill:#000000;fill-opacity:1;stroke:none"
         d="m -43.554097,797.50931 -5.243169,-11.28693 -1.41354,0.65663 0.794954,1.71112 c -0.730044,-0.6257 -1.305668,-0.99791 -1.726873,-1.11664 -0.421305,-0.11873 -0.819651,-0.0908 -1.195238,0.0836 -0.524339,0.24357 -0.963741,0.69754 -1.318507,1.36193 l 1.355888,1.52802 c 0.261417,-0.45735 0.57631,-0.77161 0.944681,-0.94277 0.332987,-0.15468 0.692016,-0.17931 1.076987,-0.0738 0.384872,0.10546 0.731185,0.34087 1.038741,0.70623 0.537381,0.63764 0.996995,1.36741 1.378742,2.1893 l 2.745042,5.90917 z" />
      <path
         inkscape:connector-curvature="0"
         id="path4569"
         style="font-style:normal;font-variant:normal;font-weight:normal;font-stretch:normal;font-size:medium;line-height:125%;font-family:'Arial Narrow';-inkscape-font-specification:'Arial Narrow';letter-spacing:0px;word-spacing:0px;fill:#000000;fill-opacity:1;stroke:none"
         d="m -56.028046,787.08967 -1.075514,-2.17434 -1.544084,0.76376 1.075515,2.17433 z m 6.541283,13.22459 -5.517738,-11.1553 -1.544084,0.76376 5.517638,11.15529 z" />
      <path
         inkscape:connector-curvature="0"
         id="path4571"
         style="font-style:normal;font-variant:normal;font-weight:normal;font-stretch:normal;font-size:medium;line-height:125%;font-family:'Arial Narrow';-inkscape-font-specification:'Arial Narrow';letter-spacing:0px;word-spacing:0px;fill:#000000;fill-opacity:1;stroke:none"
         d="m -53.341692,802.24752 -7.91657,-15.24691 -1.528936,0.79382 7.91667,15.24692 z" />
    </g>
    <g
       id="g3582"
       transform="matrix(0.25881905,0.96592583,0.96592583,-0.25881905,-928.75371,1210.3754)">
      <path
         inkscape:connector-curvature="0"
         id="path4573"
         style="font-style:normal;font-variant:normal;font-weight:normal;font-stretch:normal;font-size:medium;line-height:125%;font-family:'Arial Narrow';-inkscape-font-specification:'Arial Narrow';letter-spacing:0px;word-spacing:0px;fill:#000000;fill-opacity:1;stroke:none"
         d="m -117.45315,851.67416 -13.14512,-11.06113 -1.80326,2.14303 7.15704,10.38731 1.51566,2.14838 c -0.58979,-0.2819 -1.45318,-0.68165 -2.59007,-1.19922 l -11.31888,-5.11363 -1.61473,1.91886 13.14512,11.06113 1.15445,-1.3719 -11.00211,-9.25785 13.64282,6.11953 1.079,-1.28223 -8.56469,-12.53668 11.19041,9.41629 z" />
      <path
         inkscape:connector-curvature="0"
         id="path4575"
         style="font-style:normal;font-variant:normal;font-weight:normal;font-stretch:normal;font-size:medium;line-height:125%;font-family:'Arial Narrow';-inkscape-font-specification:'Arial Narrow';letter-spacing:0px;word-spacing:0px;fill:#000000;fill-opacity:1;stroke:none"
         d="m -132.96352,868.60893 c 0.82754,-0.10585 1.54993,-0.31896 2.16706,-0.63934 0.61713,-0.32038 1.12581,-0.75035 1.52614,-1.28992 0.63313,-0.85329 0.88094,-1.72489 0.74354,-2.61482 -0.1374,-0.88992 -0.64222,-1.65843 -1.51425,-2.30549 -0.57724,-0.42827 -1.17704,-0.68846 -1.79938,-0.78056 -0.62234,-0.0921 -1.21269,-0.0242 -1.77085,0.20369 -0.55816,0.22788 -1.20885,0.71797 -1.95186,1.47025 -1.00102,1.00831 -1.80999,1.69219 -2.42691,2.05163 l -0.43983,-0.31179 c -0.68394,-0.50742 -1.07313,-0.98588 -1.16766,-1.4354 -0.14544,-0.643 0.0467,-1.32214 0.57782,-2.03739 0.47947,-0.64623 0.97122,-1.03041 1.47525,-1.15255 0.50412,-0.12213 1.17904,0.014 2.02486,0.4079 l 0.78656,-1.53221 c -1.21717,-0.60153 -2.29034,-0.78739 -3.21972,-0.55759 -0.92927,0.2298 -1.80356,0.89683 -2.62286,2.00108 -0.63775,0.85955 -0.97658,1.65389 -1.01666,2.38302 -0.0397,0.72912 0.13074,1.33489 0.51221,1.81729 0.38136,0.48242 1.03013,1.06345 1.94611,1.7431 l 2.25865,1.67586 c 1.58108,1.17309 2.55501,1.94189 2.92177,2.30642 0.36676,0.36451 0.67937,0.77891 0.93802,1.24321 l 1.07535,-1.44932 c -0.23798,-0.40035 -0.57907,-0.79937 -1.02336,-1.19707 z m -3.69948,-2.91999 c 0.62804,-0.322 1.40227,-0.91976 2.3228,-1.79328 0.53329,-0.50901 0.95042,-0.83187 1.25122,-0.96858 0.3009,-0.13672 0.61663,-0.1821 0.9474,-0.13615 0.33067,0.046 0.64978,0.18297 0.95713,0.41108 0.47692,0.35379 0.74865,0.78403 0.81528,1.29072 0.0664,0.50669 -0.0932,1.02042 -0.4795,1.54117 -0.36771,0.49566 -0.83041,0.85039 -1.3879,1.06422 -0.55749,0.21382 -1.12564,0.26167 -1.70435,0.14357 -0.57871,-0.11811 -1.27908,-0.48207 -2.101,-1.0919 z" />
      <path
         inkscape:connector-curvature="0"
         id="path4577"
         style="font-style:normal;font-variant:normal;font-weight:normal;font-stretch:normal;font-size:medium;line-height:125%;font-family:'Arial Narrow';-inkscape-font-specification:'Arial Narrow';letter-spacing:0px;word-spacing:0px;fill:#000000;fill-opacity:1;stroke:none"
         d="m -130.23898,875.66533 -1.53895,-1.2606 c -0.10986,0.38742 -0.24111,0.6946 -0.39366,0.92152 -0.20485,0.30472 -0.43541,0.51453 -0.6915,0.62946 -0.25618,0.11491 -0.55746,0.15003 -0.90394,0.10535 -0.12132,-0.0156 -0.81824,-0.21122 -2.09086,-0.58672 l -8.18333,-10.17596 -1.03953,1.5463 4.79086,5.79114 c 0.59746,0.72171 1.25752,1.46209 1.98049,2.22114 -0.9129,-0.37843 -1.82822,-0.71136 -2.74578,-0.99881 l -7.23597,-2.23845 -0.96769,1.43931 12.66732,3.84256 c 1.64482,0.49396 2.77753,0.77303 3.39801,0.83722 0.62058,0.0641 1.13486,0.01 1.54294,-0.16298 0.40798,-0.17283 0.74281,-0.45375 1.00438,-0.84275 0.18298,-0.2723 0.31878,-0.62822 0.40721,-1.06773 z" />
    </g>
    <g
       id="g3587"
       transform="matrix(0.97495038,0.22242247,0.22242247,-0.97495038,-221.67379,1968.3027)">
      <path
         inkscape:connector-curvature="0"
         id="path4579"
         style="font-style:normal;font-variant:normal;font-weight:normal;font-stretch:normal;font-size:medium;line-height:125%;font-family:'Arial Narrow';-inkscape-font-specification:'Arial Narrow';letter-spacing:0px;word-spacing:0px;fill:#000000;fill-opacity:1;stroke:none"
         d="m -174.78279,955.57299 -0.57829,1.59779 c 1.28258,0.28235 2.12977,0.64387 2.54154,1.08456 0.41178,0.44069 0.56079,0.97227 0.44684,1.59475 -0.0802,0.43804 -0.27186,0.80206 -0.57513,1.09206 -0.30317,0.29 -0.64983,0.45887 -1.03978,0.50666 -0.52906,0.07 -1.30078,0.0121 -2.31515,-0.17345 l -11.64267,-2.13039 -0.33538,1.83286 11.51579,2.10717 c 2.07501,0.37966 3.60119,0.30749 4.57865,-0.21653 0.97747,-0.52403 1.57943,-1.40468 1.80579,-2.64195 0.22081,-1.20652 0.001,-2.17597 -0.65919,-2.90833 -0.75094,-0.84426 -1.99862,-1.42599 -3.74302,-1.7452 z" />
      <path
         inkscape:connector-curvature="0"
         id="path4581"
         style="font-style:normal;font-variant:normal;font-weight:normal;font-stretch:normal;font-size:medium;line-height:125%;font-family:'Arial Narrow';-inkscape-font-specification:'Arial Narrow';letter-spacing:0px;word-spacing:0px;fill:#000000;fill-opacity:1;stroke:none"
         d="m -172.74246,973.50001 -1.81168,-0.24461 c 0.75013,-0.30078 1.33543,-0.69476 1.756,-1.18192 0.42047,-0.48718 0.67621,-1.06756 0.76722,-1.74113 0.10763,-0.79745 -0.0154,-1.50778 -0.36863,-2.13098 -0.35335,-0.6232 -0.84627,-1.07407 -1.47877,-1.35262 -0.6325,-0.27853 -1.51772,-0.49464 -2.65586,-0.64831 l -7.64158,-1.03176 -0.23054,1.70716 6.84032,0.92357 c 1.26965,0.17145 2.11076,0.35004 2.52322,0.53581 0.41247,0.18576 0.72514,0.46842 0.93792,0.84797 0.21289,0.37955 0.28951,0.78997 0.22988,1.23129 -0.11075,0.82067 -0.53854,1.44877 -1.28315,1.88431 -0.64128,0.37064 -1.73621,0.45142 -3.28467,0.24236 l -6.60797,-0.89221 -0.2321,1.71877 12.33344,1.66526 z" />
      <path
         inkscape:connector-curvature="0"
         id="path4583"
         style="font-style:normal;font-variant:normal;font-weight:normal;font-stretch:normal;font-size:medium;line-height:125%;font-family:'Arial Narrow';-inkscape-font-specification:'Arial Narrow';letter-spacing:0px;word-spacing:0px;fill:#000000;fill-opacity:1;stroke:none"
         d="m -173.25295,977.74796 -12.40063,-1.05432 -0.13196,1.55299 1.76317,0.14992 c -0.71681,0.3154 -1.26751,0.72921 -1.6521,1.24144 -0.3847,0.51223 -0.60677,1.11864 -0.66631,1.81925 -0.0468,0.5449 0.0176,1.05804 0.19251,1.53942 0.17477,0.48136 0.42316,0.87884 0.74538,1.19244 0.32232,0.31357 0.75385,0.56392 1.29461,0.75103 0.54076,0.1871 1.38336,0.32931 2.52758,0.42661 l 7.62492,0.64827 0.14684,-1.72814 -7.54305,-0.64133 c -0.91082,-0.0774 -1.56975,-0.21187 -1.97689,-0.40329 -0.40703,-0.19144 -0.71137,-0.46233 -0.9129,-0.81268 -0.20153,-0.35038 -0.28374,-0.74352 -0.24673,-1.17945 0.0702,-0.82514 0.43357,-1.45678 1.0903,-1.89491 0.65662,-0.43814 1.73232,-0.59367 3.2269,-0.46659 l 6.77237,0.5758 z" />
      <path
         inkscape:connector-curvature="0"
         id="path4585"
         style="font-style:normal;font-variant:normal;font-weight:normal;font-stretch:normal;font-size:medium;line-height:125%;font-family:'Arial Narrow';-inkscape-font-specification:'Arial Narrow';letter-spacing:0px;word-spacing:0px;fill:#000000;fill-opacity:1;stroke:none"
         d="m -178.37213,995.52161 0.20645,1.78967 c 1.33778,-0.24977 2.35813,-0.75112 3.06095,-1.50409 0.70281,-0.75298 1.07453,-1.70333 1.11513,-2.85104 0.0513,-1.44441 -0.45608,-2.63301 -1.52138,-3.56577 -1.06539,-0.93277 -2.63257,-1.43573 -4.70163,-1.50891 -2.14704,-0.076 -3.80065,0.31704 -4.96072,1.17892 -1.16008,0.86187 -1.76456,1.98379 -1.81345,3.36574 -0.0467,1.31948 0.46876,2.43996 1.54621,3.36143 1.07745,0.92147 2.66636,1.41934 4.76661,1.49364 l 0.56256,0.008 0.26922,-7.61242 c 1.39501,0.11969 2.4376,0.48097 3.12765,1.08387 0.69006,0.60289 1.02045,1.31814 0.99116,2.14575 -0.0456,1.29606 -0.92868,2.16774 -2.64876,2.61505 z m -3.2071,-5.80057 -0.2013,5.69175 c -1.07472,-0.11619 -1.87072,-0.37495 -2.3881,-0.7763 -0.75337,-0.58169 -1.11483,-1.30194 -1.08448,-2.16077 0.0269,-0.77296 0.37269,-1.42131 1.03615,-1.94506 0.66346,-0.52375 1.54274,-0.79363 2.63773,-0.80962 z" />
    </g>
    <g
       id="g3593"
       transform="matrix(0.63373602,-0.77354939,-0.77354939,-0.63373602,786.74744,1661.3901)">
      <path
         inkscape:connector-curvature="0"
         id="path4587"
         style="font-style:normal;font-variant:normal;font-weight:normal;font-stretch:normal;font-size:medium;line-height:125%;font-family:'Arial Narrow';-inkscape-font-specification:'Arial Narrow';letter-spacing:0px;word-spacing:0px;fill:#000000;fill-opacity:1;stroke:none"
         d="m -166.51896,1075.9916 0.31766,1.6693 c 1.24719,-0.4114 2.16032,-0.5326 2.73927,-0.3636 0.57895,0.169 0.97823,0.5503 1.19773,1.1438 0.15459,0.4176 0.17531,0.8285 0.0628,1.2326 -0.11294,0.4041 -0.32487,0.7262 -0.63599,0.9662 -0.41928,0.3301 -1.11252,0.674 -2.07975,1.0318 l -11.10081,4.1064 0.64646,1.7475 10.97989,-4.0617 c 1.97833,-0.7318 3.2542,-1.5724 3.82771,-2.5217 0.57341,-0.9493 0.64199,-2.0138 0.20556,-3.1935 -0.42559,-1.1504 -1.10905,-1.8722 -2.05048,-2.1653 -1.07657,-0.3431 -2.44648,-0.2071 -4.10971,0.4082 z" />
      <path
         inkscape:connector-curvature="0"
         id="path4589"
         style="font-style:normal;font-variant:normal;font-weight:normal;font-stretch:normal;font-size:medium;line-height:125%;font-family:'Arial Narrow';-inkscape-font-specification:'Arial Narrow';letter-spacing:0px;word-spacing:0px;fill:#000000;fill-opacity:1;stroke:none"
         d="m -155.62387,1090.3722 -1.68343,0.7127 c 0.49215,-0.641 0.79498,-1.2783 0.90858,-1.9118 0.11351,-0.6334 0.0374,-1.2631 -0.22724,-1.889 -0.31366,-0.741 -0.78139,-1.2896 -1.403,-1.6457 -0.6217,-0.3561 -1.27552,-0.4929 -1.96165,-0.4102 -0.68622,0.083 -1.55798,0.3478 -2.61555,0.7956 l -7.1007,3.0064 0.67158,1.5864 6.35609,-2.6912 c 1.17995,-0.4995 1.99465,-0.7745 2.44411,-0.8248 0.44956,-0.05 0.86264,0.033 1.23914,0.2516 0.3766,0.2181 0.65172,0.5322 0.82525,0.9422 0.32294,0.7626 0.275,1.521 -0.14382,2.2752 -0.36287,0.6458 -1.26375,1.2732 -2.70255,1.8824 l -6.14033,2.5998 0.67623,1.5971 11.46039,-4.8523 z" />
      <path
         inkscape:connector-curvature="0"
         id="path4591"
         style="font-style:normal;font-variant:normal;font-weight:normal;font-stretch:normal;font-size:medium;line-height:125%;font-family:'Arial Narrow';-inkscape-font-specification:'Arial Narrow';letter-spacing:0px;word-spacing:0px;fill:#000000;fill-opacity:1;stroke:none"
         d="m -153.88456,1094.2286 -15.5818,7.2354 0.7255,1.5624 15.58181,-7.2354 z" />
      <path
         inkscape:connector-curvature="0"
         id="path4593"
         style="font-style:normal;font-variant:normal;font-weight:normal;font-stretch:normal;font-size:medium;line-height:125%;font-family:'Arial Narrow';-inkscape-font-specification:'Arial Narrow';letter-spacing:0px;word-spacing:0px;fill:#000000;fill-opacity:1;stroke:none"
         d="m -147.77199,1096.0292 -1.85318,0.7233 c 0.28386,0.2857 0.48722,0.5507 0.61028,0.7949 0.16515,0.3279 0.23501,0.6317 0.2096,0.9113 -0.0254,0.2795 -0.14244,0.5594 -0.35126,0.8395 -0.0735,0.098 -0.58519,0.6097 -1.53638,1.5348 l -12.88091,2.1443 0.83819,1.6642 7.39616,-1.337 c 0.92185,-0.1669 1.89074,-0.3794 2.90676,-0.6374 -0.7774,0.6102 -1.51622,1.2447 -2.21656,1.9036 l -5.49812,5.2097 0.78007,1.549 9.55875,-9.1573 c 1.23694,-1.1915 2.03535,-2.042 2.39554,-2.5514 0.36008,-0.5094 0.56488,-0.9843 0.61421,-1.4247 0.0492,-0.4404 -0.0316,-0.8699 -0.24218,-1.2885 -0.14762,-0.2931 -0.39125,-0.5858 -0.73097,-0.8783 z" />
    </g>
    <g
       id="g3599"
       transform="matrix(-0.31694979,-0.94844232,-0.94844232,0.31694979,1015.0707,731.03472)">
      <path
         inkscape:connector-curvature="0"
         id="path4595"
         style="font-style:normal;font-variant:normal;font-weight:normal;font-stretch:normal;font-size:medium;line-height:125%;font-family:'Arial Narrow';-inkscape-font-specification:'Arial Narrow';letter-spacing:0px;word-spacing:0px;fill:#000000;fill-opacity:1;stroke:none"
         d="m -105.28061,1162.4605 -7.44627,16.4014 1.49135,1.3386 15.766097,-8.9339 -1.587213,-1.4246 -4.696404,2.7763 -4.37798,-3.9295 2.32435,-4.9054 z m -1.68602,7.9663 3.54943,3.1858 -4.26812,2.5623 c -1.31309,0.7846 -2.35335,1.4465 -3.12089,1.9859 0.60207,-0.9398 1.14365,-1.9234 1.62485,-2.9507 z" />
      <path
         inkscape:connector-curvature="0"
         id="path4597"
         style="font-style:normal;font-variant:normal;font-weight:normal;font-stretch:normal;font-size:medium;line-height:125%;font-family:'Arial Narrow';-inkscape-font-specification:'Arial Narrow';letter-spacing:0px;word-spacing:0px;fill:#000000;fill-opacity:1;stroke:none"
         d="m -89.274866,1176.2108 -1.14602,1.4244 c 0.130337,-0.7976 0.0956,-1.5023 -0.103906,-2.1142 -0.199607,-0.6118 -0.564187,-1.1308 -1.093738,-1.5568 -0.626956,-0.5045 -1.298539,-0.7666 -2.014649,-0.7862 -0.716209,-0.02 -1.356973,0.1691 -1.92239,0.5665 -0.565418,0.3974 -1.208094,1.0435 -1.92803,1.9382 l -4.833751,6.0078 1.34215,1.0799 4.326862,-5.3778 c 0.80326,-0.9982 1.390942,-1.6259 1.763147,-1.8829 0.372305,-0.257 0.775825,-0.3785 1.21076,-0.3644 0.434934,0.014 0.825898,0.1606 1.17289,0.4397 0.645182,0.5192 0.961691,1.21 0.949527,2.0726 -0.01375,0.7406 -0.511205,1.7196 -1.490676,2.9369 l -4.180035,5.1952 1.351317,1.0872 7.801752,-9.6964 z" />
      <path
         inkscape:connector-curvature="0"
         id="path4599"
         style="font-style:normal;font-variant:normal;font-weight:normal;font-stretch:normal;font-size:medium;line-height:125%;font-family:'Arial Narrow';-inkscape-font-specification:'Arial Narrow';letter-spacing:0px;word-spacing:0px;fill:#000000;fill-opacity:1;stroke:none"
         d="m -85.561944,1177.8171 1.544147,0.7458 c 0.453591,-0.4912 0.933722,-0.7531 1.440293,-0.7857 0.506671,-0.033 1.041127,0.1555 1.603566,0.5643 0.612954,0.4456 0.99432,0.9474 1.144099,1.5054 0.14978,0.5579 0.08005,1.1758 -0.21018,1.8537 -0.175095,0.4136 -0.676024,1.1891 -1.502889,2.3266 0.01332,-0.6565 -0.08876,-1.2331 -0.307153,-1.7299 -0.218389,-0.4968 -0.558189,-0.9129 -1.019498,-1.2482 -0.985888,-0.7166 -2.107403,-0.8944 -3.364645,-0.5333 -1.443836,0.4185 -2.751487,1.4335 -3.922855,3.0449 -0.785476,1.0806 -1.307866,2.1448 -1.56727,3.1926 -0.259304,1.0477 -0.259795,1.9552 -0.0018,2.7225 0.258421,0.7674 0.719367,1.3922 1.382835,1.8745 0.486617,0.3537 1.017899,0.5563 1.593645,0.6079 0.575847,0.052 1.19317,-0.05 1.851969,-0.3055 l -0.881949,1.2133 1.289076,0.9371 6.325302,-8.7018 c 1.125347,-1.5483 1.801707,-2.7445 2.02898,-3.5886 0.227273,-0.8441 0.192232,-1.6663 -0.104923,-2.4666 -0.297155,-0.8004 -0.850151,-1.4945 -1.658987,-2.0825 -1.067986,-0.7763 -2.098533,-1.0859 -3.09164,-0.9289 -0.993007,0.1571 -1.849924,0.7512 -2.57045,1.7824 z m -3.230123,6.8952 c 0.960094,-1.3208 1.878579,-2.126 2.755656,-2.4157 0.876977,-0.2897 1.631458,-0.2049 2.263442,0.2545 0.631884,0.4593 0.953111,1.1468 0.963779,2.0623 0.01037,0.9156 -0.45503,2.0211 -1.396696,3.3166 -0.918705,1.2639 -1.829436,2.0385 -2.732391,2.3239 -0.902856,0.2854 -1.679691,0.1916 -2.330606,-0.2815 -0.581369,-0.4227 -0.867738,-1.1016 -0.859106,-2.037 0.0047,-0.9354 0.453973,-2.0098 1.335922,-3.2231 z" />
      <path
         inkscape:connector-curvature="0"
         id="path4601"
         style="font-style:normal;font-variant:normal;font-weight:normal;font-stretch:normal;font-size:medium;line-height:125%;font-family:'Arial Narrow';-inkscape-font-specification:'Arial Narrow';letter-spacing:0px;word-spacing:0px;fill:#000000;fill-opacity:1;stroke:none"
         d="m -71.394973,1188.9087 -1.00125,1.5295 c 0.05208,-0.8065 -0.05139,-1.5044 -0.310012,-2.0938 -0.258521,-0.5894 -0.672094,-1.0703 -1.240718,-1.4425 -0.673279,-0.4408 -1.367201,-0.6359 -2.081865,-0.5855 -0.714664,0.05 -1.33394,0.3009 -1.857727,0.7517 -0.523887,0.4508 -1.100365,1.1566 -1.729334,2.1174 l -4.22339,6.4515 1.441245,0.9435 3.780563,-5.7749 c 0.701732,-1.072 1.225289,-1.7541 1.570571,-2.0462 0.345383,-0.2922 0.735199,-0.4526 1.169349,-0.4811 0.43425,-0.029 0.83761,0.079 1.210181,0.323 0.692915,0.4536 1.075398,1.1102 1.14765,1.9698 0.05827,0.7384 -0.340614,1.7613 -1.196439,3.0686 l -3.652169,5.5788 1.451113,0.95 6.816463,-10.4126 z" />
      <path
         inkscape:connector-curvature="0"
         id="path4603"
         style="font-style:normal;font-variant:normal;font-weight:normal;font-stretch:normal;font-size:medium;line-height:125%;font-family:'Arial Narrow';-inkscape-font-specification:'Arial Narrow';letter-spacing:0px;word-spacing:0px;fill:#000000;fill-opacity:1;stroke:none"
         d="m -70.230302,1194.0569 1.306587,1.1524 c 0.532258,-0.7019 1.101685,-1.121 1.708382,-1.2573 0.606598,-0.1363 1.232886,-0.014 1.878766,0.3675 0.645879,0.3812 1.051084,0.8359 1.215615,1.364 0.164531,0.5281 0.101852,1.0377 -0.188036,1.5288 -0.250248,0.4238 -0.596268,0.6641 -1.037961,0.7209 -0.303898,0.038 -0.92762,-0.058 -1.871166,-0.2881 -1.367666,-0.3266 -2.320099,-0.4806 -2.8572,-0.462 -0.537201,0.019 -1.036487,0.1729 -1.498061,0.4629 -0.461473,0.29 -0.849155,0.7008 -1.162948,1.2323 -0.540136,0.915 -0.686273,1.8311 -0.43861,2.7485 0.247762,0.9174 0.889603,1.6818 1.925722,2.2935 0.65256,0.3852 1.295651,0.606 1.929073,0.6625 0.633524,0.056 1.198602,-0.037 1.69533,-0.2784 0.496731,-0.2421 1.013971,-0.7033 1.55172,-1.3838 l -1.310151,-1.1 c -0.825631,1.0911 -1.806906,1.3012 -2.943925,0.63 -0.645879,-0.3814 -1.050393,-0.7948 -1.213741,-1.2404 -0.163247,-0.4458 -0.125798,-0.8704 0.112547,-1.2741 0.234311,-0.3969 0.570346,-0.6204 1.008104,-0.6704 0.261144,-0.028 0.926434,0.075 1.995971,0.3073 1.46545,0.3299 2.448373,0.486 2.948669,0.4683 0.500295,-0.017 0.969557,-0.167 1.407685,-0.4482 0.438128,-0.281 0.820039,-0.6975 1.145734,-1.2491 0.603681,-1.0227 0.767539,-2.0418 0.491673,-3.0574 -0.275965,-1.0157 -0.975627,-1.8552 -2.099186,-2.5184 -2.105739,-1.2431 -4.005936,-0.8135 -5.700593,1.2887 z" />
      <path
         inkscape:connector-curvature="0"
         id="path4605"
         style="font-style:normal;font-variant:normal;font-weight:normal;font-stretch:normal;font-size:medium;line-height:125%;font-family:'Arial Narrow';-inkscape-font-specification:'Arial Narrow';letter-spacing:0px;word-spacing:0px;fill:#000000;fill-opacity:1;stroke:none"
         d="m -56.777714,1199.6283 1.097722,-1.5238 c -0.358595,-0.3378 -0.705881,-0.5984 -1.041959,-0.7816 -0.52825,-0.288 -1.010512,-0.4153 -1.446987,-0.3818 -0.436375,0.034 -0.813718,0.1992 -1.13203,0.4973 -0.318212,0.298 -0.772813,0.989 -1.363703,2.0728 l -3.427546,6.2864 -1.11115,-0.6058 -0.785397,1.4404 1.11125,0.6058 -1.475408,2.706 0.906618,1.9358 2.081237,-3.8171 1.532991,0.8359 0.785397,-1.4405 -1.532991,-0.8358 3.483567,-6.3894 c 0.321589,-0.5899 0.573795,-0.9463 0.756419,-1.0692 0.264993,-0.1758 0.57585,-0.1665 0.932471,0.028 0.171527,0.094 0.381295,0.239 0.629499,0.4366 z" />
    </g>
    <g
       id="g3607"
       transform="matrix(-0.96650487,-0.25664827,-0.25664827,0.96650487,355.54352,46.576936)">
      <path
         inkscape:connector-curvature="0"
         id="path4607"
         style="font-style:normal;font-variant:normal;font-weight:normal;font-stretch:normal;font-size:medium;line-height:125%;font-family:'Arial Narrow';-inkscape-font-specification:'Arial Narrow';letter-spacing:0px;word-spacing:0px;fill:#000000;fill-opacity:1;stroke:none"
         d="m -26.316735,1216.9665 1.615995,0.7166 c 0.378612,-0.8712 0.806734,-1.507 1.284266,-1.9074 0.477532,-0.4004 1.059145,-0.6585 1.744741,-0.7746 0.685595,-0.1159 1.396501,-0.056 2.132811,0.1812 1.056195,0.3397 1.792963,0.8618 2.210604,1.5664 0.41764,0.7046 0.493671,1.4697 0.228191,2.2953 -0.155447,0.4834 -0.397114,0.8715 -0.725098,1.164 -0.327984,0.2926 -0.742865,0.4854 -1.244641,0.5784 -0.50178,0.093 -1.529924,0.1194 -3.084341,0.079 -1.384041,-0.035 -2.404693,0.052 -3.062148,0.2586 -0.657456,0.207 -1.228822,0.5547 -1.714098,1.0429 -0.485276,0.4882 -0.846277,1.1003 -1.083005,1.8367 -0.425703,1.3238 -0.346072,2.5435 0.238993,3.659 0.585064,1.1155 1.602676,1.9063 3.053035,2.3728 0.996592,0.3204 1.931982,0.4038 2.806171,0.25 0.87429,-0.1539 1.636115,-0.5325 2.285677,-1.1362 0.649562,-0.6035 1.149491,-1.3988 1.499689,-2.3858 l -1.656654,-0.7051 c -0.431241,1.0348 -1.002719,1.7209 -1.714435,2.0583 -0.711616,0.3375 -1.562076,0.3471 -2.55128,0.029 -1.003979,-0.3229 -1.697703,-0.7943 -2.081073,-1.414 -0.38337,-0.6198 -0.460297,-1.2866 -0.230682,-2.0006 0.212851,-0.6619 0.571337,-1.1129 1.075258,-1.353 0.503921,-0.2401 1.49248,-0.3284 2.965678,-0.265 1.441009,0.061 2.472307,0.044 3.094,-0.051 0.951988,-0.1534 1.745669,-0.5034 2.381042,-1.05 0.635273,-0.5466 1.104851,-1.2921 1.408633,-2.2367 0.301344,-0.9371 0.35632,-1.8611 0.165125,-2.772 -0.191294,-0.9109 -0.599866,-1.6885 -1.225514,-2.3328 -0.625849,-0.6444 -1.470464,-1.1377 -2.533948,-1.4797 -1.658623,-0.5333 -3.140812,-0.4601 -4.446767,0.2196 -1.305956,0.6797 -2.251365,1.8652 -2.836228,3.5564 z" />
      <path
         inkscape:connector-curvature="0"
         id="path4609"
         style="font-style:normal;font-variant:normal;font-weight:normal;font-stretch:normal;font-size:medium;line-height:125%;font-family:'Arial Narrow';-inkscape-font-specification:'Arial Narrow';letter-spacing:0px;word-spacing:0px;fill:#000000;fill-opacity:1;stroke:none"
         d="m -6.0105319,1221.4056 1.7911488,0.1926 c 0.05088,-1.36 -0.2136297,-2.4656 -0.7933303,-3.317 -0.5799006,-0.8513 -1.4250189,-1.4231 -2.5356548,-1.7153 -1.3977574,-0.3678 -2.6688528,-0.1347 -3.8132858,0.6992 -1.144334,0.8339 -1.979918,2.2519 -2.506753,4.2541 -0.546718,2.0777 -0.527315,3.7773 0.05821,5.0986 0.585422,1.3214 1.546703,2.158 2.88404,2.5099 1.2768166,0.3359 2.4833291,0.08 3.6193333,-0.7684 1.1360053,-0.8482 1.9715027,-2.2886 2.5061906,-4.3209 l 0.1318686,-0.547 -7.3664885,-1.9382 c 0.423856,-1.3345 1.005706,-2.272 1.745749,-2.8125 0.740044,-0.5404 1.5103876,-0.7052 2.3113322,-0.4946 1.2541464,0.3301 1.9101272,1.3832 1.9678419,3.1595 z m -6.3642481,1.8517 5.5078384,1.4492 c -0.3498783,1.0228 -0.7775239,1.7423 -1.2829366,2.1587 -0.733279,0.6068 -1.5153707,0.8008 -2.3464758,0.5822 -0.748014,-0.1968 -1.304394,-0.6765 -1.669242,-1.439 -0.364947,-0.7624 -0.434609,-1.6795 -0.209184,-2.7511 z" />
      <path
         inkscape:connector-curvature="0"
         id="path4611"
         style="font-style:normal;font-variant:normal;font-weight:normal;font-stretch:normal;font-size:medium;line-height:125%;font-family:'Arial Narrow';-inkscape-font-specification:'Arial Narrow';letter-spacing:0px;word-spacing:0px;fill:#000000;fill-opacity:1;stroke:none"
         d="m -0.13526797,1213.8172 -3.55755233,16.8432 1.5478659,0.3269 0.3342085,-1.5822 c 0.2433695,0.738 0.5675227,1.3016 0.97246029,1.6905 0.40483754,0.389 0.90923753,0.6472 1.51309997,0.7748 0.78736884,0.1663 1.54750084,0.083 2.28038864,-0.249 0.7328904,-0.3323 1.3929401,-0.9335 1.9799495,-1.8036 0.5870094,-0.8701 1.0217995,-1.9741 1.3042702,-3.3117 0.437585,-2.0716 0.3408191,-3.7588 -0.2902968,-5.0619 -0.6310164,-1.303 -1.531307,-2.078 -2.7007723,-2.3251 -0.5198511,-0.1098 -1.0334175,-0.078 -1.5409938,0.094 -0.5074783,0.1724 -0.97718188,0.4684 -1.4092107,0.8881 l 1.2520034,-5.9277 z m -0.73209806,11.0082 c 0.33257006,-1.5746 0.84126273,-2.6789 1.5260785,-3.3128 0.68481523,-0.6339 1.40182783,-0.8718 2.15093663,-0.7135 0.7185416,0.1518 1.2676222,0.671 1.6472417,1.5576 0.3796191,0.8867 0.3991972,2.1364 0.059033,3.7493 -0.3358474,1.59 -0.8482271,2.7114 -1.5370394,3.3644 -0.6889118,0.6529 -1.4116683,0.8995 -2.16846997,0.7397 -0.68028154,-0.1437 -1.21264849,-0.6853 -1.59710037,-1.6249 -0.38445136,-0.9396 -0.41121176,-2.1929 -0.0799806,-3.7598 z" />
      <path
         inkscape:connector-curvature="0"
         id="path4613"
         style="font-style:normal;font-variant:normal;font-weight:normal;font-stretch:normal;font-size:medium;line-height:125%;font-family:'Arial Narrow';-inkscape-font-specification:'Arial Narrow';letter-spacing:0px;word-spacing:0px;fill:#000000;fill-opacity:1;stroke:none"
         d="m 13.107781,1223.1713 0.548493,-1.7962 c -0.448372,-0.2044 -0.861095,-0.3391 -1.23827,-0.4044 -0.592787,-0.103 -1.090372,-0.068 -1.492748,0.1046 -0.402477,0.1723 -0.706289,0.4507 -0.911638,0.8354 -0.2052484,0.3847 -0.413001,1.1852 -0.623357,2.4016 l -1.2201077,7.0554 -1.2471247,-0.2157 -0.2795822,1.6167 1.2471252,0.2156 -0.5251702,3.037 1.4818252,1.5406 0.7407815,-4.284 1.7206169,0.2975 0.279582,-1.6166 -1.7206167,-0.2976 1.2400927,-7.1709 c 0.11445,-0.6621 0.238369,-1.0806 0.371757,-1.2558 0.194176,-0.2518 0.491442,-0.3431 0.891797,-0.2739 0.192436,0.033 0.437982,0.1035 0.736544,0.2107 z" />
      <path
         inkscape:connector-curvature="0"
         id="path4615"
         style="font-style:normal;font-variant:normal;font-weight:normal;font-stretch:normal;font-size:medium;line-height:125%;font-family:'Arial Narrow';-inkscape-font-specification:'Arial Narrow';letter-spacing:0px;word-spacing:0px;fill:#000000;fill-opacity:1;stroke:none"
         d="m 21.419846,1226.5004 1.801269,-0.029 c -0.116442,-1.3559 -0.51456,-2.4208 -1.194455,-3.1945 -0.679894,-0.7738 -1.58896,-1.2375 -2.726997,-1.3912 -1.43234,-0.1935 -2.665214,0.1938 -3.698625,1.1619 -1.033311,0.9681 -1.688657,2.4779 -1.96574,4.5296 -0.287574,2.1291 -0.05929,3.8133 0.683347,5.0529 0.743139,1.2395 1.799849,1.9518 3.17023,2.137 1.308423,0.1767 2.474373,-0.2256 3.49765,-1.2068 1.023377,-0.9813 1.675735,-2.5132 1.956974,-4.5958 l 0.06383,-0.5591 -7.548639,-1.0195 c 0.256867,-1.3764 0.719341,-2.3783 1.387422,-3.0054 0.668081,-0.6271 1.412396,-0.8853 2.233147,-0.7745 1.285138,0.1736 2.065368,1.1382 2.340689,2.8941 z m -6.088926,2.6187 5.644116,0.7622 c -0.221755,1.058 -0.557837,1.8247 -1.008347,2.2999 -0.65321,0.6922 -1.40568,0.9808 -2.257309,0.8658 -0.766484,-0.1039 -1.377531,-0.5113 -1.833235,-1.2232 -0.455705,-0.7119 -0.637446,-1.6135 -0.545225,-2.7047 z" />
      <path
         inkscape:connector-curvature="0"
         id="path4617"
         style="font-style:normal;font-variant:normal;font-weight:normal;font-stretch:normal;font-size:medium;line-height:125%;font-family:'Arial Narrow';-inkscape-font-specification:'Arial Narrow';letter-spacing:0px;word-spacing:0px;fill:#000000;fill-opacity:1;stroke:none"
         d="m 25.931857,1223.07 -0.902704,12.4125 1.542752,0.1122 0.126712,-1.7414 c 0.295805,0.6717 0.699726,1.2023 1.211861,1.5921 0.512135,0.3897 1.087739,0.6078 1.726612,0.6543 0.716848,0.052 1.336168,-0.089 1.857863,-0.423 0.521697,-0.3341 0.913502,-0.848 1.175515,-1.5418 0.35249,0.7541 0.778475,1.3314 1.278054,1.7321 0.499681,0.4005 1.068957,0.624 1.70783,0.6705 0.973954,0.071 1.765558,-0.2046 2.374809,-0.826 0.609152,-0.6215 0.966714,-1.6608 1.072687,-3.1179 l 0.619711,-8.5205 -1.718089,-0.125 -0.568664,7.8193 c -0.06449,0.8882 -0.174655,1.5128 -0.330182,1.8735 -0.155527,0.3607 -0.384702,0.632 -0.687725,0.8136 -0.303122,0.1816 -0.63382,0.2593 -0.992193,0.2333 -0.740237,-0.054 -1.322734,-0.3919 -1.747492,-1.0141 -0.424757,-0.6224 -0.591192,-1.5646 -0.499405,-2.827 l 0.524488,-7.2113 -1.729786,-0.1259 -0.586505,8.0646 c -0.0752,1.0286 -0.285314,1.7417 -0.631531,2.1396 -0.346117,0.3977 -0.795827,0.5766 -1.349031,0.5364 -0.787022,-0.057 -1.385293,-0.42 -1.795018,-1.0882 -0.409625,-0.6682 -0.55318,-1.8439 -0.430764,-3.5269 l 0.468385,-6.44 z" />
      <path
         inkscape:connector-curvature="0"
         id="path4619"
         style="font-style:normal;font-variant:normal;font-weight:normal;font-stretch:normal;font-size:medium;line-height:125%;font-family:'Arial Narrow';-inkscape-font-specification:'Arial Narrow';letter-spacing:0px;word-spacing:0px;fill:#000000;fill-opacity:1;stroke:none"
         d="m 43.876405,1224.1141 -1.605429,-0.018 -0.186906,17.1787 1.722627,0.019 0.066,-6.1285 c 0.361039,0.5664 0.772498,0.9908 1.234275,1.2732 0.461777,0.2824 0.977854,0.4267 1.54813,0.4329 0.79689,0 1.523942,-0.2218 2.181424,-0.6912 0.657484,-0.4695 1.186817,-1.1864 1.587902,-2.1509 0.401184,-0.9645 0.609224,-2.1381 0.624219,-3.5208 0.02267,-2.1092 -0.400781,-3.7409 -1.271154,-4.8949 -0.870273,-1.1541 -1.895335,-1.7375 -3.074885,-1.7504 -0.593792,0 -1.128533,0.1421 -1.604574,0.4456 -0.475941,0.3034 -0.889146,0.7579 -1.239514,1.3636 z m -0.09195,6.3158 c 0.01652,-1.289 0.141697,-2.2525 0.383028,-2.8906 0.241231,-0.6379 0.578587,-1.1226 1.011868,-1.4539 0.433381,-0.3312 0.911711,-0.4939 1.435089,-0.4883 0.710891,0 1.337418,0.4149 1.879444,1.2216 0.542026,0.8068 0.804458,2.0069 0.787096,3.6006 -0.01826,1.6327 -0.296316,2.829 -0.835866,3.5888 -0.539551,0.7597 -1.19596,1.1355 -1.969328,1.1271 -0.71099,0 -1.341317,-0.415 -1.891143,-1.2218 -0.549926,-0.8068 -0.816655,-1.9679 -0.800188,-3.4835 z" />
      <path
         inkscape:connector-curvature="0"
         id="path4621"
         style="font-style:normal;font-variant:normal;font-weight:normal;font-stretch:normal;font-size:medium;line-height:125%;font-family:'Arial Narrow';-inkscape-font-specification:'Arial Narrow';letter-spacing:0px;word-spacing:0px;fill:#000000;fill-opacity:1;stroke:none"
         d="m 60.386224,1227.8881 1.769534,-0.3382 c -0.347949,-1.3156 -0.923397,-2.2961 -1.726243,-2.9413 -0.802946,-0.6452 -1.778139,-0.9456 -2.925677,-0.9013 -1.444301,0.056 -2.592119,0.6495 -3.443554,1.7809 -0.851434,1.1314 -1.237234,2.7314 -1.157198,4.8003 0.08314,2.1467 0.597152,3.7667 1.542434,4.8599 0.945281,1.0932 2.108866,1.6131 3.490654,1.5597 1.319277,-0.051 2.398608,-0.6479 3.2379,-1.7905 0.839291,-1.1427 1.218298,-2.764 1.13712,-4.8639 l -0.03316,-0.5617 -7.611487,0.2944 c 0.01708,-1.4001 0.299482,-2.4666 0.849696,-3.1994 0.550214,-0.7327 1.239057,-1.1151 2.066529,-1.147 1.295972,-0.051 2.230554,0.7659 2.803751,2.4481 z m -5.54752,3.6273 5.690986,-0.2201 c -0.03647,1.0803 -0.235581,1.8933 -0.597546,2.439 -0.524425,0.7942 -1.215927,1.2079 -2.074706,1.2412 -0.772862,0.03 -1.44497,-0.2666 -2.016326,-0.8895 -0.571355,-0.623 -0.905525,-1.4798 -1.002408,-2.5706 z" />
      <path
         inkscape:connector-curvature="0"
         id="path4623"
         style="font-style:normal;font-variant:normal;font-weight:normal;font-stretch:normal;font-size:medium;line-height:125%;font-family:'Arial Narrow';-inkscape-font-specification:'Arial Narrow';letter-spacing:0px;word-spacing:0px;fill:#000000;fill-opacity:1;stroke:none"
         d="m 64.208385,1223.6358 0.972146,12.4074 1.553836,-0.1218 -0.147387,-1.881 c 0.465551,0.8412 0.874975,1.391 1.228272,1.6494 0.353298,0.2583 0.736331,0.3713 1.1491,0.339 0.576335,-0.045 1.146719,-0.3172 1.711049,-0.8159 l -0.737071,-1.9053 c -0.404511,0.3373 -0.80935,0.5219 -1.214316,0.5537 -0.366047,0.028 -0.711037,-0.074 -1.034961,-0.3069 -0.323924,-0.2332 -0.5661,-0.5748 -0.726727,-1.0245 -0.281031,-0.7851 -0.456862,-1.6294 -0.527593,-2.5329 l -0.508945,-6.4957 z" />
    </g>
    <g
       id="g3618"
       transform="matrix(-0.73253362,0.68073086,0.68073086,0.73253362,-601.47685,234.3386)">
      <path
         inkscape:connector-curvature="0"
         id="path4625"
         style="font-style:normal;font-variant:normal;font-weight:normal;font-stretch:normal;font-size:medium;line-height:125%;font-family:'Arial Narrow';-inkscape-font-specification:'Arial Narrow';letter-spacing:0px;word-spacing:0px;fill:#000000;fill-opacity:1;stroke:none"
         d="m 99.630895,1226.9653 c 0.724845,2.8386 1.906535,4.8611 3.544955,6.0674 1.63851,1.2063 3.38879,1.5718 5.25092,1.0963 1.20357,-0.3074 2.21422,-0.9283 3.03186,-1.8628 0.81764,-0.9345 1.35027,-2.1247 1.59778,-3.5707 0.24762,-1.4461 0.14232,-3.0662 -0.31581,-4.8601 -0.63013,-2.4677 -1.7035,-4.3345 -3.22001,-5.6002 -1.67067,-1.3955 -3.50525,-1.8382 -5.50366,-1.3279 -2.01342,0.5141 -3.40918,1.8059 -4.186954,3.8751 -0.706788,1.8738 -0.773215,3.9348 -0.199081,6.1829 z m 1.853405,-0.5095 c -0.52383,-2.0514 -0.4779,-3.7584 0.1376,-5.1211 0.61561,-1.3626 1.5706,-2.2092 2.86499,-2.5397 1.32473,-0.3383 2.58149,-0.05 3.77038,0.8635 1.18889,0.914 2.06648,2.4798 2.63287,4.6977 0.36527,1.4307 0.4611,2.7689 0.28739,4.0147 -0.13542,0.9538 -0.49462,1.7813 -1.07757,2.4824 -0.58285,0.7013 -1.29828,1.1601 -2.14599,1.3766 -1.36258,0.3479 -2.62977,0.067 -3.80148,-0.8435 -1.17181,-0.9103 -2.06121,-2.5538 -2.66819,-4.9306 z" />
      <path
         inkscape:connector-curvature="0"
         id="path4627"
         style="font-style:normal;font-variant:normal;font-weight:normal;font-stretch:normal;font-size:medium;line-height:125%;font-family:'Arial Narrow';-inkscape-font-specification:'Arial Narrow';letter-spacing:0px;word-spacing:0px;fill:#000000;fill-opacity:1;stroke:none"
         d="m 120.38881,1217.1912 1.5394,-0.7682 c -0.63274,-1.3569 -1.44103,-2.2897 -2.42487,-2.7986 -0.98384,-0.5089 -2.001,-0.5977 -3.05149,-0.2663 -1.27405,0.4019 -2.15768,1.256 -2.6507,2.5626 -0.49312,1.3065 -0.4165,2.9842 0.22974,5.0331 0.65097,2.0638 1.55461,3.4807 2.71083,4.2506 1.15622,0.7698 2.38633,0.9491 3.69013,0.5378 1.00592,-0.3172 1.75466,-0.8975 2.24643,-1.7407 0.49178,-0.8433 0.63713,-1.9213 0.43607,-3.2341 l -1.69335,0.2024 c 0.0973,0.854 0.0152,1.5414 -0.24653,2.0623 -0.26174,0.5207 -0.6645,0.8669 -1.20847,1.0385 -0.81211,0.2561 -1.59787,0.1088 -2.35739,-0.4422 -0.75953,-0.5509 -1.38608,-1.6087 -1.87957,-3.1733 -0.51003,-1.6168 -0.62381,-2.8671 -0.34133,-3.7508 0.28237,-0.8837 0.82215,-1.4513 1.61943,-1.7027 0.62581,-0.1975 1.23615,-0.1258 1.83114,0.2149 0.59488,0.3407 1.11166,0.999 1.55053,1.9747 z" />
      <path
         inkscape:connector-curvature="0"
         id="path4629"
         style="font-style:normal;font-variant:normal;font-weight:normal;font-stretch:normal;font-size:medium;line-height:125%;font-family:'Arial Narrow';-inkscape-font-specification:'Arial Narrow';letter-spacing:0px;word-spacing:0px;fill:#000000;fill-opacity:1;stroke:none"
         d="m 126.26344,1212.3161 -0.39902,-1.8351 c -0.49101,0.041 -0.91704,0.1248 -1.27799,0.2522 -0.56732,0.2001 -0.98441,0.4737 -1.25137,0.8205 -0.26696,0.3469 -0.39604,0.7383 -0.38714,1.1743 0.009,0.4359 0.21865,1.236 0.62946,2.4 l 2.38268,6.752 -1.19345,0.4212 0.54598,1.5472 1.19345,-0.4212 1.02571,2.9064 2.04559,0.6202 -1.44678,-4.0999 1.64656,-0.581 -0.54598,-1.5471 -1.64656,0.581 -2.42172,-6.8626 c -0.22359,-0.6335 -0.32004,-1.0593 -0.28924,-1.2774 0.0466,-0.3145 0.26113,-0.5394 0.64422,-0.6746 0.18423,-0.065 0.43273,-0.1237 0.7456,-0.1761 z" />
      <path
         inkscape:connector-curvature="0"
         id="path4631"
         style="font-style:normal;font-variant:normal;font-weight:normal;font-stretch:normal;font-size:medium;line-height:125%;font-family:'Arial Narrow';-inkscape-font-specification:'Arial Narrow';letter-spacing:0px;word-spacing:0px;fill:#000000;fill-opacity:1;stroke:none"
         d="m 128.85742,1216.0235 c 0.7882,1.9986 1.80272,3.3411 3.04337,4.0276 1.24074,0.6864 2.5043,0.7759 3.79069,0.2686 1.26453,-0.4988 2.12133,-1.4245 2.57038,-2.7774 0.44905,-1.3528 0.29522,-2.9886 -0.46148,-4.9073 -0.8198,-2.0785 -1.84821,-3.4618 -3.08525,-4.1495 -1.23714,-0.6879 -2.5025,-0.7767 -3.7961,-0.2665 -1.27185,0.5015 -2.12976,1.4299 -2.57372,2.7849 -0.44396,1.355 -0.27332,3.0282 0.51211,5.0196 z m 1.64611,-0.6493 c -0.59044,-1.4971 -0.75716,-2.7183 -0.50017,-3.6637 0.25698,-0.9453 0.78888,-1.5772 1.5956,-1.8953 0.75582,-0.2981 1.54996,-0.185 2.38232,0.3391 0.83236,0.5241 1.54089,1.5274 2.1256,3.0101 0.58767,1.4899 0.75291,2.7074 0.49593,3.6528 -0.25699,0.9454 -0.78889,1.5772 -1.59561,1.8954 -0.76314,0.3009 -1.55829,0.1904 -2.38566,-0.3315 -0.82727,-0.522 -1.53331,-1.5242 -2.11801,-3.0069 z" />
      <path
         inkscape:connector-curvature="0"
         id="path4633"
         style="font-style:normal;font-variant:normal;font-weight:normal;font-stretch:normal;font-size:medium;line-height:125%;font-family:'Arial Narrow';-inkscape-font-specification:'Arial Narrow';letter-spacing:0px;word-spacing:0px;fill:#000000;fill-opacity:1;stroke:none"
         d="m 138.8082,1205.2602 -1.46296,0.6612 7.07609,15.6548 1.56971,-0.7095 -2.52438,-5.5849 c 0.56628,0.3613 1.11832,0.5726 1.65612,0.6339 0.5378,0.061 1.06654,-0.026 1.58623,-0.2605 0.72617,-0.3282 1.28829,-0.8438 1.68645,-1.5468 0.39816,-0.7029 0.57568,-1.5763 0.53266,-2.6199 -0.0427,-1.0436 -0.3494,-2.1955 -0.91893,-3.4556 -0.86889,-1.9221 -1.94122,-3.2228 -3.2171,-3.9021 -1.27578,-0.6794 -2.45121,-0.776 -3.52618,-0.2902 -0.54104,0.2446 -0.96337,0.6049 -1.26698,1.0808 -0.30361,0.4758 -0.48648,1.0622 -0.54881,1.759 z m 2.58027,5.7654 c -0.53097,-1.1746 -0.82158,-2.1021 -0.87184,-2.7824 -0.0506,-0.6804 0.0514,-1.262 0.30433,-1.7451 0.25315,-0.4831 0.61822,-0.8325 1.09522,-1.048 0.64779,-0.2929 1.38757,-0.1879 2.21933,0.315 0.83167,0.5028 1.57583,1.4804 2.2323,2.9326 0.67248,1.4879 0.9244,2.6901 0.75566,3.6066 -0.16874,0.9164 -0.60557,1.5339 -1.31029,1.8526 -0.64789,0.2928 -1.39117,0.1893 -2.23006,-0.3102 -0.83878,-0.4997 -1.57033,-1.4401 -2.19465,-2.8211 z" />
      <path
         inkscape:connector-curvature="0"
         id="path4635"
         style="font-style:normal;font-variant:normal;font-weight:normal;font-stretch:normal;font-size:medium;line-height:125%;font-family:'Arial Narrow';-inkscape-font-specification:'Arial Narrow';letter-spacing:0px;word-spacing:0px;fill:#000000;fill-opacity:1;stroke:none"
         d="m 155.36961,1201.7227 1.46214,-1.0524 c -0.87002,-1.0465 -1.80506,-1.6931 -2.80502,-1.9399 -1.00007,-0.2468 -2.01108,-0.1083 -3.03304,0.4156 -1.28616,0.6593 -2.07694,1.6814 -2.37225,3.0662 -0.29541,1.3849 0.0288,2.9985 0.97353,4.8408 0.98004,1.9119 2.12902,3.1644 3.44703,3.7574 1.31792,0.593 2.59213,0.5741 3.82274,-0.057 1.17496,-0.6022 1.90221,-1.5984 2.18174,-2.9883 0.27954,-1.39 -0.0597,-3.02 -1.01857,-4.8902 l -0.267,-0.4951 -6.77856,3.4745 c -0.57535,-1.2765 -0.76796,-2.3629 -0.57772,-3.2593 0.19014,-0.8964 0.65366,-1.5335 1.39068,-1.9112 1.15401,-0.5916 2.34548,-0.2454 3.5743,1.0386 z m -3.50222,5.6273 5.06821,-2.598 c 0.42227,0.9951 0.58422,1.8163 0.48594,2.4637 -0.14086,0.9413 -0.59364,1.6079 -1.35833,2 -0.68829,0.3528 -1.42278,0.3671 -2.20345,0.043 -0.78067,-0.3241 -1.44486,-0.9603 -1.99237,-1.9087 z" />
      <path
         inkscape:connector-curvature="0"
         id="path4637"
         style="font-style:normal;font-variant:normal;font-weight:normal;font-stretch:normal;font-size:medium;line-height:125%;font-family:'Arial Narrow';-inkscape-font-specification:'Arial Narrow';letter-spacing:0px;word-spacing:0px;fill:#000000;fill-opacity:1;stroke:none"
         d="m 157.04408,1196.2559 6.10903,10.8428 1.35789,-0.765 -0.9261,-1.6438 c 0.77664,0.5667 1.3796,0.8928 1.80888,0.9782 0.42917,0.085 0.82417,0.026 1.185,-0.1767 0.50365,-0.2837 0.90632,-0.7707 1.20801,-1.4607 l -1.47115,-1.4174 c -0.22481,0.4763 -0.51422,0.8143 -0.86814,1.0137 -0.31991,0.1802 -0.67578,0.2328 -1.06781,0.1578 -0.39203,-0.075 -0.75558,-0.2828 -1.09076,-0.623 -0.58561,-0.5936 -1.10081,-1.2852 -1.54563,-2.0748 l -3.19842,-5.6767 z" />
    </g>
    <g
       id="g3627"
       transform="matrix(0.22465863,0.97443753,0.97443753,-0.22465863,-938.42032,1179.3927)">
      <path
         inkscape:connector-curvature="0"
         id="path4639"
         style="font-style:normal;font-variant:normal;font-weight:normal;font-stretch:normal;font-size:medium;line-height:125%;font-family:'Arial Narrow';-inkscape-font-specification:'Arial Narrow';letter-spacing:0px;word-spacing:0px;fill:#000000;fill-opacity:1;stroke:none"
         d="m 194.13947,1170.6343 11.49567,12.7668 1.41948,-1.2781 -3.52167,-14.9795 9.02551,10.0236 1.32375,-1.1919 -11.49566,-12.7668 -1.41949,1.2782 3.53826,14.9803 -9.03346,-10.0324 z" />
      <path
         inkscape:connector-curvature="0"
         id="path4641"
         style="font-style:normal;font-variant:normal;font-weight:normal;font-stretch:normal;font-size:medium;line-height:125%;font-family:'Arial Narrow';-inkscape-font-specification:'Arial Narrow';letter-spacing:0px;word-spacing:0px;fill:#000000;fill-opacity:1;stroke:none"
         d="m 208.43252,1166.0152 c 1.52567,1.5127 2.99444,2.3337 4.4065,2.4631 1.41196,0.1293 2.60484,-0.297 3.57842,-1.279 0.95719,-0.9653 1.36913,-2.1575 1.23611,-3.5767 -0.13313,-1.4192 -0.93197,-2.8548 -2.39655,-4.307 -1.58666,-1.5732 -3.08466,-2.4259 -4.49391,-2.558 -1.40925,-0.1321 -2.60343,0.2956 -3.58254,1.2831 -0.96272,0.9708 -1.37468,2.1658 -1.23605,3.585 0.13862,1.4192 0.96793,2.8823 2.48802,4.3895 z m 1.24598,-1.2565 c -1.14289,-1.1332 -1.78678,-2.1842 -1.93178,-3.1531 -0.145,-0.9689 0.0879,-1.7613 0.69834,-2.3771 0.57212,-0.5769 1.34462,-0.7929 2.3175,-0.6479 0.97288,0.145 2.02519,0.7786 3.15693,1.9008 1.13731,1.1276 1.77841,2.1759 1.92341,3.1448 0.145,0.9689 -0.0879,1.7612 -0.69833,2.377 -0.57755,0.5825 -1.35007,0.8013 -2.31745,0.6562 -0.96738,-0.145 -2.01689,-0.7786 -3.14862,-1.9007 z" />
      <path
         inkscape:connector-curvature="0"
         id="path4643"
         style="font-style:normal;font-variant:normal;font-weight:normal;font-stretch:normal;font-size:medium;line-height:125%;font-family:'Arial Narrow';-inkscape-font-specification:'Arial Narrow';letter-spacing:0px;word-spacing:0px;fill:#000000;fill-opacity:1;stroke:none"
         d="m 214.05557,1151.2139 6.63733,11.2195 1.22518,-1.3569 -4.06306,-6.6213 c -0.4587,-0.7511 -0.93255,-1.4736 -1.42155,-2.1678 0.58654,0.3296 1.31357,0.7019 2.18108,1.1168 l 7.15968,3.4018 1.19381,-1.3221 -11.82868,-5.4703 z" />
      <path
         inkscape:connector-curvature="0"
         id="path4645"
         style="font-style:normal;font-variant:normal;font-weight:normal;font-stretch:normal;font-size:medium;line-height:125%;font-family:'Arial Narrow';-inkscape-font-specification:'Arial Narrow';letter-spacing:0px;word-spacing:0px;fill:#000000;fill-opacity:1;stroke:none"
         d="m 226.23354,1143.1469 0.92264,-1.5473 c -1.21461,-0.6139 -2.32981,-0.835 -3.34539,-0.6635 -1.01568,0.1716 -1.88807,0.701 -2.61717,1.5883 -0.91756,1.1167 -1.2363,2.369 -0.95612,3.757 0.28009,1.388 1.21996,2.7392 2.81943,4.0536 1.65993,1.364 3.21245,2.0558 4.65756,2.0753 1.44502,0.02 2.60659,-0.5048 3.48451,-1.5732 0.83817,-1.0201 1.10896,-2.2233 0.81237,-3.6097 -0.29659,-1.3864 -1.25682,-2.7467 -2.88049,-4.0809 l -0.44205,-0.3481 -4.83593,5.8851 c -1.03585,-0.9422 -1.6449,-1.8623 -1.82706,-2.7603 -0.18226,-0.898 -0.0106,-1.6669 0.51528,-2.3067 0.82327,-1.002 2.05408,-1.1585 3.69242,-0.4696 z m -0.97368,6.5562 3.61581,-4.4002 c 0.78334,0.7448 1.25876,1.4338 1.42616,2.0668 0.24535,0.9196 0.0953,1.7114 -0.45032,2.3754 -0.49103,0.5975 -1.15909,0.903 -2.00427,0.9163 -0.84517,0.013 -1.70767,-0.3061 -2.58738,-0.9583 z" />
      <path
         inkscape:connector-curvature="0"
         id="path4647"
         style="font-style:normal;font-variant:normal;font-weight:normal;font-stretch:normal;font-size:medium;line-height:125%;font-family:'Arial Narrow';-inkscape-font-specification:'Arial Narrow';letter-spacing:0px;word-spacing:0px;fill:#000000;fill-opacity:1;stroke:none"
         d="m 225.68737,1137.5051 10.08021,7.2989 0.90725,-1.2529 -1.41424,-1.0241 c 0.72679,0.1019 1.39063,0.038 1.9915,-0.1928 0.60087,-0.2304 1.08928,-0.6051 1.46501,-1.124 0.42145,-0.5821 0.62739,-1.1829 0.61782,-1.8024 -0.01,-0.6195 -0.24051,-1.2231 -0.69265,-1.8109 0.82672,0.097 1.54193,0.039 2.14542,-0.1755 0.60349,-0.2141 1.09315,-0.5805 1.46888,-1.0994 0.57271,-0.791 0.75505,-1.609 0.54712,-2.4541 -0.20793,-0.845 -0.90363,-1.696 -2.08691,-2.5528 l -6.91944,-5.0103 -1.01028,1.3953 6.34993,4.5979 c 0.72136,0.5223 1.19453,0.9445 1.41951,1.2666 0.22497,0.322 0.33496,0.6597 0.32998,1.013 -0.002,0.3532 -0.11292,0.6754 -0.3237,0.9665 -0.43524,0.6011 -1.02926,0.9185 -1.78194,0.9523 -0.75268,0.034 -1.6415,-0.3205 -2.66666,-1.0628 l -5.85632,-4.2406 -1.01722,1.4048 6.5493,4.7423 c 0.83525,0.6048 1.33095,1.159 1.4871,1.6627 0.15616,0.5037 0.0711,0.9802 -0.25373,1.4295 -0.46284,0.6391 -1.08606,0.957 -1.86985,0.9538 -0.78369,0 -1.859,-0.4997 -3.22581,-1.4894 l -5.23001,-3.7869 z" />
      <path
         inkscape:connector-curvature="0"
         id="path4649"
         style="font-style:normal;font-variant:normal;font-weight:normal;font-stretch:normal;font-size:medium;line-height:125%;font-family:'Arial Narrow';-inkscape-font-specification:'Arial Narrow';letter-spacing:0px;word-spacing:0px;fill:#000000;fill-opacity:1;stroke:none"
         d="m 236.01951,1122.7965 -0.86057,1.3554 14.50351,9.2082 0.92337,-1.4544 -5.17425,-3.285 c 0.67175,-0.01 1.2492,-0.1346 1.73254,-0.3784 0.48323,-0.2438 0.87777,-0.6064 1.18341,-1.0879 0.42711,-0.6727 0.61436,-1.4122 0.56173,-2.2183 -0.0529,-0.8062 -0.38334,-1.6338 -0.99175,-2.4828 -0.60851,-0.849 -1.4964,-1.6441 -2.66377,-2.3853 -1.7808,-1.1306 -3.39089,-1.63 -4.83038,-1.4981 -1.43939,0.1318 -2.47525,0.6957 -3.1076,1.6916 -0.31824,0.5013 -0.47373,1.0341 -0.46659,1.5985 0.007,0.5645 0.17596,1.1551 0.50614,1.7719 z m 5.31984,3.4053 c -1.08822,-0.6909 -1.84001,-1.307 -2.25518,-1.8482 -0.41516,-0.5412 -0.64942,-1.0833 -0.70278,-1.6261 -0.0533,-0.5428 0.0602,-1.0351 0.34088,-1.477 0.38114,-0.6002 1.05726,-0.9182 2.02855,-0.954 0.97119,-0.036 2.12954,0.3735 3.47503,1.2277 1.37849,0.8752 2.24852,1.7422 2.61018,2.6011 0.36156,0.8588 0.33503,1.6148 -0.0795,2.2677 -0.38105,0.6002 -1.05928,0.9215 -2.03471,0.9638 -0.97552,0.042 -2.10299,-0.3426 -3.3825,-1.155 z" />
      <path
         inkscape:connector-curvature="0"
         id="path4651"
         style="font-style:normal;font-variant:normal;font-weight:normal;font-stretch:normal;font-size:medium;line-height:125%;font-family:'Arial Narrow';-inkscape-font-specification:'Arial Narrow';letter-spacing:0px;word-spacing:0px;fill:#000000;fill-opacity:1;stroke:none"
         d="m 247.92817,1110.7564 0.64582,-1.6817 c -1.3014,-0.3982 -2.43788,-0.4263 -3.40952,-0.084 -0.97154,0.3419 -1.74114,1.0121 -2.3086,2.0105 -0.71416,1.2565 -0.81518,2.5448 -0.30285,3.8649 0.51223,1.3201 1.66831,2.4917 3.46816,3.5147 1.86785,1.0616 3.51546,1.4791 4.94283,1.2524 1.42726,-0.2266 2.48259,-0.9411 3.16588,-2.1433 0.65242,-1.1478 0.71445,-2.3796 0.1863,-3.6953 -0.52825,-1.3156 -1.70591,-2.4927 -3.53298,-3.5312 l -0.49486,-0.2677 -3.76394,6.6222 c -1.18101,-0.7521 -1.93776,-1.5551 -2.27015,-2.4091 -0.33238,-0.8539 -0.294,-1.6408 0.11525,-2.3608 0.64081,-1.1275 1.82697,-1.4911 3.55866,-1.0911 z m 0.15618,6.6264 2.81429,-4.9515 c 0.89867,0.6007 1.48445,1.1987 1.75715,1.794 0.39833,0.8644 0.38515,1.6702 -0.0392,2.4173 -0.38221,0.6724 -0.98852,1.0871 -1.81912,1.2441 -0.83061,0.157 -1.73487,-0.011 -2.71279,-0.5039 z" />
      <path
         inkscape:connector-curvature="0"
         id="path4653"
         style="font-style:normal;font-variant:normal;font-weight:normal;font-stretch:normal;font-size:medium;line-height:125%;font-family:'Arial Narrow';-inkscape-font-specification:'Arial Narrow';letter-spacing:0px;word-spacing:0px;fill:#000000;fill-opacity:1;stroke:none"
         d="m 246.33192,1105.2671 11.05139,5.723 0.71671,-1.3841 -1.67533,-0.8676 c 0.96017,0.049 1.64327,-0.01 2.0491,-0.1727 0.40593,-0.1637 0.70408,-0.4294 0.89454,-0.7971 0.26581,-0.5134 0.33588,-1.1414 0.21014,-1.8839 l -2.00731,-0.3796 c 0.0734,0.5216 0.0161,0.9628 -0.1707,1.3236 -0.16895,0.326 -0.43786,0.5651 -0.80693,0.7171 -0.36898,0.152 -0.78691,0.1775 -1.25371,0.077 -0.81522,-0.1758 -1.62513,-0.4721 -2.42983,-0.8888 l -5.78592,-2.9963 z" />
    </g>
    <g
       id="g3637"
       transform="matrix(0.98512535,0.17183728,0.17183728,-0.98512535,-172.30471,1990.2412)">
      <path
         inkscape:connector-curvature="0"
         id="path4655"
         style="font-style:normal;font-variant:normal;font-weight:normal;font-stretch:normal;font-size:medium;line-height:125%;font-family:'Arial Narrow';-inkscape-font-specification:'Arial Narrow';letter-spacing:0px;word-spacing:0px;fill:#000000;fill-opacity:1;stroke:none"
         d="m 261.7674,1068.7597 16.48719,4.8285 1.36683,-4.6673 c 0.33814,-1.1546 0.49383,-2.0615 0.46707,-2.7206 -0.0316,-0.864 -0.31187,-1.6869 -0.84003,-2.4684 -0.52825,-0.7815 -1.27558,-1.4888 -2.24209,-2.1219 -0.96651,-0.6331 -2.17705,-1.1626 -3.63151,-1.5886 -1.86696,-0.5467 -3.53092,-0.7369 -4.99208,-0.5706 -1.46106,0.1664 -2.58916,0.5992 -3.38411,1.2985 -0.79505,0.6993 -1.39563,1.7425 -1.80186,3.1295 z m 2.4693,-1.2183 0.84317,-2.8791 c 0.34039,-1.1621 0.78767,-1.9877 1.34195,-2.4766 0.55428,-0.4889 1.29852,-0.7716 2.23262,-0.8481 1.24232,-0.1002 2.64324,0.078 4.20275,0.5348 1.67194,0.4896 2.91946,1.1013 3.74256,1.8348 0.8231,0.7336 1.29151,1.5037 1.40533,2.3104 0.0773,0.5435 -0.0368,1.3364 -0.34243,2.3785 l -0.82995,2.8341 z" />
      <path
         inkscape:connector-curvature="0"
         id="path4657"
         style="font-style:normal;font-variant:normal;font-weight:normal;font-stretch:normal;font-size:medium;line-height:125%;font-family:'Arial Narrow';-inkscape-font-specification:'Arial Narrow';letter-spacing:0px;word-spacing:0px;fill:#000000;fill-opacity:1;stroke:none"
         d="m 271.07424,1049.4042 0.14109,-1.796 c -1.36086,-0.012 -2.45847,0.2843 -3.29284,0.8883 -0.83437,0.604 -1.38163,1.4653 -1.64179,2.5838 -0.32753,1.4077 -0.0585,2.6716 0.80833,3.7916 0.86644,1.12 2.30784,1.9145 4.3243,2.3836 2.09256,0.4868 3.79083,0.4187 5.09489,-0.2043 1.30397,-0.6231 2.11267,-1.6081 2.42598,-2.9549 0.29921,-1.286 0.0126,-2.4846 -0.87192,-3.5958 -0.88049,-1.1112 -2.34419,-1.905 -4.39111,-2.3812 l -0.55052,-0.116 -1.72595,7.4191 c -1.34617,-0.3854 -2.29997,-0.9402 -2.86142,-1.6644 -0.56144,-0.7241 -0.74837,-1.4895 -0.56069,-2.2961 0.29389,-1.2631 1.32768,-1.949 3.10165,-2.0577 z m 2.03361,6.3084 1.29048,-5.5471 c 1.03239,0.3203 1.76394,0.7272 2.19456,1.2204 0.62768,0.7155 0.84416,1.4918 0.64942,2.3288 -0.17531,0.7533 -0.6388,1.3233 -1.39047,1.7099 -0.75166,0.3866 -1.66636,0.4826 -2.74399,0.288 z" />
      <path
         inkscape:connector-curvature="0"
         id="path4659"
         style="font-style:normal;font-variant:normal;font-weight:normal;font-stretch:normal;font-size:medium;line-height:125%;font-family:'Arial Narrow';-inkscape-font-specification:'Arial Narrow';letter-spacing:0px;word-spacing:0px;fill:#000000;fill-opacity:1;stroke:none"
         d="m 273.6972,1038.8424 0.0427,-1.72 c -1.49523,-0.076 -2.69805,0.2008 -3.60845,0.8317 -0.9104,0.6308 -1.46524,1.488 -1.66453,2.5713 -0.24165,1.3139 0.0992,2.4947 1.0226,3.5423 0.92331,1.0476 2.44149,1.7657 4.55446,2.1544 2.12834,0.3915 3.80344,0.2568 5.0252,-0.4042 1.22176,-0.661 1.95635,-1.6638 2.20365,-3.0084 0.19075,-1.0373 0.029,-1.9707 -0.48584,-2.8001 -0.51471,-0.8295 -1.39912,-1.4628 -2.65312,-1.9 l -0.61436,1.5909 c 0.80012,0.314 1.36894,0.7086 1.70654,1.1837 0.3376,0.4752 0.45478,0.9932 0.35164,1.5541 -0.15404,0.8375 -0.65231,1.4628 -1.49491,1.8758 -0.8425,0.4129 -2.07051,0.471 -3.68403,0.1742 -1.66737,-0.3066 -2.82533,-0.7917 -3.47378,-1.4551 -0.64855,-0.6634 -0.8971,-1.4062 -0.74594,-2.2284 0.11877,-0.6454 0.46793,-1.1511 1.04759,-1.5171 0.57976,-0.366 1.40332,-0.5144 2.47098,-0.4451 z" />
      <path
         inkscape:connector-curvature="0"
         id="path4661"
         style="font-style:normal;font-variant:normal;font-weight:normal;font-stretch:normal;font-size:medium;line-height:125%;font-family:'Arial Narrow';-inkscape-font-specification:'Arial Narrow';letter-spacing:0px;word-spacing:0px;fill:#000000;fill-opacity:1;stroke:none"
         d="m 274.6513,1028.5276 -0.0269,-1.8014 c -1.356,0.1153 -2.42112,0.5125 -3.19547,1.1917 -0.77445,0.6792 -1.23895,1.5878 -1.39371,2.7258 -0.19465,1.4321 0.19152,2.6653 1.1586,3.6996 0.96718,1.0342 2.47648,1.6908 4.52789,1.9697 2.12887,0.2895 3.81333,0.063 5.0536,-0.6788 1.24017,-0.742 1.95343,-1.7981 2.13966,-3.1683 0.17792,-1.3083 -0.22329,-2.4746 -1.20362,-3.4988 -0.98033,-1.0242 -2.51164,-1.6779 -4.59403,-1.961 l -0.55899,-0.064 -1.02629,7.5478 c -1.37622,-0.2581 -2.37758,-0.7215 -3.00411,-1.3901 -0.62663,-0.6686 -0.88406,-1.4132 -0.77251,-2.2338 0.1747,-1.2851 1.14006,-2.0645 2.89607,-2.3382 z m 2.61332,6.0912 0.76735,-5.6434 c 1.05779,0.2227 1.8241,0.5595 2.29892,1.0103 0.6916,0.6539 0.9796,1.4066 0.86379,2.2581 -0.10418,0.7664 -0.51247,1.3771 -1.22478,1.8322 -0.71241,0.455 -1.61414,0.636 -2.70528,0.5428 z" />
      <path
         inkscape:connector-curvature="0"
         id="path4663"
         style="font-style:normal;font-variant:normal;font-weight:normal;font-stretch:normal;font-size:medium;line-height:125%;font-family:'Arial Narrow';-inkscape-font-specification:'Arial Narrow';letter-spacing:0px;word-spacing:0px;fill:#000000;fill-opacity:1;stroke:none"
         d="m 271.22499,1024.0124 12.41174,0.9138 0.11361,-1.5427 -1.74138,-0.1282 c 0.6719,-0.2952 1.20295,-0.6987 1.59315,-1.2105 0.39019,-0.5118 0.6088,-1.0871 0.65584,-1.726 0.0526,-0.7168 -0.0872,-1.3362 -0.42131,-1.8582 -0.33366,-0.522 -0.84728,-0.9143 -1.54077,-1.1769 0.75439,-0.3518 1.33205,-0.7773 1.73319,-1.2766 0.40093,-0.4992 0.62501,-1.0683 0.67204,-1.7072 0.0719,-0.9739 -0.20297,-1.7657 -0.82389,-2.3755 -0.62103,-0.6097 -1.65993,-0.9682 -3.1169,-1.0755 l -8.51994,-0.6273 -0.12649,1.718 7.81869,0.5757 c 0.88818,0.065 1.51263,0.176 1.87324,0.3318 0.36062,0.1558 0.63166,0.3853 0.81293,0.6885 0.18137,0.3032 0.2589,0.634 0.23248,0.9924 -0.0547,0.7402 -0.39309,1.3224 -1.01575,1.7465 -0.62265,0.4242 -1.5651,0.5898 -2.82735,0.4969 l -7.2109,-0.5309 -0.12735,1.7297 8.0641,0.5937 c 1.02843,0.076 1.74147,0.2869 2.13892,0.6334 0.39755,0.3465 0.57588,0.7964 0.53518,1.3496 -0.058,0.7869 -0.42121,1.3849 -1.08969,1.7939 -0.66858,0.4091 -1.84431,0.5516 -3.52731,0.4277 l -6.43958,-0.4741 z" />
      <path
         inkscape:connector-curvature="0"
         id="path4665"
         style="font-style:normal;font-variant:normal;font-weight:normal;font-stretch:normal;font-size:medium;line-height:125%;font-family:'Arial Narrow';-inkscape-font-specification:'Arial Narrow';letter-spacing:0px;word-spacing:0px;fill:#000000;fill-opacity:1;stroke:none"
         d="m 272.28508,1006.0689 -0.0191,1.6054 17.1785,0.2018 0.0207,-1.7225 -6.12851,-0.072 c 0.56683,-0.3606 0.99161,-0.7717 1.27435,-1.2332 0.28284,-0.4616 0.42755,-0.9775 0.43424,-1.5478 0.014,-0.7967 -0.22039,-1.5241 -0.68927,-2.182 -0.46888,-0.6579 -1.18531,-1.18785 -2.14939,-1.58984 -0.96418,-0.40197 -2.13753,-0.61108 -3.52027,-0.62733 -2.1092,-0.0248 -3.74126,0.3975 -4.89607,1.26677 -1.15481,0.8693 -1.7391,1.8938 -1.75297,3.0734 -0.003,0.5937 0.14099,1.1287 0.44409,1.6049 0.30299,0.4763 0.75711,0.8898 1.36244,1.2407 z m 6.31569,0.098 c -1.28894,-0.015 -2.2523,-0.1437 -2.89019,-0.3856 -0.63778,-0.2418 -1.12218,-0.5796 -1.45299,-1.0132 -0.33091,-0.4336 -0.49329,-0.9121 -0.48715,-1.4355 0.004,-0.7109 0.41617,-1.337 1.22332,-1.8783 0.80725,-0.5414 2.00769,-0.8027 3.60131,-0.784 1.63263,0.019 2.82873,0.2989 3.588,0.8391 0.75938,0.5402 1.13446,1.197 1.12535,1.9704 -0.004,0.7109 -0.41609,1.3409 -1.22338,1.8901 -0.80728,0.5491 -1.96874,0.8148 -3.48427,0.797 z" />
      <path
         inkscape:connector-curvature="0"
         id="path4667"
         style="font-style:normal;font-variant:normal;font-weight:normal;font-stretch:normal;font-size:medium;line-height:125%;font-family:'Arial Narrow';-inkscape-font-specification:'Arial Narrow';letter-spacing:0px;word-spacing:0px;fill:#000000;fill-opacity:1;stroke:none"
         d="m 276.07373,989.56243 -0.33655,-1.7698 c -1.31597,0.3468 -2.29689,0.92136 -2.94286,1.72365 -0.64596,0.80231 -0.9473,1.77727 -0.9039,2.92488 0.0547,1.44429 0.64719,2.59265 1.77779,3.4451 1.1306,0.85246 2.73036,1.23961 4.79919,1.16146 2.14693,-0.0811 3.76735,-0.59382 4.86144,-1.53814 1.09399,-0.94432 1.61498,-2.10739 1.56277,-3.48922 -0.0503,-1.31936 -0.64577,-2.3992 -1.78763,-3.2395 -1.14197,-0.8403 -2.76296,-1.22079 -4.86299,-1.14146 l -0.56168,0.033 0.2876,7.61175 c -1.40013,-0.0175 -2.4663,-0.30164 -3.19853,-0.85251 -0.73222,-0.55087 -1.11404,-1.24007 -1.14525,-2.06761 -0.0494,-1.29595 0.76789,-2.22979 2.4506,-2.80155 z m 3.62237,5.55081 -0.21501,-5.69125 c 1.08022,0.0374 1.89302,0.2373 2.43839,0.59977 0.79386,0.5251 1.20696,1.21703 1.23942,2.07579 0.0291,0.77289 -0.26791,1.44474 -0.89131,2.01555 -0.6235,0.57083 -1.48059,0.90421 -2.57149,1.00014 z" />
      <path
         inkscape:connector-curvature="0"
         id="path4669"
         style="font-style:normal;font-variant:normal;font-weight:normal;font-stretch:normal;font-size:medium;line-height:125%;font-family:'Arial Narrow';-inkscape-font-specification:'Arial Narrow';letter-spacing:0px;word-spacing:0px;fill:#000000;fill-opacity:1;stroke:none"
         d="m 271.82493,985.73652 12.40812,-0.96109 -0.12034,-1.55394 -1.88116,0.14569 c 0.84166,-0.4648 1.39174,-0.87375 1.65043,-1.22681 0.25869,-0.35306 0.37203,-0.736 0.34002,-1.14884 -0.0441,-0.57639 -0.31601,-1.14697 -0.81426,-1.71175 l -1.90594,0.73532 c 0.33696,0.40488 0.52111,0.80984 0.55246,1.21487 0.0281,0.36609 -0.0746,0.71098 -0.30774,1.03467 -0.23344,0.32369 -0.57517,0.56564 -1.02508,0.72586 -0.78543,0.28024 -1.62993,0.45535 -2.53339,0.52533 l -6.49623,0.50317 z" />
    </g>
    <g
       id="g5676"
       transform="matrix(-0.49950862,0,0,0.49950862,-700.70554,527.71635)">
      <path
         style="fill:none;stroke:#000000;stroke-width:2px;stroke-linecap:butt;stroke-linejoin:miter;stroke-opacity:1"
         d="m -1921.0867,874.5464 -73.8011,-13.35639"
         id="path2985"
         inkscape:connector-curvature="0" />
      <path
         style="fill:none;stroke:#000000;stroke-width:2px;stroke-linecap:butt;stroke-linejoin:miter;stroke-opacity:1"
         d="m -1811.8123,658.36621 -54.5174,-51.50584"
         id="path7853"
         inkscape:connector-curvature="0" />
      <path
         style="fill:none;stroke:#000000;stroke-width:2px;stroke-linecap:butt;stroke-linejoin:miter;stroke-opacity:1"
         d="m -1643.2261,549.07424 -24.7669,-70.79266"
         id="path7861"
         inkscape:connector-curvature="0" />
      <path
         style="fill:none;stroke:#000000;stroke-width:2px;stroke-linecap:butt;stroke-linejoin:miter;stroke-opacity:1"
         d="m -1435.123,530.66863 11.9572,-74.04071"
         id="path7869"
         inkscape:connector-curvature="0" />
      <path
         style="fill:none;stroke:#000000;stroke-width:2px;stroke-linecap:butt;stroke-linejoin:miter;stroke-opacity:1"
         d="m -1247.0366,610.86704 45.1489,-59.88804"
         id="path7877"
         inkscape:connector-curvature="0" />
      <path
         style="fill:none;stroke:#000000;stroke-width:2px;stroke-linecap:butt;stroke-linejoin:miter;stroke-opacity:1"
         d="m -1109.675,788.94232 69.3892,-28.463"
         id="path7885"
         inkscape:connector-curvature="0" />
      <path
         style="fill:none;stroke:#000000;stroke-width:2px;stroke-linecap:butt;stroke-linejoin:miter;stroke-opacity:1"
         d="m -1082.8455,1015.0073 74.1238,11.4308"
         id="path7893"
         inkscape:connector-curvature="0" />
      <path
         style="fill:none;stroke:#000000;stroke-width:2px;stroke-linecap:butt;stroke-linejoin:miter;stroke-opacity:1"
         d="m -1177.258,1223.3537 57.4628,48.1978"
         id="path7901"
         inkscape:connector-curvature="0" />
      <path
         style="fill:none;stroke:#000000;stroke-width:2px;stroke-linecap:butt;stroke-linejoin:miter;stroke-opacity:1"
         d="m -1350.6489,1347.0331 26.8643,70.0236"
         id="path7909"
         inkscape:connector-curvature="0" />
      <path
         style="fill:none;stroke:#000000;stroke-width:2px;stroke-linecap:butt;stroke-linejoin:miter;stroke-opacity:1"
         d="m -1547.2908,1372.9059 -7.8371,74.5894"
         id="path7917"
         inkscape:connector-curvature="0" />
      <path
         style="fill:none;stroke:#000000;stroke-width:2px;stroke-linecap:butt;stroke-linejoin:miter;stroke-opacity:1"
         d="m -1746.5277,1298.458 -42.9966,61.4516"
         id="path7925"
         inkscape:connector-curvature="0" />
      <path
         style="fill:none;stroke:#000000;stroke-width:2px;stroke-linecap:butt;stroke-linejoin:miter;stroke-opacity:1"
         d="m -1890.6267,1124.2376 -68.4258,30.7068"
         id="path7933"
         inkscape:connector-curvature="0" />
    </g>
  </g>
</svg>
