<?xml version="1.0" encoding="UTF-8" standalone="no"?>
<!-- Created with Inkscape (http://www.inkscape.org/) -->

<svg
   xmlns:dc="http://purl.org/dc/elements/1.1/"
   xmlns:cc="http://creativecommons.org/ns#"
   xmlns:rdf="http://www.w3.org/1999/02/22-rdf-syntax-ns#"
   xmlns:svg="http://www.w3.org/2000/svg"
   xmlns="http://www.w3.org/2000/svg"
   xmlns:xlink="http://www.w3.org/1999/xlink"
   xmlns:sodipodi="http://sodipodi.sourceforge.net/DTD/sodipodi-0.dtd"
   xmlns:inkscape="http://www.inkscape.org/namespaces/inkscape"
   width="508.44907"
   height="508.44885"
   id="svg3999"
   version="1.1"
   inkscape:version="0.48.4 r9939"
   sodipodi:docname="month ring prior to text pathification.svg"
   inkscape:export-filename="C:\Users\Antonio\Documents\orrery project\testsun.png"
   inkscape:export-xdpi="90"
   inkscape:export-ydpi="90">
  <defs
     id="defs4001">
    <linearGradient
       id="linearGradient4488">
      <stop
         style="stop-color:#989898;stop-opacity:0;"
         offset="0"
         id="stop4490" />
      <stop
         id="stop4496"
         offset="0.7361111"
         style="stop-color:#989898;stop-opacity:0;" />
      <stop
         style="stop-color:#989898;stop-opacity:1;"
         offset="1"
         id="stop4492" />
    </linearGradient>
    <linearGradient
       id="linearGradient4369">
      <stop
         style="stop-color:#000000;stop-opacity:0.8018018;"
         offset="0"
         id="stop4371" />
      <stop
         style="stop-color:#000000;stop-opacity:0;"
         offset="1"
         id="stop4373" />
    </linearGradient>
    <linearGradient
       inkscape:collect="always"
       xlink:href="#linearGradient4369"
       id="linearGradient4375"
       x1="49.630428"
       y1="54.325397"
       x2="49.630428"
       y2="46.291229"
       gradientUnits="userSpaceOnUse" />
    <radialGradient
       inkscape:collect="always"
       xlink:href="#linearGradient4488"
       id="radialGradient4494"
       cx="1344.75"
       cy="146.875"
       fx="1344.75"
       fy="146.875"
       r="249.99905"
       gradientTransform="translate(0,-2.9375112e-5)"
       gradientUnits="userSpaceOnUse" />
    <radialGradient
       inkscape:collect="always"
       xlink:href="#linearGradient4488"
       id="radialGradient3294"
       gradientUnits="userSpaceOnUse"
       gradientTransform="matrix(-1,0,0,1,1394.7499,855.48898)"
       cx="1344.75"
       cy="146.875"
       fx="1344.75"
       fy="146.875"
       r="249.99905" />
  </defs>
  <sodipodi:namedview
     id="base"
     pagecolor="#3650d4"
     bordercolor="#666666"
     borderopacity="1.0"
     inkscape:pageopacity="0.33333333"
     inkscape:pageshadow="2"
     inkscape:zoom="0.70000002"
     inkscape:cx="529.89432"
     inkscape:cy="54.060732"
     inkscape:document-units="px"
     inkscape:current-layer="layer1"
     showgrid="false"
     inkscape:window-width="1780"
     inkscape:window-height="1178"
     inkscape:window-x="1412"
     inkscape:window-y="-8"
     inkscape:window-maximized="1"
     fit-margin-top="0"
     fit-margin-left="0"
     fit-margin-right="0"
     fit-margin-bottom="0"
     units="px" />
  <metadata
     id="metadata4004">
    <rdf:RDF>
      <cc:Work
         rdf:about="">
        <dc:format>image/svg+xml</dc:format>
        <dc:type
           rdf:resource="http://purl.org/dc/dcmitype/StillImage" />
        <dc:title />
      </cc:Work>
    </rdf:RDF>
  </metadata>
  <g
     inkscape:label="Layer 1"
     inkscape:groupmode="layer"
     id="layer1"
     transform="translate(204.22452,-748.13958)">
    <path
       inkscape:connector-curvature="0"
       style="fill:url(#radialGradient3294);fill-opacity:1;fill-rule:evenodd;stroke:none"
       d="m 49.999919,752.83276 c 137.812801,0 249.531201,111.71845 249.531201,249.53124 0,137.8128 -111.7184,249.5313 -249.531201,249.5313 -137.8128,0 -249.531199,-111.7185 -249.531199,-249.5313 0,-137.81279 111.718399,-249.53124 249.531199,-249.53124 z m 0,72.59375 c -97.7198,0 -176.937499,79.21774 -176.937499,176.93749 0,97.7198 79.217699,176.9375 176.937499,176.9375 97.719801,0 176.937501,-79.2177 176.937501,-176.9375 0,-97.71975 -79.2177,-176.93749 -176.937501,-176.93749 z"
       id="path3467" />
    <path
       style="fill:none;stroke:#000000;stroke-width:1px;stroke-linecap:butt;stroke-linejoin:miter;stroke-opacity:1"
       d="M 420.70063 107.91251 L 441.62548 89.522148 "
       id="path5180"
       transform="translate(-204.22452,748.13958)" />
    <path
       style="fill:none;stroke:#000000;stroke-width:1px;stroke-linecap:butt;stroke-linejoin:miter;stroke-opacity:1"
       d="M 330.65274 46.094438 L 340.25641 19.941636 "
       id="path5174"
       transform="translate(-204.22452,748.13958)" />
    <path
       style="fill:none;stroke:#000000;stroke-width:1px;stroke-linecap:butt;stroke-linejoin:miter;stroke-opacity:1"
       d="M 214.49277 36.197527 L 209.49279 8.7602702 "
       id="path5168"
       transform="translate(-204.22452,748.13958)" />
    <path
       style="fill:none;stroke:#000000;stroke-width:1px;stroke-linecap:butt;stroke-linejoin:miter;stroke-opacity:1"
       d="M 112.21965 84.002853 L 94.395353 62.636832 "
       id="path5162"
       transform="translate(-204.22452,748.13958)" />
    <path
       style="fill:none;stroke:#000000;stroke-width:1px;stroke-linecap:butt;stroke-linejoin:miter;stroke-opacity:1"
       d="M 45.473025 179.5951 L 19.253389 170.22149 "
       id="path5156"
       transform="translate(-204.22452,748.13958)" />
    <path
       style="fill:none;stroke:#000000;stroke-width:1px;stroke-linecap:butt;stroke-linejoin:miter;stroke-opacity:1"
       d="M 35.854445 292.08507 L 8.3827686 296.84806 "
       id="path5150"
       transform="translate(-204.22452,748.13958)" />
    <path
       style="fill:none;stroke:#000000;stroke-width:1px;stroke-linecap:butt;stroke-linejoin:miter;stroke-opacity:1"
       d="M 85.253307 397.66378 L 64.058619 415.65591 "
       id="path5144"
       transform="translate(-204.22452,748.13958)" />
    <path
       style="fill:none;stroke:#000000;stroke-width:1px;stroke-linecap:butt;stroke-linejoin:miter;stroke-opacity:1"
       d="M 181.39481 463.59431 L 172.24156 489.90796 "
       id="path5138"
       transform="translate(-204.22452,748.13958)" />
    <path
       style="fill:none;stroke:#000000;stroke-width:1px;stroke-linecap:butt;stroke-linejoin:miter;stroke-opacity:1"
       d="M 293.96237 472.28464 L 298.95678 499.69135 "
       id="path5132"
       transform="translate(-204.22452,748.13958)" />
    <path
       style="fill:none;stroke:#000000;stroke-width:1px;stroke-linecap:butt;stroke-linejoin:miter;stroke-opacity:1"
       d="M 399.09224 421.93882 L 417.2824 442.9977 "
       id="path5126"
       transform="translate(-204.22452,748.13958)" />
    <path
       style="fill:none;stroke:#000000;stroke-width:1px;stroke-linecap:butt;stroke-linejoin:miter;stroke-opacity:1"
       d="M 462.97603 328.85373 L 489.22338 338.23723 "
       id="path5120"
       transform="translate(-204.22452,748.13958)" />
    <path
       style="fill:none;stroke:#000000;stroke-width:1px;stroke-linecap:butt;stroke-linejoin:miter;stroke-opacity:1"
       d="M 471.93611 212.61641 L 499.31387 207.38403 "
       id="path5114"
       transform="translate(-204.22452,748.13958)" />
    <path
       id="path3685"
       d="M 262.38842,933.38471 C 224.29212,816.08532 98.320119,751.87916 -18.979281,789.97548 -136.27868,828.07181 -200.48498,954.04379 -162.38858,1071.3432 c 38.0964,117.2994 164.0682986,181.5057 281.3677,143.4093 117.2994,-38.0963 181.5056,-164.0684 143.4093,-281.36779 z"
       style="fill:none;stroke:none"
       inkscape:connector-curvature="0"
       sodipodi:nodetypes="sssss" />
    <path
       inkscape:connector-curvature="0"
       style="fill:none;stroke:#000000;stroke-width:0.93569785px;stroke-linecap:butt;stroke-linejoin:miter;stroke-opacity:1"
       d="m 50.000033,752.83276 c 137.812797,0 249.531197,111.7184 249.531197,249.53124 0,137.8128 -111.7184,249.5313 -249.531197,249.5313 -137.81284,0 -249.531243,-111.7185 -249.531243,-249.5313 0,-137.81284 111.718403,-249.53124 249.531243,-249.53124 z"
       id="path5038"
       sodipodi:nodetypes="sssss" />
    <path
       style="fill:none;stroke:#000000;stroke-width:0.93569785000000005px;stroke-linecap:butt;stroke-linejoin:miter;stroke-opacity:1"
       d="M 215.18954 35.976037 C 227.86156 33.724843 240.90586 32.55028 254.22451 32.55028 L 254.22451 32.55028 L 254.22451 32.55028 C 281.34836 32.55028 307.33437 37.421733 331.35536 46.337454 "
       id="path5271"
       transform="translate(-204.22452,748.13958)" />
    <path
       style="fill:none;stroke:#000000;stroke-width:0.93569785000000005px;stroke-linecap:butt;stroke-linejoin:miter;stroke-opacity:1"
       d="M 112.67269 83.6221 C 141.56732 59.621102 176.65739 42.821299 215.18954 35.976037 "
       id="path5269"
       transform="translate(-204.22452,748.13958)" />
    <path
       style="fill:none;stroke:#000000;stroke-width:0.93569785000000005px;stroke-linecap:butt;stroke-linejoin:miter;stroke-opacity:1"
       d="M 45.521248 179.33011 C 59.042149 141.65696 82.473727 108.70653 112.67269 83.6221 "
       id="path5267"
       transform="translate(-204.22452,748.13958)" />
    <path
       style="fill:none;stroke:#000000;stroke-width:0.93569785000000005px;stroke-linecap:butt;stroke-linejoin:miter;stroke-opacity:1"
       d="M 35.798325 292.24433 C 33.663182 279.89113 32.55046 267.18772 32.55046 254.22442 C 32.55046 227.94027 37.12496 202.7246 45.521248 179.33011 "
       id="path5265"
       transform="translate(-204.22452,748.13958)" />
    <path
       style="fill:none;stroke:#000000;stroke-width:0.93569785000000005px;stroke-linecap:butt;stroke-linejoin:miter;stroke-opacity:1"
       d="M 85.559937 398.07733 C 60.311451 368.50228 42.705294 332.20566 35.798325 292.24433 "
       id="path5263"
       transform="translate(-204.22452,748.13958)" />
    <path
       style="fill:none;stroke:#000000;stroke-width:0.93569785000000005px;stroke-linecap:butt;stroke-linejoin:miter;stroke-opacity:1"
       d="M 182.06259 463.88822 C 144.21823 450.8657 111.00744 427.88549 85.559937 398.07733 "
       id="path5261"
       transform="translate(-204.22452,748.13958)" />
    <path
       style="fill:none;stroke:#000000;stroke-width:0.93569785000000005px;stroke-linecap:butt;stroke-linejoin:miter;stroke-opacity:1"
       d="M 294.74078 472.2045 C 281.60476 474.63063 268.06272 475.89862 254.22451 475.89862 C 228.96059 475.89862 204.68381 471.67235 182.06259 463.88822 "
       id="path5259"
       transform="translate(-204.22452,748.13958)" />
    <path
       style="fill:none;stroke:#000000;stroke-width:0.93569785000000005px;stroke-linecap:butt;stroke-linejoin:miter;stroke-opacity:1"
       d="M 399.57001 421.60337 C 370.33955 447.00774 334.38963 464.88164 294.74078 472.2045 "
       id="path5257"
       transform="translate(-204.22452,748.13958)" />
    <path
       style="fill:none;stroke:#000000;stroke-width:0.93569785000000005px;stroke-linecap:butt;stroke-linejoin:miter;stroke-opacity:1"
       d="M 463.10826 328.61409 C 450.18381 364.90317 428.07106 396.83293 399.57001 421.60337 "
       id="path5255"
       transform="translate(-204.22452,748.13958)" />
    <path
       style="fill:none;stroke:#000000;stroke-width:0.93569785000000005px;stroke-linecap:butt;stroke-linejoin:miter;stroke-opacity:1"
       d="M 472.01963 212.71983 C 474.56617 226.16459 475.89861 240.0389 475.89861 254.22442 C 475.89861 280.31968 471.38963 305.36177 463.10826 328.61409 "
       id="path5253"
       transform="translate(-204.22452,748.13958)" />
    <path
       style="fill:none;stroke:#000000;stroke-width:0.93569785000000005px;stroke-linecap:butt;stroke-linejoin:miter;stroke-opacity:1"
       d="M 421.07103 108.26861 C 446.54593 137.36608 464.53159 173.18595 472.01963 212.71983 "
       id="path5251"
       transform="translate(-204.22452,748.13958)" />
    <path
       style="fill:none;stroke:#000000;stroke-width:0.93569785000000005px;stroke-linecap:butt;stroke-linejoin:miter;stroke-opacity:1"
       d="M 331.35536 46.337454 C 366.25367 59.290442 397.0044 80.779676 421.07103 108.26861 "
       id="path5040"
       transform="translate(-204.22452,748.13958)" />
  </g>
</svg>
